<?xml version="1.0" encoding="UTF-8"?>
<!-- Generated by jsxcad -->
<!DOCTYPE svg PUBLIC "-//W3C//DTD SVG 1.1 Tiny//EN" "http://www.w3.org/Graphics/SVG/1.1/DTD/svg11-tiny.dtd">
<svg baseProfile="tiny" height="24.317222052276215mm" width="31.50000000000002mm" viewBox="-19.500000000000014 -12.795937591281932 31.50000000000002 24.317222052276215" version="1.1" stroke="black" stroke-width=".1" fill="none" xmlns="http://www.w3.org/2000/svg">
<path fill="#cfab7c" stroke="#cfab7c" d="M9.760821309655935 12.512074194681222 L9.760821309655935 12.653393991635538 L9.010950261554017 12.795937591281925 L9.010950261554017 12.654617794327608 z"/>
<path fill="#cfab7c" stroke="#cfab7c" d="M10.309507420266563 12.123318110389285 L10.309507420266561 12.264637907343602 L9.760821309655938 12.653393991635534 L9.760821309655936 12.512074194681222 z"/>
<path fill="#cfab7c" stroke="#cfab7c" d="M10.509988593149604 11.592516420290513 L10.509988593149604 11.733836217244825 L10.309507420266561 12.264637907343602 L10.309507420266561 12.123318110389286 z"/>
<path fill="#cfab7c" stroke="#cfab7c" d="M11.179439341783521 8.499934759224823 L11.179439341783521 8.64125455617914 L10.509988593149604 11.733836217244827 L10.509988593149604 11.592516420290512 z"/>
<path fill="#cfab7c" stroke="#cfab7c" d="M11.794585842093497 4.543910872287008 L11.794585842093497 4.685230669241323 L11.179439341783521 8.641254556179138 L11.179439341783521 8.499934759224825 z"/>
<path fill="#cfab7c" stroke="#cfab7c" d="M12 0.5666666666666635 L11.999999999999998 0.7079864636209783 L11.794585842093497 4.685230669241323 L11.794585842093497 4.543910872287007 z"/>
<path fill="#cfab7c" stroke="#cfab7c" d="M11.794585842093483 -3.4105775389538846 L11.794585842093483 -3.26925774199957 L12 0.7079864636209783 L12 0.5666666666666635 z"/>
<path fill="#cfab7c" stroke="#cfab7c" d="M11.179439341783493 -7.366601425891678 L11.179439341783493 -7.2252816289373625 L11.794585842093483 -3.2692577419995703 L11.794585842093483 -3.4105775389538846 z"/>
<path fill="#cfab7c" stroke="#cfab7c" d="M10.509988593149604 -10.459183086957177 L10.509988593149604 -10.317863290002864 L11.179439341783493 -7.2252816289373625 L11.179439341783493 -7.366601425891677 z"/>
<path fill="#cfab7c" stroke="#cfab7c" d="M10.309507420266561 -10.989984777055954 L10.309507420266561 -10.848664980101638 L10.509988593149604 -10.317863290002862 L10.509988593149604 -10.459183086957177 z"/>
<path fill="#cfab7c" stroke="#cfab7c" d="M9.760821309655938 -11.378740861347888 L9.76082130965594 -11.237421064393573 L10.309507420266563 -10.848664980101638 L10.309507420266561 -10.989984777055954 z"/>
<path fill="#cfab7c" stroke="#cfab7c" d="M9.010950261554019 -11.521284460994275 L9.010950261554019 -11.379964664039962 L9.760821309655936 -11.237421064393576 L9.760821309655936 -11.37874086134789 z"/>
<path fill="#cfab7c" stroke="#cfab7c" d="M8.260821617727197 -11.379421133583635 L8.260821617727197 -11.238101336629322 L9.010950261554019 -11.37996466403996 L9.010950261554019 -11.521284460994275 z"/>
<path fill="#cfab7c" stroke="#cfab7c" d="M4.1097436082350844 -10.252726724378366 L4.1097436082350844 -10.111406927424053 L8.260821617727197 -11.238101336629322 L8.260821617727197 -11.379421133583637 z"/>
<path fill="#cfab7c" stroke="#cfab7c" d="M-1.0380239913987734 -8.649348948917035 L-1.0380239913987734 -8.508029151962722 L4.1097436082350844 -10.111406927424053 L4.1097436082350844 -10.252726724378366 z"/>
<path fill="#cfab7c" stroke="#cfab7c" d="M-6.006659267480579 -6.784353350573061 L-6.006659267480579 -6.643033553618745 L-1.0380239913987734 -8.50802915196272 L-1.0380239913987734 -8.649348948917035 z"/>
<path fill="#cfab7c" stroke="#cfab7c" d="M-10.769652401019158 -4.667690487796448 L-10.769652401019158 -4.526370690842133 L-6.006659267480579 -6.6430335536187455 L-6.006659267480579 -6.784353350573061 z"/>
<path fill="#cfab7c" stroke="#cfab7c" d="M-15.301590762828788 -2.3106536727828524 L-15.301590762828788 -2.169333875828538 L-10.76965240101916 -4.52637069084213 L-10.76965240101916 -4.667690487796445 z"/>
<path fill="#cfab7c" stroke="#cfab7c" d="M-18.75 -0.35255116039590195 L-18.75 -0.21123136344158766 L-15.301590762828788 -2.1693338758285376 L-15.301590762828788 -2.3106536727828515 z"/>
<path fill="#cfab7c" stroke="#cfab7c" d="M-19.299038105676658 0.035956006768189615 L-19.299038105676658 0.17727580372250432 L-18.75 -0.21123136344158755 L-18.75 -0.3525511603959019 z"/>
<path fill="#cfab7c" stroke="#cfab7c" d="M-19.5 0.5666666666666664 L-19.5 0.707986463620981 L-19.299038105676658 0.17727580372250423 L-19.299038105676658 0.03595600676818949 z"/>
<path fill="#cfab7c" stroke="#cfab7c" d="M-19.299038105676654 1.0973773265651434 L-19.299038105676654 1.2386971235194582 L-19.499999999999996 0.707986463620981 L-19.499999999999996 0.5666666666666664 z"/>
<path fill="#cfab7c" stroke="#cfab7c" d="M-18.749999999999996 1.4858844937292355 L-18.749999999999996 1.6272042906835502 L-19.299038105676658 1.2386971235194582 L-19.299038105676654 1.0973773265651432 z"/>
<path fill="#cfab7c" stroke="#cfab7c" d="M-15.301590762828575 3.4439870061162963 L-15.301590762828575 3.585306803070611 L-18.749999999999996 1.6272042906835502 L-18.749999999999996 1.4858844937292353 z"/>
<path fill="#cfab7c" stroke="#cfab7c" d="M-10.76965240101891 5.801023821129895 L-10.76965240101891 5.942343618084209 L-15.301590762828575 3.5853068030706114 L-15.301590762828575 3.4439870061162967 z"/>
<path fill="#cfab7c" stroke="#cfab7c" d="M-6.00665926748057 7.917686683906396 L-6.00665926748057 8.05900648086071 L-10.769652401018908 5.94234361808421 L-10.769652401018908 5.8010238211298955 z"/>
<path fill="#cfab7c" stroke="#cfab7c" d="M-1.0380239913985088 9.782682282250464 L-1.0380239913985088 9.924002079204781 L-6.00665926748057 8.059006480860711 L-6.00665926748057 7.917686683906395 z"/>
<path fill="#cfab7c" stroke="#cfab7c" d="M4.109743608235326 11.386060057711774 L4.109743608235326 11.527379854666089 L-1.0380239913985088 9.92400207920478 L-1.0380239913985088 9.782682282250466 z"/>
<path fill="#cfab7c" stroke="#cfab7c" d="M8.260821617727197 12.51275446691697 L8.260821617727197 12.654074263871285 L4.109743608235326 11.527379854666089 L4.109743608235326 11.386060057711774 z"/>
<path fill="#cfab7c" stroke="#cfab7c" d="M9.010950261554017 12.65461779432761 L9.010950261554017 12.795937591281923 L8.260821617727197 12.654074263871284 L8.260821617727197 12.51275446691697 z"/>
<path fill="#cfab7c" stroke="#cfab7c" d="M9.760821309655936 12.512074194681222 L9.010950261554019 12.654617794327608 L8.2608216177272 12.512754466916968 L4.109743608235327 11.386060057711774 L-1.038023991398509 9.782682282250464 L-6.006659267480571 7.917686683906394 L-10.76965240101891 5.801023821129894 L-15.301590762828575 3.4439870061162967 L-18.75 1.4858844937292355 L-19.299038105676658 1.0973773265651434 L-19.5 0.5666666666666663 L-19.299038105676658 0.03595600676818951 L-18.75 -0.3525511603959021 L-15.301590762828788 -2.310653672782852 L-10.76965240101916 -4.667690487796445 L-6.00665926748058 -6.784353350573059 L-1.0380239913987737 -8.649348948917032 L4.109743608235085 -10.252726724378363 L8.2608216177272 -11.379421133583634 L9.01095026155402 -11.521284460994274 L9.760821309655938 -11.378740861347888 L10.309507420266561 -10.989984777055954 L10.509988593149604 -10.459183086957177 L11.179439341783493 -7.366601425891677 L11.794585842093483 -3.4105775389538846 L12 0.5666666666666635 L11.794585842093497 4.543910872287008 L11.179439341783521 8.499934759224825 L10.509988593149604 11.592516420290512 L10.309507420266561 12.123318110389286 z"/>
<path fill="#cfab7c" stroke="#cfab7c" d="M9.760821309655936 12.653393991635536 L10.309507420266561 12.264637907343602 L10.509988593149604 11.733836217244825 L11.179439341783521 8.64125455617914 L11.794585842093497 4.685230669241323 L12 0.7079864636209783 L11.794585842093483 -3.26925774199957 L11.179439341783493 -7.2252816289373625 L10.509988593149604 -10.317863290002862 L10.309507420266561 -10.848664980101638 L9.760821309655938 -11.237421064393573 L9.01095026155402 -11.37996466403996 L8.2608216177272 -11.238101336629319 L4.109743608235085 -10.11140692742405 L-1.0380239913987737 -8.508029151962718 L-6.00665926748058 -6.643033553618744 L-10.76965240101916 -4.52637069084213 L-15.301590762828788 -2.1693338758285376 L-18.75 -0.21123136344158744 L-19.299038105676658 0.17727580372250423 L-19.5 0.707986463620981 L-19.299038105676658 1.238697123519458 L-18.75 1.6272042906835502 L-15.301590762828575 3.5853068030706114 L-10.76965240101891 5.942343618084209 L-6.006659267480571 8.05900648086071 L-1.038023991398509 9.924002079204778 L4.109743608235327 11.527379854666087 L8.2608216177272 12.654074263871284 L9.010950261554019 12.795937591281922 z"/>
<path fill="#cfab7c" stroke="#cfab7c" d="M4.56585522287025 -4.275124521746589 L4.56585522287025 -3.921825029360803 L3 -4.067698815566835 L3 -4.420998307952622 z"/>
<path fill="#cfab7c" stroke="#cfab7c" d="M6.024999999999998 -3.8474442205906025 L6.024999999999998 -3.4941447282048155 L4.565855222870249 -3.9218250293608032 L4.565855222870249 -4.27512452174659 z"/>
<path fill="#cfab7c" stroke="#cfab7c" d="M7.277996026178611 -3.167103110233326 L7.277996026178611 -2.813803617847539 L6.024999999999999 -3.494144728204815 L6.0249999999999995 -3.8474442205906016 z"/>
<path fill="#cfab7c" stroke="#cfab7c" d="M8.239453692895854 -2.280465313028764 L8.239453692895854 -1.9271658206429778 L7.277996026178611 -2.813803617847539 L7.277996026178611 -3.1671031102333256 z"/>
<path fill="#cfab7c" stroke="#cfab7c" d="M8.843851249048862 -1.247953729618171 L8.843851249048862 -0.8946542372323844 L8.239453692895854 -1.927165820642978 L8.239453692895854 -2.2804653130287647 z"/>
<path fill="#cfab7c" stroke="#cfab7c" d="M8.918347502412603 -0.847546531302876 L8.918347502412603 -0.8023282905255057 L8.918347502412603 -0.8011492501985295 L8.918347502412603 -0.7198742151883283 L8.918347502412603 -0.49424703891708927 L8.843851249048862 -0.8946542372323844 L8.843851249048862 -1.2479537296181709 z"/>
<path fill="#cfab7c" stroke="#cfab7c" d="M8.918347502412603 0.5676818950930628 L8.843851249048862 0.9680890934083556 L8.843851249048862 1.3213885857941423 L8.918347502412603 0.9209813874788495 L8.918347502412603 0.7933090713643026 L8.918347502412603 0.6897928805458546 z"/>
<path fill="#cfab7c" stroke="#cfab7c" d="M8.239453692895854 2.00060067681895 L8.239453692895854 2.3539001692047368 L8.843851249048862 1.321388585794142 L8.843851249048862 0.9680890934083555 z"/>
<path fill="#cfab7c" stroke="#cfab7c" d="M7.277996026178614 2.8872384740235106 L7.277996026178614 3.2405379664092973 L8.239453692895854 2.3539001692047368 L8.239453692895854 2.0006006768189497 z"/>
<path fill="#cfab7c" stroke="#cfab7c" d="M6.025000000000002 3.567579584380788 L6.025000000000002 3.920879076766574 L7.277996026178614 3.2405379664092977 L7.277996026178614 2.8872384740235106 z"/>
<path fill="#cfab7c" stroke="#cfab7c" d="M4.565855222870252 3.995259885536776 L4.565855222870252 4.348559377922562 L6.025 3.920879076766575 L6.025 3.5675795843807885 z"/>
<path fill="#cfab7c" stroke="#cfab7c" d="M3.0000000000000027 4.141133671742809 L3.0000000000000027 4.494433164128596 L4.565855222870253 4.348559377922562 L4.565855222870253 3.995259885536776 z"/>
<path fill="#cfab7c" stroke="#cfab7c" d="M-0.024999999999996355 3.5675795843807907 L-0.024999999999996355 3.9208790767665773 L1.4341447771297526 4.348559377922563 L1.4341447771297526 3.9952598855367767 z"/>
<path fill="#cfab7c" stroke="#cfab7c" d="M-1.2779960261786103 2.8872384740235137 L-1.2779960261786105 3.2405379664093004 L-0.024999999999996848 3.920879076766577 L-0.024999999999996594 3.5675795843807903 z"/>
<path fill="#cfab7c" stroke="#cfab7c" d="M-2.239453692895853 2.0006006768189524 L-2.239453692895853 2.353900169204739 L-1.2779960261786103 3.240537966409301 L-1.2779960261786103 2.8872384740235137 z"/>
<path fill="#cfab7c" stroke="#cfab7c" d="M-2.843851249048862 0.9680890934083579 L-2.843851249048862 1.3213885857941448 L-2.239453692895853 2.353900169204739 L-2.239453692895853 2.0006006768189524 z"/>
<path fill="#cfab7c" stroke="#cfab7c" d="M1.4341447771297526 3.9952598855367767 L1.4341447771297526 4.348559377922563 L3.000000000000002 4.494433164128595 L3.000000000000002 4.141133671742809 z"/>
<path fill="#cfab7c" stroke="#cfab7c" d="M-3.0499999999999994 -0.13993231810490608 L-3.0499999999999994 0.2133671742808807 L-2.8438512490488623 1.3213885857941445 L-2.843851249048862 0.9680890934083579 z"/>
<path fill="#cfab7c" stroke="#cfab7c" d="M-2.843851249048864 -1.2479537296181682 L-2.843851249048864 -0.8946542372323815 L-3.05 0.21336717428088067 L-3.05 -0.13993231810490608 z"/>
<path fill="#cfab7c" stroke="#cfab7c" d="M-0.025000000000007908 -3.8474442205905985 L-0.025000000000007926 -3.494144728204812 L-1.2779960261786165 -2.8138036178475354 L-1.2779960261786165 -3.167103110233322 z"/>
<path fill="#cfab7c" stroke="#cfab7c" d="M-2.2394536928958564 -2.2804653130287615 L-2.2394536928958564 -1.927165820642975 L-2.843851249048864 -0.8946542372323816 L-2.843851249048864 -1.2479537296181684 z"/>
<path fill="#cfab7c" stroke="#cfab7c" d="M-1.2779960261786167 -3.167103110233322 L-1.2779960261786167 -2.813803617847535 L-2.2394536928958564 -1.927165820642975 L-2.2394536928958564 -2.2804653130287615 z"/>
<path fill="#cfab7c" stroke="#cfab7c" d="M1.4341447771297395 -4.275124521746587 L1.4341447771297395 -3.9218250293608006 L-0.025000000000007457 -3.494144728204812 L-0.025000000000007457 -3.847444220590599 z"/>
<path fill="#cfab7c" stroke="#cfab7c" d="M3 -4.4209983079526225 L3 -4.067698815566835 L1.4341447771297395 -3.921825029360801 L1.4341447771297395 -4.275124521746588 z"/>
<path fill="#cfab7c" stroke="#cfab7c" d="M4.500000000000001 1.4516920473773267 L4.749999999999999 1.4516920473773267 L5.833333333333334 1.4516920473773267 L7.277996026178613 1.4516920473773267 L7.500000000000001 1.4516920473773267 L7.888888888888889 1.3779569029965342 L8.375 1.2857879725205439 L8.659686425165674 1.0843398117687923 L8.734139406042877 1.0316558242851273 L8.843851249048862 0.9540221648179474 L8.890544456622766 0.9209813874788496 L8.918347502412603 0.9209813874788496 L8.843851249048862 1.3213885857941423 L8.239453692895854 2.3539001692047368 L7.277996026178614 3.2405379664092973 L6.025000000000002 3.9208790767665747 L4.565855222870253 4.3485593779225615 L3.0000000000000027 4.494433164128595 L1.4341447771297529 4.348559377922563 L-0.02499999999999636 3.920879076766577 L-1.2779960261786103 3.240537966409301 L-2.239453692895853 2.353900169204739 L-2.8438512490488623 1.3213885857941445 L-3.05 0.21336717428088067 L-2.843851249048864 -0.8946542372323816 L-2.2394536928958564 -1.927165820642975 L-1.2779960261786165 -2.813803617847535 L-0.02500000000000746 -3.494144728204812 L1.4341447771297398 -3.9218250293608006 L3 -4.0676988155668345 L4.56585522287025 -3.9218250293608024 L6.024999999999999 -3.4941447282048146 L7.277996026178611 -2.813803617847539 L8.239453692895854 -1.927165820642978 L8.843851249048862 -0.8946542372323844 L8.918347502412603 -0.4942470389170893 L8.890544456622766 -0.4942470389170893 L8.843851249048862 -0.5272878162561876 L8.730858031457092 -0.6072434230190946 L8.375 -0.8590536239587838 L7.990593552154624 -0.9319388766430914 L7.986111111111111 -0.9327887683395761 L7.5 -1.0249576988155664 L7.277996026178611 -1.0249576988155664 L6.166666666666666 -1.0249576988155664 L4.5 -1.0249576988155664 L4.11111111111111 -0.951222554434774 L3.624999999999999 -0.8590536239587836 L3.3403135748343247 -0.6576054632070318 L2.9844555433772317 -0.40579526226734236 L2.8802530796540173 -0.13061195713479842 L2.8028312163512963 0.07384774057210416 L2.75 0.21336717428088142 L2.8542024637232144 0.48855047941342494 L2.984455543377233 0.8325296108291044 L3.2691419685429075 1.0339777715808556 L3.625000000000001 1.2857879725205443 L4.013888888888889 1.3595231169013366 z"/>
<path fill="#cfab7c" stroke="#cfab7c" d="M2.7499999999999996 0.2133671742808814 L2.8028312163512963 0.07384774057210416 L2.8802530796540173 -0.13061195713479845 L2.9844555433772313 -0.4057952622673423 L2.9844555433772313 -0.12315566835871292 L2.7499999999999996 0.49600676818951084 z"/>
<path fill="#cfab7c" stroke="#cfab7c" d="M8.918347502412603 0.7933090713643024 L8.918347502412603 0.9209813874788494 L8.890544456622766 0.9209813874788494 L8.890544456622766 1.157665726371527 L8.890544456622766 1.203620981387479 L11.829523790387329 1.203620981387479 L11.658994484684179 1.1136515868390988 L10.62415554933545 0.5676818950930628 L8.918347502412603 0.5676818950930628 L8.918347502412603 0.6897928805458545 z"/>
<path fill="#cfab7c" stroke="#cfab7c" d="M8.918347502412603 -0.7198742151883285 L8.918347502412603 -0.8011492501985298 L8.918347502412603 -0.8023282905255064 L8.918347502412603 -0.8475465313028766 L10.62415554933545 -0.8475465313028766 L10.767830330822894 -0.7717452896981183 L11.829523790387329 -0.2116074450084605 L8.890544456622766 -0.2116074450084605 L8.890544456622766 -0.33570872317097933 L8.890544456622766 -0.4942470389170894 L8.918347502412603 -0.4942470389170894 z"/>
<path fill="#cfab7c" stroke="#cfab7c" d="M8.918347502412603 -0.847546531302876 L8.843851249048862 -1.2479537296181709 L8.239453692895854 -2.2804653130287647 L7.277996026178611 -3.1671031102333256 L6.024999999999999 -3.8474442205906016 L4.56585522287025 -4.275124521746589 L3 -4.420998307952622 L1.4341447771297398 -4.275124521746587 L-0.02500000000000746 -3.847444220590598 L-1.2779960261786165 -3.167103110233322 L-2.2394536928958564 -2.280465313028761 L-2.843851249048864 -1.2479537296181682 L-3.05 -0.13993231810490606 L-2.8438512490488623 0.9680890934083579 L-2.239453692895853 2.0006006768189524 L-1.2779960261786103 2.8872384740235137 L-0.02499999999999636 3.5675795843807903 L1.4341447771297529 3.9952598855367762 L3.0000000000000027 4.141133671742808 L4.565855222870253 3.9952598855367754 L6.025000000000002 3.5675795843807876 L7.277996026178614 2.8872384740235106 L8.239453692895854 2.0006006768189497 L8.843851249048862 0.9680890934083556 L8.918347502412603 0.5676818950930628 L10.62415554933545 0.5676818950930628 L10.6607019543868 -0.13993231810490883 L10.632620831202773 -0.6836411140770723 L10.62415554933545 -0.847546531302876 z"/>
<path fill="#cfab7c" stroke="#cfab7c" d="M8.890544456622766 0.9209813874788496 L8.843851249048862 0.9540221648179475 L8.734139406042877 1.0316558242851273 L8.659686425165674 1.0843398117687923 L8.375 1.2857879725205439 L8.375 1.5684275664291734 L8.890544456622766 1.203620981387479 L8.890544456622766 1.157665726371527 z"/>
<path fill="#cfab7c" stroke="#cfab7c" d="M3.6249999999999987 -0.5764140300501542 L2.9844555433772313 -0.12315566835871279 L2.9844555433772313 -0.4057952622673425 L3.3403135748343242 -0.6576054632070318 L3.6249999999999987 -0.8590536239587833 z"/>
<path fill="#cfab7c" stroke="#cfab7c" d="M4.499999999999999 -1.0249576988155664 L4.499999999999999 -0.742318104906937 L3.6249999999999987 -0.5764140300501541 L3.6249999999999987 -0.8590536239587838 L4.11111111111111 -0.9512225544347742 z"/>
<path fill="#cfab7c" stroke="#cfab7c" d="M6.166666666666666 -1.0249576988155669 L7.277996026178611 -1.0249576988155669 L7.5 -1.0249576988155669 L7.5 -0.7423181049069377 L4.5 -0.7423181049069377 L4.5 -1.0249576988155669 z"/>
<path fill="#cfab7c" stroke="#cfab7c" d="M7.98611111111111 -0.9327887683395766 L7.990593552154622 -0.9319388766430919 L8.374999999999998 -0.8590536239587843 L8.374999999999998 -0.5764140300501549 L7.499999999999999 -0.7423181049069374 L7.499999999999999 -1.0249576988155666 z"/>
<path fill="#cfab7c" stroke="#cfab7c" d="M8.890544456622766 -0.4942470389170894 L8.890544456622766 -0.3357087231709792 L8.890544456622766 -0.21160744500845977 L8.375 -0.5764140300501543 L8.375 -0.8590536239587837 L8.730858031457092 -0.6072434230190944 L8.843851249048862 -0.5272878162561874 z"/>
<path fill="#cfab7c" stroke="#cfab7c" d="M7.888888888888888 1.3779569029965346 L7.5 1.451692047377327 L7.5 1.7343316412859564 L8.374999999999998 1.5684275664291736 L8.374999999999998 1.285787972520544 z"/>
<path fill="#cfab7c" stroke="#cfab7c" d="M7.500000000000001 1.4516920473773265 L7.277996026178613 1.4516920473773265 L5.833333333333334 1.4516920473773265 L4.749999999999999 1.4516920473773265 L4.500000000000001 1.4516920473773265 L4.500000000000001 1.734331641285956 L7.500000000000001 1.734331641285956 z"/>
<path fill="#cfab7c" stroke="#cfab7c" d="M3.6250000000000004 1.285787972520544 L3.6250000000000004 1.5684275664291738 L4.5 1.734331641285956 L4.5 1.4516920473773263 L4.013888888888889 1.3595231169013362 z"/>
<path fill="#cfab7c" stroke="#cfab7c" d="M2.984455543377233 0.8325296108291044 L2.984455543377233 1.1151692047377337 L3.625000000000001 1.5684275664291738 L3.625000000000001 1.2857879725205443 L3.2691419685429075 1.0339777715808554 z"/>
<path fill="#cfab7c" stroke="#cfab7c" d="M2.8542024637232144 0.488550479413425 L2.75 0.21336717428088142 L2.75 0.49600676818951084 L2.984455543377233 1.1151692047377337 L2.984455543377233 0.8325296108291043 z"/>
<path fill="#cfab7c" stroke="#cfab7c" d="M8.890544456622766 -0.21160744500845988 L11.829523790387329 -0.21160744500845988 L11.840195698265727 -0.004977170810936403 L11.86607019543868 0.49600676818950634 L11.829523790387329 1.203620981387479 L8.890544456622766 1.203620981387479 L8.375 1.5684275664291734 L7.500000000000001 1.734331641285956 L4.500000000000001 1.734331641285956 L3.625000000000001 1.5684275664291738 L2.984455543377233 1.1151692047377337 L2.75 0.49600676818951084 L2.9844555433772317 -0.12315566835871292 L3.624999999999999 -0.5764140300501541 L4.5 -0.742318104906937 L7.5 -0.742318104906937 L8.375 -0.5764140300501545 z"/>
<path fill="#cfab7c" stroke="#cfab7c" d="M11.658994484684177 1.113651586839099 L11.829523790387329 1.203620981387479 L11.86607019543868 0.49600676818950634 L11.999999999999998 0.5666666666666635 L11.794585842093495 4.543910872287007 L9.9910529315802 -0.4932318104906951 L10.6607019543868 -0.13993231810490886 L10.62415554933545 0.5676818950930628 z"/>
<path fill="#cfab7c" stroke="#cfab7c" d="M11.840195698265727 -0.0049771708109361875 L11.829523790387329 -0.21160744500845988 L10.767830330822894 -0.771745289698118 L10.62415554933545 -0.8475465313028759 L10.632620831202773 -0.6836411140770724 L10.6607019543868 -0.13993231810490875 L9.9910529315802 -0.49323181049069503 L11.79458584209348 -3.4105775389538846 L11.999999999999998 0.5666666666666637 L11.86607019543868 0.4960067681895064 z"/>
<path fill="#cfab7c" stroke="#cfab7c" d="M5.609490481506824 -3.995187746251511 L4.3905095184931735 -3.995187746251511 L9.01095026155402 -11.521284460994274 z"/>
<path fill="#cfab7c" stroke="#cfab7c" d="M-18.749999999999993 1.4858844937292353 L2.1801888348697487 2.4210667558386727 L-15.301590762828573 3.4439870061162963 z"/>
<path fill="#cfab7c" stroke="#cfab7c" d="M3.206483004932933 -3.7886802148704293 L8.260821617727197 -11.379421133583634 L9.010950261554019 -11.521284460994274 z"/>
<path fill="#cfab7c" stroke="#cfab7c" d="M-18.749999999999996 1.4858844937292355 L1.276389293463302 1.8544825148307191 L2.1801888348697487 2.421066755838673 z"/>
<path fill="#cfab7c" stroke="#cfab7c" d="M9.416101176511017 -2.131035257037375 L8.723610706536691 -2.840946135812108 L10.30950742026656 -10.989984777055952 z"/>
<path fill="#cfab7c" stroke="#cfab7c" d="M0.5838988234889789 -2.131035257037375 L0.15156641935207998 -1.3243785033594924 L-19.299038105676654 0.03595600676818953 z"/>
<path fill="#cfab7c" stroke="#cfab7c" d="M-18.749999999999996 -0.3525511603959022 L1.2763892934633037 -2.8409461358121075 L-19.299038105676654 0.03595600676818948 z"/>
<path fill="#cfab7c" stroke="#cfab7c" d="M1.2763892934633037 -2.8409461358121075 L0.5838988234889789 -2.131035257037375 L-19.299038105676654 0.03595600676818969 z"/>
<path fill="#cfab7c" stroke="#cfab7c" d="M0.15156641935207998 -1.3243785033594924 L-19.499999999999996 0.5666666666666664 L-19.299038105676654 0.03595600676818961 z"/>
<path fill="#cfab7c" stroke="#cfab7c" d="M-19.499999999999996 0.5666666666666664 L0.15156641935207998 0.3379148823781066 L-19.299038105676654 1.0973773265651434 z"/>
<path fill="#cfab7c" stroke="#cfab7c" d="M-18.749999999999996 -0.3525511603959022 L2.1801888348697536 -3.4075303768200627 L1.2763892934633037 -2.840946135812107 z"/>
<path fill="#cfab7c" stroke="#cfab7c" d="M-18.749999999999996 1.4858844937292355 L-19.299038105676654 1.0973773265651434 L1.276389293463302 1.8544825148307191 z"/>
<path fill="#cfab7c" stroke="#cfab7c" d="M-1.0380239913985088 9.782682282250464 L-6.00665926748057 7.917686683906395 L2.1801888348697487 2.4210667558386736 z"/>
<path fill="#cfab7c" stroke="#cfab7c" d="M3.2064830049329283 2.8022165938890407 L4.109743608235326 11.386060057711772 L-1.0380239913985088 9.782682282250464 z"/>
<path fill="#cfab7c" stroke="#cfab7c" d="M9.760821309655936 -11.378740861347888 L6.793516995067062 -3.788680214870429 L9.010950261554019 -11.521284460994275 z"/>
<path fill="#cfab7c" stroke="#cfab7c" d="M-1.0380239913987734 -8.649348948917034 L4.1097436082350844 -10.252726724378364 L3.2064830049329327 -3.788680214870429 z"/>
<path fill="#cfab7c" stroke="#cfab7c" d="M-6.00665926748057 7.917686683906394 L-10.769652401018908 5.801023821129895 L2.1801888348697487 2.421066755838673 z"/>
<path fill="#cfab7c" stroke="#cfab7c" d="M9.760821309655936 -11.378740861347888 L7.819811165130243 -3.4075303768200627 L6.793516995067062 -3.7886802148704297 z"/>
<path fill="#cfab7c" stroke="#cfab7c" d="M9.848433580647912 0.33791488237811296 L10.509988593149602 11.592516420290512 L10.30950742026656 12.123318110389286 z"/>
<path fill="#cfab7c" stroke="#cfab7c" d="M2.1801888348697536 -3.4075303768200627 L-15.301590762828786 -2.310653672782852 L-10.769652401019158 -4.667690487796445 z"/>
<path fill="#cfab7c" stroke="#cfab7c" d="M11.17943934178349 -7.366601425891678 L9.9910529315802 -0.4932318104906953 L9.848433580647917 -1.3243785033594944 z"/>
<path fill="#cfab7c" stroke="#cfab7c" d="M10.509988593149602 -10.459183086957177 L11.17943934178349 -7.366601425891678 L9.848433580647917 -1.3243785033594941 z"/>
<path fill="#cfab7c" stroke="#cfab7c" d="M-6.006659267480578 -6.784353350573059 L2.1801888348697536 -3.4075303768200627 L-10.769652401019158 -4.667690487796445 z"/>
<path fill="#cfab7c" stroke="#cfab7c" d="M7.819811165130242 -3.407530376820062 L9.760821309655936 -11.378740861347888 L8.723610706536691 -2.8409461358121084 z"/>
<path fill="#cfab7c" stroke="#cfab7c" d="M9.416101176511013 1.1445716360559945 L9.848433580647912 0.337914882378113 L10.30950742026656 12.123318110389286 z"/>
<path fill="#cfab7c" stroke="#cfab7c" d="M9.848433580647917 -1.3243785033594937 L9.416101176511017 -2.131035257037375 L10.30950742026656 -10.989984777055954 z"/>
<path fill="#cfab7c" stroke="#cfab7c" d="M9.760821309655935 12.51207419468122 L7.819811165130236 2.421066755838679 L8.723610706536686 1.8544825148307258 z"/>
<path fill="#cfab7c" stroke="#cfab7c" d="M0.15156641935207998 0.3379148823781066 L0.5838988234889777 1.1445716360559879 L-19.299038105676654 1.0973773265651434 z"/>
<path fill="#cfab7c" stroke="#cfab7c" d="M10.509988593149602 11.592516420290512 L9.848433580647912 0.3379148823781132 L11.17943934178352 8.499934759224825 z"/>
<path fill="#cfab7c" stroke="#cfab7c" d="M2.1801888348697487 2.421066755838673 L-10.769652401018908 5.801023821129894 L-15.301590762828573 3.4439870061162967 z"/>
<path fill="#cfab7c" stroke="#cfab7c" d="M0.008947068419796853 -0.49323181049069453 L-19.499999999999996 0.5666666666666665 L0.15156641935207998 -1.3243785033594921 z"/>
<path fill="#cfab7c" stroke="#cfab7c" d="M6.793516995067058 2.8022165938890446 L7.819811165130236 2.421066755838679 L9.760821309655935 12.512074194681222 z"/>
<path fill="#cfab7c" stroke="#cfab7c" d="M-19.499999999999996 0.5666666666666662 L0.008947068419796853 -0.4932318104906948 L0.15156641935207998 0.3379148823781066 z"/>
<path fill="#cfab7c" stroke="#cfab7c" d="M5.6094904815068185 3.008724125270124 L9.010950261554017 12.654617794327606 L4.390509518493169 3.008724125270123 z"/>
<path fill="#cfab7c" stroke="#cfab7c" d="M9.848433580647919 -1.3243785033594937 L9.991052931580201 -0.49323181049069503 L9.848433580647914 0.33791488237811307 L9.416101176511015 1.1445716360559943 L8.723610706536688 1.854482514830726 L7.819811165130237 2.421066755838679 L6.793516995067059 2.8022165938890446 L5.609490481506819 3.008724125270124 L4.39050951849317 3.008724125270123 L3.2064830049329287 2.8022165938890407 L2.180188834869749 2.421066755838673 L1.2763892934633023 1.8544825148307194 L0.5838988234889778 1.1445716360559879 L0.15156641935208 0.33791488237810663 L0.008947068419796854 -0.49323181049069487 L0.15156641935208 -1.3243785033594924 L0.583898823488979 -2.131035257037375 L1.2763892934633039 -2.8409461358121075 L2.180188834869754 -3.4075303768200627 L3.2064830049329336 -3.7886802148704293 L4.3905095184931735 -3.9951877462515104 L5.609490481506824 -3.9951877462515104 L6.793516995067064 -3.7886802148704293 L7.819811165130244 -3.4075303768200627 L8.723610706536693 -2.840946135812108 L9.416101176511019 -2.131035257037375 z"/>
<path fill="#cfab7c" stroke="#cfab7c" d="M2.1801888348697536 -3.4075303768200627 L-6.006659267480578 -6.784353350573059 L-1.0380239913987734 -8.649348948917032 z"/>
<path fill="#cfab7c" stroke="#cfab7c" d="M9.010950261554017 12.654617794327608 L6.7935169950670575 2.8022165938890446 L9.760821309655935 12.51207419468122 z"/>
<path fill="#cfab7c" stroke="#cfab7c" d="M2.1801888348697536 -3.407530376820062 L-1.0380239913987734 -8.649348948917032 L3.206483004932933 -3.7886802148704293 z"/>
<path fill="#cfab7c" stroke="#cfab7c" d="M8.723610706536691 -2.8409461358121084 L9.760821309655936 -11.378740861347886 L10.30950742026656 -10.989984777055954 z"/>
<path fill="#cfab7c" stroke="#cfab7c" d="M3.206483004932933 -3.7886802148704297 L4.1097436082350844 -10.252726724378364 L8.260821617727197 -11.379421133583634 z"/>
<path fill="#cfab7c" stroke="#cfab7c" d="M9.010950261554017 12.654617794327608 L5.6094904815068185 3.008724125270124 L6.793516995067058 2.8022165938890446 z"/>
<path fill="#cfab7c" stroke="#cfab7c" d="M4.390509518493173 -3.9951877462515104 L3.206483004932933 -3.7886802148704293 L9.010950261554019 -11.521284460994274 z"/>
<path fill="#cfab7c" stroke="#cfab7c" d="M-1.038023991398509 9.782682282250464 L4.109743608235327 11.386060057711774 L8.2608216177272 12.512754466916968 L9.010950261554019 12.654617794327608 L9.760821309655936 12.512074194681222 L10.309507420266561 12.123318110389286 L10.509988593149604 11.592516420290512 L11.179439341783521 8.499934759224825 L11.794585842093497 4.543910872287008 L12 0.5666666666666635 L11.794585842093483 -3.4105775389538846 L11.179439341783493 -7.366601425891678 L10.509988593149604 -10.459183086957177 L10.309507420266561 -10.989984777055954 L9.760821309655938 -11.378740861347888 L9.01095026155402 -11.521284460994275 L8.2608216177272 -11.379421133583635 L4.109743608235085 -10.252726724378363 L-1.0380239913987737 -8.649348948917034 L-6.00665926748058 -6.784353350573058 L-10.76965240101916 -4.667690487796445 L-15.301590762828788 -2.3106536727828524 L-18.75 -0.3525511603959021 L-19.299038105676658 0.03595600676818951 L-19.5 0.5666666666666664 L-19.299038105676658 1.0973773265651432 L-18.75 1.4858844937292355 L-15.301590762828575 3.4439870061162967 L-10.76965240101891 5.801023821129894 L-6.006659267480571 7.917686683906395 z"/>
<path fill="#cfab7c" stroke="#cfab7c" d="M3.2064830049329283 2.8022165938890407 L-1.0380239913985088 9.782682282250464 L2.1801888348697487 2.421066755838673 z"/>
<path fill="#cfab7c" stroke="#cfab7c" d="M-19.299038105676654 1.0973773265651432 L0.5838988234889777 1.1445716360559877 L1.276389293463302 1.8544825148307194 z"/>
<path fill="#cfab7c" stroke="#cfab7c" d="M8.723610706536686 1.8544825148307258 L9.416101176511013 1.1445716360559943 L10.30950742026656 12.123318110389286 z"/>
<path fill="#cfab7c" stroke="#cfab7c" d="M9.9910529315802 -0.49323181049069537 L11.17943934178349 -7.366601425891678 L11.79458584209348 -3.410577538953886 z"/>
<path fill="#cfab7c" stroke="#cfab7c" d="M9.760821309655935 12.51207419468122 L8.723610706536686 1.8544825148307258 L10.30950742026656 12.123318110389286 z"/>
<path fill="#cfab7c" stroke="#cfab7c" d="M10.509988593149602 -10.459183086957177 L9.848433580647917 -1.3243785033594937 L10.30950742026656 -10.989984777055954 z"/>
<path fill="#cfab7c" stroke="#cfab7c" d="M9.848433580647912 0.33791488237811296 L9.9910529315802 -0.49323181049069537 L11.17943934178352 8.499934759224825 z"/>
<path fill="#cfab7c" stroke="#cfab7c" d="M8.260821617727197 12.512754466916968 L4.109743608235326 11.386060057711774 L3.2064830049329283 2.8022165938890407 z"/>
<path fill="#cfab7c" stroke="#cfab7c" d="M9.010950261554017 12.654617794327608 L8.260821617727197 12.512754466916968 L3.2064830049329283 2.8022165938890407 z"/>
<path fill="#cfab7c" stroke="#cfab7c" d="M9.9910529315802 -0.49323181049069487 L11.794585842093495 4.543910872287008 L11.17943934178352 8.499934759224825 z"/>
<path fill="#cfab7c" stroke="#cfab7c" d="M9.010950261554017 12.654617794327608 L3.2064830049329283 2.8022165938890407 L4.390509518493169 3.0087241252701236 z"/>
<path fill="#cfab7c" stroke="#cfab7c" d="M6.793516995067063 -3.7886802148704297 L5.609490481506823 -3.9951877462515104 L9.010950261554019 -11.521284460994274 z"/>
<path fill="#cfab7c" stroke="#cfab7c" d="M-15.301590762828786 -2.3106536727828515 L2.1801888348697536 -3.407530376820062 L-18.749999999999996 -0.3525511603959019 z"/>
<path fill="#ffb458" stroke="#ffb458" d="M4.56585522287025 -3.921825029360803 L4.56585522287025 -4.275124521746589 L3 -4.420998307952622 L3 -4.067698815566835 z"/>
<path fill="#ffb458" stroke="#ffb458" d="M6.024999999999998 -3.4941447282048155 L6.024999999999998 -3.8474442205906025 L4.565855222870249 -4.27512452174659 L4.565855222870249 -3.9218250293608032 z"/>
<path fill="#ffb458" stroke="#ffb458" d="M7.277996026178611 -2.813803617847539 L7.277996026178611 -3.167103110233326 L6.0249999999999995 -3.8474442205906016 L6.024999999999999 -3.494144728204815 z"/>
<path fill="#ffb458" stroke="#ffb458" d="M8.239453692895854 -1.9271658206429778 L8.239453692895854 -2.280465313028764 L7.277996026178611 -3.1671031102333256 L7.277996026178611 -2.813803617847539 z"/>
<path fill="#ffb458" stroke="#ffb458" d="M8.843851249048862 -0.8946542372323844 L8.843851249048862 -1.247953729618171 L8.239453692895854 -2.2804653130287647 L8.239453692895854 -1.927165820642978 z"/>
<path fill="#ffb458" stroke="#ffb458" d="M9.049999999999999 0.21336717428087904 L9.049999999999999 -0.13993231810490772 L8.843851249048862 -1.247953729618171 L8.843851249048862 -0.8946542372323844 z"/>
<path fill="#ffb458" stroke="#ffb458" d="M8.843851249048862 1.3213885857941423 L8.843851249048862 0.9680890934083555 L9.049999999999999 -0.13993231810490772 L9.049999999999999 0.21336717428087904 z"/>
<path fill="#ffb458" stroke="#ffb458" d="M8.239453692895854 2.3539001692047368 L8.239453692895854 2.00060067681895 L8.843851249048862 0.9680890934083555 L8.843851249048862 1.321388585794142 z"/>
<path fill="#ffb458" stroke="#ffb458" d="M7.277996026178614 3.2405379664092973 L7.277996026178614 2.8872384740235106 L8.239453692895854 2.0006006768189497 L8.239453692895854 2.3539001692047368 z"/>
<path fill="#ffb458" stroke="#ffb458" d="M6.025000000000002 3.920879076766574 L6.025000000000002 3.567579584380788 L7.277996026178614 2.8872384740235106 L7.277996026178614 3.2405379664092977 z"/>
<path fill="#ffb458" stroke="#ffb458" d="M4.565855222870252 4.348559377922562 L4.565855222870252 3.995259885536776 L6.025 3.5675795843807885 L6.025 3.920879076766575 z"/>
<path fill="#ffb458" stroke="#ffb458" d="M3.0000000000000027 4.494433164128596 L3.0000000000000027 4.141133671742809 L4.565855222870253 3.995259885536776 L4.565855222870253 4.348559377922562 z"/>
<path fill="#ffb458" stroke="#ffb458" d="M-0.024999999999996355 3.9208790767665773 L-0.024999999999996355 3.5675795843807907 L1.4341447771297526 3.9952598855367767 L1.4341447771297526 4.348559377922563 z"/>
<path fill="#ffb458" stroke="#ffb458" d="M-1.2779960261786105 3.2405379664093004 L-1.2779960261786103 2.8872384740235137 L-0.024999999999996594 3.5675795843807903 L-0.024999999999996848 3.920879076766577 z"/>
<path fill="#ffb458" stroke="#ffb458" d="M-2.239453692895853 2.353900169204739 L-2.239453692895853 2.0006006768189524 L-1.2779960261786103 2.8872384740235137 L-1.2779960261786103 3.240537966409301 z"/>
<path fill="#ffb458" stroke="#ffb458" d="M-2.843851249048862 1.3213885857941448 L-2.843851249048862 0.9680890934083579 L-2.239453692895853 2.0006006768189524 L-2.239453692895853 2.353900169204739 z"/>
<path fill="#ffb458" stroke="#ffb458" d="M1.4341447771297526 4.348559377922563 L1.4341447771297526 3.9952598855367767 L3.000000000000002 4.141133671742809 L3.000000000000002 4.494433164128595 z"/>
<path fill="#ffb458" stroke="#ffb458" d="M-3.0499999999999994 0.2133671742808807 L-3.0499999999999994 -0.13993231810490608 L-2.843851249048862 0.9680890934083579 L-2.8438512490488623 1.3213885857941445 z"/>
<path fill="#ffb458" stroke="#ffb458" d="M-2.843851249048864 -0.8946542372323815 L-2.843851249048864 -1.2479537296181682 L-3.05 -0.13993231810490608 L-3.05 0.21336717428088067 z"/>
<path fill="#ffb458" stroke="#ffb458" d="M-0.025000000000007926 -3.494144728204812 L-0.025000000000007908 -3.8474442205905985 L-1.2779960261786165 -3.167103110233322 L-1.2779960261786165 -2.8138036178475354 z"/>
<path fill="#ffb458" stroke="#ffb458" d="M-2.2394536928958564 -1.927165820642975 L-2.2394536928958564 -2.2804653130287615 L-2.843851249048864 -1.2479537296181684 L-2.843851249048864 -0.8946542372323816 z"/>
<path fill="#ffb458" stroke="#ffb458" d="M-1.2779960261786167 -2.813803617847535 L-1.2779960261786167 -3.167103110233322 L-2.2394536928958564 -2.2804653130287615 L-2.2394536928958564 -1.927165820642975 z"/>
<path fill="#ffb458" stroke="#ffb458" d="M1.4341447771297395 -3.9218250293608006 L1.4341447771297395 -4.275124521746587 L-0.025000000000007457 -3.847444220590599 L-0.025000000000007457 -3.494144728204812 z"/>
<path fill="#ffb458" stroke="#ffb458" d="M3 -4.067698815566835 L3 -4.4209983079526225 L1.4341447771297395 -4.275124521746588 L1.4341447771297395 -3.921825029360801 z"/>
<path fill="#ffb458" stroke="#ffb458" d="M4.56585522287025 -3.9218250293608024 L3 -4.0676988155668345 L1.4341447771297398 -3.9218250293608 L-0.02500000000000746 -3.494144728204812 L-1.2779960261786165 -2.813803617847535 L-2.2394536928958564 -1.9271658206429747 L-2.843851249048864 -0.8946542372323816 L-3.05 0.2133671742808807 L-2.8438512490488623 1.3213885857941448 L-2.239453692895853 2.3539001692047394 L-1.2779960261786103 3.2405379664093004 L-0.02499999999999636 3.9208790767665773 L1.4341447771297529 4.348559377922562 L3.0000000000000027 4.494433164128595 L4.565855222870253 4.348559377922562 L6.025000000000002 3.920879076766574 L7.277996026178614 3.2405379664092973 L8.239453692895854 2.3539001692047363 L8.843851249048862 1.3213885857941423 L9.049999999999999 0.21336717428087904 L8.843851249048862 -0.8946542372323844 L8.239453692895854 -1.927165820642978 L7.277996026178611 -2.813803617847539 L6.024999999999999 -3.4941447282048146 z"/>
<path fill="#ffb458" stroke="#ffb458" d="M4.56585522287025 -4.275124521746589 L6.024999999999999 -3.8474442205906016 L7.277996026178611 -3.167103110233326 L8.239453692895854 -2.2804653130287647 L8.843851249048862 -1.247953729618171 L9.049999999999999 -0.13993231810490772 L8.843851249048862 0.9680890934083555 L8.239453692895854 2.0006006768189497 L7.277996026178614 2.8872384740235106 L6.025000000000002 3.5675795843807876 L4.565855222870253 3.995259885536775 L3.0000000000000027 4.141133671742808 L1.4341447771297529 3.9952598855367762 L-0.02499999999999636 3.5675795843807903 L-1.2779960261786103 2.8872384740235137 L-2.239453692895853 2.0006006768189524 L-2.8438512490488623 0.9680890934083579 L-3.05 -0.13993231810490606 L-2.843851249048864 -1.2479537296181682 L-2.2394536928958564 -2.280465313028761 L-1.2779960261786165 -3.1671031102333216 L-0.02500000000000746 -3.8474442205905985 L1.4341447771297398 -4.275124521746586 L3 -4.420998307952621 z"/>
</svg>