<?xml version="1.0" encoding="UTF-8"?>
<!-- Generated by jsxcad -->
<!DOCTYPE svg PUBLIC "-//W3C//DTD SVG 1.1 Tiny//EN" "http://www.w3.org/Graphics/SVG/1.1/DTD/svg11-tiny.dtd">
<svg baseProfile="tiny" height="22.199298279551723mm" width="33.445369001834536mm" viewBox="-17.94536900183453 -11.87430227006351 33.445369001834536 22.199298279551723" version="1.1" stroke="black" stroke-width=".1" fill="none" xmlns="http://www.w3.org/2000/svg">
<path fill="#cfab7c" stroke="#cfab7c" d="M13.772542485937366 11.51477087611943 L13.772542485937366 11.79741047002806 L12.738678841830863 11.874302270063502 L12.738678841830863 11.591662676154874 z"/>
<path fill="#cfab7c" stroke="#cfab7c" d="M14.672826515897142 11.146967707337762 L14.672826515897142 11.42960730124639 L13.772542485937366 11.79741047002806 L13.772542485937366 11.514770876119432 z"/>
<path fill="#cfab7c" stroke="#cfab7c" d="M15.283863644106502 10.551849679079101 L15.283863644106502 10.83448927298773 L14.672826515897144 11.429607301246389 L14.672826515897144 11.146967707337758 z"/>
<path fill="#cfab7c" stroke="#cfab7c" d="M15.5 9.832318104906935 L15.5 10.114957698815564 L15.283863644106502 10.83448927298773 L15.283863644106502 10.551849679079101 z"/>
<path fill="#cfab7c" stroke="#cfab7c" d="M15.5 -8.56565143824027 L15.5 -8.28301184433164 L15.5 10.114957698815566 L15.5 9.832318104906937 z"/>
<path fill="#cfab7c" stroke="#cfab7c" d="M15.283863644106502 -9.285183012412432 L15.283863644106502 -9.002543418503803 L15.5 -8.28301184433164 L15.5 -8.56565143824027 z"/>
<path fill="#cfab7c" stroke="#cfab7c" d="M14.672826515897148 -9.880301040671089 L14.672826515897146 -9.59766144676246 L15.283863644106502 -9.002543418503803 L15.283863644106502 -9.285183012412432 z"/>
<path fill="#cfab7c" stroke="#cfab7c" d="M13.772542485937366 -10.248104209452762 L13.772542485937366 -9.965464615544136 L14.672826515897144 -9.597661446762464 L14.672826515897144 -9.880301040671092 z"/>
<path fill="#cfab7c" stroke="#cfab7c" d="M12.738678841830865 -10.324996009488206 L12.738678841830865 -10.042356415579578 L13.772542485937366 -9.965464615544134 L13.772542485937366 -10.248104209452764 z"/>
<path fill="#cfab7c" stroke="#cfab7c" d="M11.749999999999998 -10.09768115001122 L11.749999999999998 -9.81504155610259 L12.738678841830865 -10.042356415579578 L12.738678841830865 -10.324996009488205 z"/>
<path fill="#cfab7c" stroke="#cfab7c" d="M-16.749999999999996 -0.8986963784376168 L-16.749999999999996 -0.6160567845289866 L11.749999999999998 -9.815041556102589 L11.749999999999998 -10.09768115001122 z"/>
<path fill="#cfab7c" stroke="#cfab7c" d="M-17.522542485937368 -0.406479663742438 L-17.522542485937368 -0.12384006983380827 L-16.75 -0.6160567845289854 L-16.75 -0.898696378437615 z"/>
<path fill="#cfab7c" stroke="#cfab7c" d="M-17.945369001834514 0.26553016455166234 L-17.945369001834514 0.5481697584602917 L-17.522542485937368 -0.12384006983380826 L-17.522542485937368 -0.4064796637424377 z"/>
<path fill="#cfab7c" stroke="#cfab7c" d="M-17.945369001834514 1.0011365021150034 L-17.945369001834514 1.2837760960236329 L-17.945369001834514 0.5481697584602917 L-17.945369001834514 0.26553016455166234 z"/>
<path fill="#cfab7c" stroke="#cfab7c" d="M-17.522542485937365 1.6731463304091037 L-17.522542485937368 1.955785924317733 L-17.94536900183451 1.2837760960236329 L-17.94536900183451 1.0011365021150034 z"/>
<path fill="#cfab7c" stroke="#cfab7c" d="M-16.75 2.165363045104281 L-16.750000000000004 2.4480026390129104 L-17.522542485937365 1.955785924317733 L-17.522542485937365 1.6731463304091034 z"/>
<path fill="#cfab7c" stroke="#cfab7c" d="M11.749999999999996 11.364347816677885 L11.749999999999996 11.646987410586513 L-16.75 2.4480026390129113 L-16.75 2.165363045104282 z"/>
<path fill="#cfab7c" stroke="#cfab7c" d="M12.738678841830863 11.591662676154872 L12.738678841830863 11.874302270063502 L11.749999999999996 11.646987410586513 L11.749999999999996 11.364347816677885 z"/>
<path fill="#cfab7c" stroke="#cfab7c" d="M13.772542485937368 11.514770876119428 L12.738678841830865 11.591662676154872 L11.749999999999998 11.364347816677885 L-16.750000000000004 2.1653630451042813 L-17.522542485937368 1.6731463304091034 L-17.945369001834514 1.0011365021150034 L-17.945369001834514 0.2655301645516623 L-17.522542485937368 -0.4064796637424377 L-16.75 -0.898696378437615 L11.75 -10.097681150011217 L12.738678841830867 -10.324996009488205 L13.772542485937368 -10.248104209452762 L14.672826515897146 -9.88030104067109 L15.283863644106502 -9.285183012412432 L15.5 -8.56565143824027 L15.5 9.832318104906935 L15.283863644106502 10.5518496790791 L14.672826515897144 11.146967707337756 z"/>
<path fill="#cfab7c" stroke="#cfab7c" d="M13.772542485937368 11.797410470028058 L14.672826515897144 11.429607301246387 L15.283863644106502 10.83448927298773 L15.5 10.114957698815566 L15.5 -8.28301184433164 L15.283863644106502 -9.002543418503803 L14.672826515897146 -9.597661446762462 L13.772542485937368 -9.965464615544132 L12.738678841830867 -10.042356415579576 L11.75 -9.815041556102589 L-16.75 -0.6160567845289855 L-17.522542485937368 -0.12384006983380828 L-17.945369001834514 0.5481697584602917 L-17.945369001834514 1.2837760960236329 L-17.522542485937368 1.9557859243177331 L-16.750000000000004 2.4480026390129104 L11.749999999999998 11.646987410586512 L12.738678841830865 11.8743022700635 z"/>
<path fill="#cfab7c" stroke="#cfab7c" d="M6.565855222870249 -4.2084578550799225 L6.565855222870249 -3.8551583626941364 L4.999999999999999 -4.001032148900169 L4.999999999999999 -4.354331641285955 z"/>
<path fill="#cfab7c" stroke="#cfab7c" d="M8.024999999999999 -3.780777553923936 L8.024999999999999 -3.42747806153815 L6.565855222870249 -3.8551583626941377 L6.565855222870249 -4.208457855079923 z"/>
<path fill="#cfab7c" stroke="#cfab7c" d="M9.277996026178611 -3.100436443566659 L9.277996026178611 -2.747136951180872 L8.024999999999999 -3.4274780615381486 L8.024999999999999 -3.7807775539239348 z"/>
<path fill="#cfab7c" stroke="#cfab7c" d="M10.239453692895854 -2.2137986463620978 L10.239453692895854 -1.8604991539763112 L9.277996026178611 -2.7471369511808725 L9.277996026178611 -3.100436443566659 z"/>
<path fill="#cfab7c" stroke="#cfab7c" d="M10.843851249048862 -1.1812870629515044 L10.843851249048862 -0.8279875705657177 L10.239453692895854 -1.8604991539763114 L10.239453692895854 -2.213798646362098 z"/>
<path fill="#cfab7c" stroke="#cfab7c" d="M10.918347502412603 -0.7808798646362094 L10.918347502412603 -0.7353146121835242 L10.918347502412603 -0.7344825835318628 L10.918347502412603 -0.6532075485216616 L10.918347502412603 -0.42758037225042267 L10.843851249048862 -0.8279875705657177 L10.843851249048862 -1.1812870629515044 z"/>
<path fill="#cfab7c" stroke="#cfab7c" d="M10.918347502412603 0.6343485617597294 L10.843851249048862 1.0347557600750221 L10.843851249048862 1.388055252460809 L10.918347502412603 0.9876480541455163 L10.918347502412603 0.8599757380309693 L10.918347502412603 0.7573966455362916 z"/>
<path fill="#cfab7c" stroke="#cfab7c" d="M10.239453692895854 2.0672673434856166 L10.239453692895854 2.420566835871403 L10.843851249048862 1.388055252460809 L10.843851249048862 1.0347557600750221 z"/>
<path fill="#cfab7c" stroke="#cfab7c" d="M9.277996026178613 2.953905140690177 L9.277996026178613 3.307204633075964 L10.239453692895854 2.4205668358714036 L10.239453692895854 2.0672673434856166 z"/>
<path fill="#cfab7c" stroke="#cfab7c" d="M8.025000000000002 3.634246251047454 L8.025000000000002 3.987545743433241 L9.277996026178613 3.307204633075964 L9.277996026178613 2.9539051406901775 z"/>
<path fill="#cfab7c" stroke="#cfab7c" d="M6.565855222870252 4.061926552203442 L6.565855222870252 4.415226044589229 L8.025 3.987545743433242 L8.025 3.634246251047455 z"/>
<path fill="#cfab7c" stroke="#cfab7c" d="M5.000000000000003 4.207800338409475 L5.000000000000003 4.561099830795262 L6.565855222870253 4.415226044589229 L6.565855222870253 4.061926552203442 z"/>
<path fill="#cfab7c" stroke="#cfab7c" d="M1.9750000000000034 3.634246251047457 L1.9750000000000034 3.9875457434332438 L3.4341447771297524 4.41522604458923 L3.4341447771297524 4.061926552203443 z"/>
<path fill="#cfab7c" stroke="#cfab7c" d="M0.7220039738213896 2.9539051406901806 L0.7220039738213894 3.3072046330759672 L1.975000000000003 3.9875457434332433 L1.9750000000000032 3.634246251047457 z"/>
<path fill="#cfab7c" stroke="#cfab7c" d="M-0.2394536928958528 2.0672673434856192 L-0.23945369289585294 2.420566835871406 L0.7220039738213895 3.307204633075967 L0.7220039738213894 2.95390514069018 z"/>
<path fill="#cfab7c" stroke="#cfab7c" d="M-0.8438512490488622 1.0347557600750246 L-0.8438512490488622 1.3880552524608112 L-0.2394536928958529 2.420566835871406 L-0.2394536928958529 2.067267343485619 z"/>
<path fill="#cfab7c" stroke="#cfab7c" d="M3.4341447771297524 4.061926552203443 L3.4341447771297524 4.41522604458923 L5.000000000000002 4.561099830795262 L5.000000000000002 4.207800338409475 z"/>
<path fill="#cfab7c" stroke="#cfab7c" d="M-1.0499999999999996 -0.07326565143823942 L-1.0499999999999996 0.2800338409475473 L-0.8438512490488623 1.3880552524608112 L-0.8438512490488622 1.0347557600750246 z"/>
<path fill="#cfab7c" stroke="#cfab7c" d="M-0.8438512490488641 -1.1812870629515015 L-0.8438512490488641 -0.8279875705657148 L-1.0499999999999998 0.2800338409475473 L-1.0499999999999998 -0.07326565143823943 z"/>
<path fill="#cfab7c" stroke="#cfab7c" d="M1.974999999999992 -3.7807775539239317 L1.9749999999999919 -3.427478061538145 L0.7220039738213828 -2.747136951180869 L0.7220039738213829 -3.1004364435666556 z"/>
<path fill="#cfab7c" stroke="#cfab7c" d="M-0.23945369289585663 -2.213798646362095 L-0.2394536928958566 -1.8604991539763083 L-0.8438512490488642 -0.8279875705657148 L-0.8438512490488642 -1.1812870629515015 z"/>
<path fill="#cfab7c" stroke="#cfab7c" d="M0.722003973821383 -3.100436443566655 L0.7220039738213831 -2.747136951180868 L-0.2394536928958567 -1.8604991539763083 L-0.2394536928958568 -2.213798646362095 z"/>
<path fill="#cfab7c" stroke="#cfab7c" d="M3.434144777129739 -4.208457855079921 L3.434144777129739 -3.855158362694134 L1.9749999999999923 -3.4274780615381455 L1.9749999999999923 -3.780777553923932 z"/>
<path fill="#cfab7c" stroke="#cfab7c" d="M4.999999999999999 -4.354331641285955 L4.999999999999999 -4.001032148900168 L3.434144777129739 -3.855158362694134 L3.434144777129739 -4.208457855079921 z"/>
<path fill="#cfab7c" stroke="#cfab7c" d="M6.500000000000001 1.5183587140439931 L6.749999999999999 1.5183587140439931 L7.833333333333334 1.5183587140439931 L9.277996026178613 1.5183587140439931 L9.5 1.5183587140439931 L9.88888888888889 1.444623569663201 L10.375 1.3524546391872105 L10.659686425165674 1.1510064784354588 L10.734139406042877 1.0983224909517937 L10.843851249048862 1.020688831484614 L10.890544456622766 0.9876480541455163 L10.918347502412603 0.9876480541455163 L10.843851249048862 1.388055252460809 L10.239453692895854 2.420566835871403 L9.277996026178613 3.307204633075964 L8.025000000000002 3.987545743433241 L6.565855222870253 4.415226044589229 L5.000000000000003 4.561099830795262 L3.434144777129753 4.41522604458923 L1.9750000000000036 3.9875457434332438 L0.7220039738213897 3.307204633075967 L-0.23945369289585283 2.420566835871406 L-0.8438512490488623 1.3880552524608112 L-1.0499999999999998 0.2800338409475473 L-0.8438512490488641 -0.8279875705657148 L-0.23945369289585638 -1.860499153976308 L0.7220039738213835 -2.747136951180868 L1.9749999999999925 -3.427478061538145 L3.4341447771297395 -3.8551583626941337 L5 -4.001032148900168 L6.56585522287025 -3.8551583626941355 L8.024999999999999 -3.427478061538148 L9.277996026178611 -2.7471369511808725 L10.239453692895854 -1.8604991539763114 L10.843851249048862 -0.8279875705657177 L10.918347502412603 -0.4275803722504226 L10.890544456622766 -0.4275803722504226 L10.843851249048862 -0.46062114958952105 L10.730858031457092 -0.540576756352428 L10.375 -0.7923869572921172 L9.990593552154623 -0.8652722099764247 L9.98611111111111 -0.8661221016729095 L9.5 -0.9582910321488998 L9.277996026178611 -0.9582910321488998 L8.166666666666666 -0.9582910321488998 L6.5 -0.9582910321488998 L6.11111111111111 -0.8845558877681073 L5.624999999999999 -0.7923869572921168 L5.340313574834324 -0.5909387965403652 L4.984455543377232 -0.3391285956006757 L4.880253079654017 -0.0639452904681318 L4.802831216351296 0.14051440723877082 L4.75 0.2800338409475481 L4.854202463723214 0.5552171460800915 L4.984455543377233 0.899196277495771 L5.2691419685429075 1.100644438247522 L5.625000000000001 1.3524546391872112 L6.013888888888889 1.426189783568003 z"/>
<path fill="#cfab7c" stroke="#cfab7c" d="M4.749999999999999 0.2800338409475481 L4.802831216351296 0.14051440723877082 L4.880253079654017 -0.06394529046813177 L4.984455543377231 -0.33912859560067565 L4.984455543377231 -0.056489001692046244 L4.75 0.5626734348561774 z"/>
<path fill="#cfab7c" stroke="#cfab7c" d="M10.918347502412603 0.8599757380309689 L10.918347502412603 0.9876480541455162 L10.890544456622766 0.9876480541455162 L10.890544456622766 1.2243323930381937 L10.890544456622766 1.2702876480541456 L15.366666666666665 1.2702876480541456 L15.152103559870548 1.1565800929804677 L14.414333788031083 0.765599564147777 L14.166666666666664 0.6343485617597293 L10.918347502412603 0.6343485617597293 L10.918347502412603 0.7573966455362914 z"/>
<path fill="#cfab7c" stroke="#cfab7c" d="M10.918347502412603 -0.7353146121835247 L10.918347502412603 -0.78087986463621 L14.166666666666664 -0.78087986463621 L14.3573883161512 -0.6798070717114102 L14.5694289611695 -0.5674362933362295 L15.366666666666665 -0.14494077834179378 L10.890544456622766 -0.14494077834179378 L10.890544456622766 -0.2690420565043134 L10.890544456622766 -0.4275803722504235 L10.918347502412603 -0.4275803722504235 L10.918347502412603 -0.6532075485216619 L10.918347502412603 -0.7344825835318629 z"/>
<path fill="#cfab7c" stroke="#cfab7c" d="M10.918347502412603 -0.7808798646362094 L10.843851249048862 -1.1812870629515044 L10.239453692895854 -2.2137986463620978 L9.277996026178611 -3.1004364435666587 L8.024999999999999 -3.7807775539239348 L6.56585522287025 -4.2084578550799225 L5 -4.354331641285955 L3.4341447771297395 -4.208457855079921 L1.9749999999999925 -3.7807775539239317 L0.7220039738213835 -3.100436443566655 L-0.23945369289585638 -2.2137986463620947 L-0.8438512490488641 -1.1812870629515015 L-1.0499999999999998 -0.07326565143823943 L-0.8438512490488623 1.0347557600750243 L-0.23945369289585283 2.0672673434856192 L0.7220039738213897 2.95390514069018 L1.9750000000000036 3.634246251047457 L3.434144777129753 4.061926552203443 L5.000000000000003 4.207800338409474 L6.565855222870253 4.061926552203441 L8.025000000000002 3.6342462510474545 L9.277996026178613 2.9539051406901775 L10.239453692895854 2.0672673434856166 L10.843851249048862 1.0347557600750221 L10.918347502412603 0.6343485617597294 L14.166666666666664 0.6343485617597294 L14.166666666666664 -0.5626988155668355 L14.166666666666664 -0.7808798646362094 z"/>
<path fill="#cfab7c" stroke="#cfab7c" d="M10.890544456622766 0.9876480541455162 L10.843851249048862 1.020688831484614 L10.734139406042877 1.0983224909517937 L10.659686425165674 1.151006478435459 L10.375 1.3524546391872105 L10.375 1.6350942330958398 L10.890544456622766 1.2702876480541456 L10.890544456622766 1.2243323930381937 z"/>
<path fill="#cfab7c" stroke="#cfab7c" d="M5.624999999999998 -0.5097473633834875 L4.984455543377231 -0.05648900169204623 L4.984455543377231 -0.3391285956006757 L5.340313574834324 -0.5909387965403651 L5.624999999999998 -0.792386957292117 z"/>
<path fill="#cfab7c" stroke="#cfab7c" d="M6.11111111111111 -0.8845558877681077 L6.499999999999999 -0.9582910321489001 L6.499999999999999 -0.6756514382402704 L5.624999999999998 -0.5097473633834877 L5.624999999999998 -0.7923869572921173 z"/>
<path fill="#cfab7c" stroke="#cfab7c" d="M9.5 -0.6756514382402705 L6.5 -0.6756514382402705 L6.5 -0.9582910321489004 L8.166666666666666 -0.9582910321489004 L9.277996026178611 -0.9582910321489004 L9.5 -0.9582910321489004 z"/>
<path fill="#cfab7c" stroke="#cfab7c" d="M9.986111111111109 -0.8661221016729104 L9.990593552154621 -0.8652722099764257 L10.374999999999998 -0.792386957292118 L10.374999999999998 -0.5097473633834887 L9.499999999999998 -0.6756514382402712 L9.499999999999998 -0.9582910321489005 z"/>
<path fill="#cfab7c" stroke="#cfab7c" d="M10.890544456622766 -0.4275803722504226 L10.890544456622766 -0.2690420565043127 L10.890544456622766 -0.14494077834179325 L10.375 -0.5097473633834876 L10.375 -0.7923869572921172 L10.730858031457092 -0.5405767563524279 L10.843851249048862 -0.46062114958952094 z"/>
<path fill="#cfab7c" stroke="#cfab7c" d="M9.5 1.8009983079526228 L10.374999999999998 1.63509423309584 L10.374999999999998 1.3524546391872108 L9.888888888888888 1.4446235696632013 L9.5 1.5183587140439934 z"/>
<path fill="#cfab7c" stroke="#cfab7c" d="M7.833333333333334 1.5183587140439934 L6.749999999999999 1.5183587140439934 L6.500000000000001 1.5183587140439934 L6.500000000000001 1.8009983079526226 L9.5 1.8009983079526226 L9.5 1.5183587140439934 L9.277996026178613 1.5183587140439934 z"/>
<path fill="#cfab7c" stroke="#cfab7c" d="M5.625 1.352454639187211 L5.625 1.6350942330958405 L6.5 1.8009983079526226 L6.5 1.5183587140439934 L6.013888888888889 1.4261897835680033 z"/>
<path fill="#cfab7c" stroke="#cfab7c" d="M5.2691419685429075 1.1006444382475222 L4.984455543377233 0.899196277495771 L4.984455543377233 1.1818358714044004 L5.625000000000001 1.6350942330958405 L5.625000000000001 1.3524546391872112 z"/>
<path fill="#cfab7c" stroke="#cfab7c" d="M4.75 0.280033840947548 L4.75 0.5626734348561775 L4.984455543377233 1.1818358714044004 L4.984455543377233 0.899196277495771 L4.854202463723214 0.5552171460800915 z"/>
<path fill="#cfab7c" stroke="#cfab7c" d="M10.890544456622766 -0.14494077834179322 L15.366666666666665 -0.14494077834179322 L15.366666666666665 0.11569712351945885 L15.366666666666665 1.2702876480541456 L10.890544456622766 1.2702876480541456 L10.375 1.63509423309584 L9.5 1.8009983079526228 L6.500000000000001 1.8009983079526228 L5.625000000000001 1.6350942330958405 L4.984455543377233 1.1818358714044004 L4.75 0.5626734348561775 L4.984455543377232 -0.056489001692046265 L5.624999999999999 -0.5097473633834875 L6.5 -0.6756514382402703 L9.5 -0.6756514382402703 L10.375 -0.5097473633834877 z"/>
<path fill="#cfab7c" stroke="#cfab7c" d="M-3.469630064300446 -0.4265651438240275 L-17.94536900183451 0.26553016455166256 L-3.3790680644226057 -0.7899976601168449 z"/>
<path fill="#cfab7c" stroke="#cfab7c" d="M15.2838636441065 10.551849679079101 L14.672826515897142 11.146967707337758 L13.415413858065838 8.905848894272049 z"/>
<path fill="#cfab7c" stroke="#cfab7c" d="M13.499999999999995 8.624256287570452 L15.499999999999996 9.832318104906937 L13.41541385806584 8.905848894272049 z"/>
<path fill="#cfab7c" stroke="#cfab7c" d="M13.772542485937366 11.514770876119428 L12.956949566619127 9.098476483762974 L13.13330731807572 9.085360184493721 z"/>
<path fill="#cfab7c" stroke="#cfab7c" d="M15.499999999999998 9.832318104906935 L15.2838636441065 10.5518496790791 L13.41541385806584 8.905848894272049 z"/>
<path fill="#cfab7c" stroke="#cfab7c" d="M-17.522542485937365 -0.4064796637424376 L-3.1238967793816053 -1.1027416523357134 L-3.379068064422605 -0.7899976601168448 z"/>
<path fill="#cfab7c" stroke="#cfab7c" d="M-17.94536900183451 1.0011365021150034 L-3.469630064300446 -0.42656514382402766 L-3.379068064422605 -0.06313262753120856 z"/>
<path fill="#cfab7c" stroke="#cfab7c" d="M14.672826515897142 11.146967707337758 L13.772542485937366 11.514770876119428 L13.13330731807572 9.08536018449372 z"/>
<path fill="#cfab7c" stroke="#cfab7c" d="M-16.749999999999996 -0.898696378437615 L-2.539630827046128 -1.449654717863182 L-3.1238967793816053 -1.1027416523357136 z"/>
<path fill="#cfab7c" stroke="#cfab7c" d="M-17.522542485937365 -0.4064796637424377 L-16.749999999999996 -0.8986963784376151 L-3.1238967793816053 -1.1027416523357134 z"/>
<path fill="#cfab7c" stroke="#cfab7c" d="M13.301762583585313 -9.869669546311119 L15.283863644106498 -9.285183012412434 L13.415413858065838 -9.758979181920104 z"/>
<path fill="#cfab7c" stroke="#cfab7c" d="M12.702877882106009 -9.89319116988442 L12.738678841830865 -10.324996009488205 L12.956949566619127 -9.951606771411027 z"/>
<path fill="#cfab7c" stroke="#cfab7c" d="M15.283863644106498 -9.285183012412434 L15.499999999999998 -8.56565143824027 L13.415413858065838 -9.758979181920104 z"/>
<path fill="#cfab7c" stroke="#cfab7c" d="M13.499999999999996 8.624256287570452 L13.499999999999995 -9.477386575218507 L15.5 -8.565651438240268 L15.499999999999998 9.832318104906935 M15.366666666666665 -0.14494077834179322 L14.5694289611695 -0.5674362933362295 L14.3573883161512 -0.6798070717114096 L14.166666666666663 -0.7808798646362094 L14.166666666666663 -0.5626988155668355 L14.166666666666663 0.6343485617597294 L14.414333788031083 0.7655995641477771 L15.152103559870548 1.1565800929804677 L15.366666666666665 1.2702876480541456 L15.366666666666665 0.11569712351945884 z"/>
<path fill="#cfab7c" stroke="#cfab7c" d="M-3.379068064422605 -0.06313262753120855 L-3.1238967793816044 0.24961136468766137 L-17.522542485937365 1.6731463304091037 z"/>
<path fill="#cfab7c" stroke="#cfab7c" d="M-2.539630827046152 0.5965244302151154 L-16.75 2.165363045104281 L-3.1238967793816044 0.24961136468766137 z"/>
<path fill="#cfab7c" stroke="#cfab7c" d="M13.772542485937366 -10.248104209452762 L13.301762583585313 -9.869669546311119 L13.13330731807572 -9.938490472141774 z"/>
<path fill="#cfab7c" stroke="#cfab7c" d="M-3.1238967793816044 0.24961136468766137 L-16.75 2.165363045104281 L-17.522542485937365 1.6731463304091034 z"/>
<path fill="#cfab7c" stroke="#cfab7c" d="M-16.749999999999996 -0.8986963784376147 L12.70287788210601 -9.89319116988442 L-2.539630827046128 -1.449654717863182 z"/>
<path fill="#cfab7c" stroke="#cfab7c" d="M-17.94536900183451 1.0011365021150034 L-3.379068064422605 -0.06313262753120856 L-17.522542485937365 1.6731463304091034 z"/>
<path fill="#cfab7c" stroke="#cfab7c" d="M12.70287788210601 -9.89319116988442 L-16.749999999999996 -0.8986963784376151 L11.749999999999996 -10.097681150011217 z"/>
<path fill="#cfab7c" stroke="#cfab7c" d="M12.738678841830863 11.591662676154872 L12.702877882106014 9.040060882236364 L12.956949566619125 9.098476483762973 z"/>
<path fill="#cfab7c" stroke="#cfab7c" d="M-2.5396308270461523 0.5965244302151154 L-3.123896779381605 0.24961136468766137 L-3.3790680644226057 -0.06313262753120856 L-3.4696300643004463 -0.4265651438240277 L-3.379068064422606 -0.7899976601168448 L-3.1238967793816057 -1.1027416523357134 L-2.5396308270461283 -1.449654717863182 L12.702877882106012 -9.89319116988442 L12.956949566619128 -9.951606771411027 L13.133307318075722 -9.938490472141774 L13.301762583585315 -9.869669546311119 L13.41541385806584 -9.758979181920102 L13.499999999999996 -9.477386575218505 L13.499999999999996 8.624256287570452 L13.415413858065842 8.905848894272049 L13.301762583585315 9.016539258663064 L13.133307318075722 9.085360184493721 L12.956949566619128 9.098476483762973 L12.702877882106014 9.040060882236366 z"/>
<path fill="#cfab7c" stroke="#cfab7c" d="M13.301762583585313 9.016539258663064 L14.672826515897142 11.146967707337758 L13.13330731807572 9.08536018449372 z"/>
<path fill="#cfab7c" stroke="#cfab7c" d="M12.702877882106012 9.040060882236364 L-16.75 2.165363045104281 L-2.539630827046152 0.5965244302151154 z"/>
<path fill="#cfab7c" stroke="#cfab7c" d="M12.70287788210601 -9.89319116988442 L11.749999999999996 -10.097681150011217 L12.738678841830863 -10.324996009488205 z"/>
<path fill="#cfab7c" stroke="#cfab7c" d="M13.772542485937365 11.51477087611943 L12.738678841830863 11.591662676154872 L12.956949566619127 9.098476483762973 z"/>
<path fill="#cfab7c" stroke="#cfab7c" d="M-17.94536900183451 0.2655301645516626 L-17.522542485937365 -0.4064796637424373 L-3.3790680644226057 -0.7899976601168447 z"/>
<path fill="#cfab7c" stroke="#cfab7c" d="M15.2838636441065 -9.285183012412434 L13.301762583585312 -9.869669546311119 L14.672826515897144 -9.88030104067109 z"/>
<path fill="#cfab7c" stroke="#cfab7c" d="M-17.94536900183451 0.26553016455166223 L-3.469630064300446 -0.42656514382402755 L-17.94536900183451 1.0011365021150034 z"/>
<path fill="#cfab7c" stroke="#cfab7c" d="M12.738678841830865 -10.324996009488205 L13.772542485937366 -10.248104209452762 L12.956949566619127 -9.951606771411027 z"/>
<path fill="#cfab7c" stroke="#cfab7c" d="M14.67282651589714 11.14696770733776 L13.301762583585313 9.016539258663064 L13.41541385806584 8.905848894272049 z"/>
<path fill="#cfab7c" stroke="#cfab7c" d="M12.956949566619127 -9.951606771411027 L13.772542485937366 -10.248104209452762 L13.13330731807572 -9.938490472141774 z"/>
<path fill="#cfab7c" stroke="#cfab7c" d="M11.749999999999996 11.364347816677885 L-16.75 2.165363045104281 L12.70287788210601 9.040060882236366 z"/>
<path fill="#cfab7c" stroke="#cfab7c" d="M12.738678841830863 11.591662676154872 L11.749999999999996 11.364347816677883 L12.70287788210601 9.040060882236366 z"/>
<path fill="#cfab7c" stroke="#cfab7c" d="M15.499999999999996 -8.565651438240272 L13.499999999999995 -9.477386575218507 L13.415413858065838 -9.758979181920104 z"/>
<path fill="#cfab7c" stroke="#cfab7c" d="M-17.522542485937368 -0.4064796637424377 L-17.945369001834514 0.26553016455166234 L-17.945369001834514 1.0011365021150034 L-17.522542485937368 1.6731463304091034 L-16.750000000000004 2.165363045104281 L11.749999999999998 11.364347816677883 L12.738678841830865 11.59166267615487 L13.772542485937368 11.514770876119428 L14.672826515897144 11.14696770733776 L15.283863644106502 10.551849679079101 L15.5 9.832318104906935 L15.5 -8.56565143824027 L15.283863644106502 -9.285183012412434 L14.672826515897146 -9.88030104067109 L13.772542485937368 -10.24810420945276 L12.738678841830867 -10.324996009488205 L11.75 -10.09768115001122 L-16.75 -0.898696378437615 z"/>
<path fill="#cfab7c" stroke="#cfab7c" d="M13.301762583585313 -9.869669546311119 L13.772542485937366 -10.248104209452762 L14.672826515897144 -9.88030104067109 z"/>
<path fill="#ffb458" stroke="#ffb458" d="M6.565855222870249 -3.8551583626941364 L6.565855222870249 -4.2084578550799225 L4.999999999999999 -4.354331641285955 L4.999999999999999 -4.001032148900169 z"/>
<path fill="#ffb458" stroke="#ffb458" d="M8.024999999999999 -3.42747806153815 L8.024999999999999 -3.780777553923936 L6.565855222870249 -4.208457855079923 L6.565855222870249 -3.8551583626941377 z"/>
<path fill="#ffb458" stroke="#ffb458" d="M9.277996026178611 -2.747136951180872 L9.277996026178611 -3.100436443566659 L8.024999999999999 -3.7807775539239348 L8.024999999999999 -3.4274780615381486 z"/>
<path fill="#ffb458" stroke="#ffb458" d="M10.239453692895854 -1.8604991539763112 L10.239453692895854 -2.2137986463620978 L9.277996026178611 -3.100436443566659 L9.277996026178611 -2.7471369511808725 z"/>
<path fill="#ffb458" stroke="#ffb458" d="M10.843851249048862 -0.8279875705657177 L10.843851249048862 -1.1812870629515044 L10.239453692895854 -2.213798646362098 L10.239453692895854 -1.8604991539763114 z"/>
<path fill="#ffb458" stroke="#ffb458" d="M11.049999999999999 0.2800338409475457 L11.049999999999999 -0.07326565143824108 L10.843851249048862 -1.1812870629515044 L10.843851249048862 -0.8279875705657177 z"/>
<path fill="#ffb458" stroke="#ffb458" d="M10.843851249048862 1.388055252460809 L10.843851249048862 1.0347557600750221 L11.049999999999999 -0.07326565143824108 L11.049999999999999 0.28003384094754563 z"/>
<path fill="#ffb458" stroke="#ffb458" d="M10.239453692895854 2.420566835871403 L10.239453692895854 2.0672673434856166 L10.843851249048862 1.0347557600750221 L10.843851249048862 1.388055252460809 z"/>
<path fill="#ffb458" stroke="#ffb458" d="M9.277996026178613 3.307204633075964 L9.277996026178613 2.953905140690177 L10.239453692895854 2.0672673434856166 L10.239453692895854 2.4205668358714036 z"/>
<path fill="#ffb458" stroke="#ffb458" d="M8.025000000000002 3.987545743433241 L8.025000000000002 3.634246251047454 L9.277996026178613 2.9539051406901775 L9.277996026178613 3.307204633075964 z"/>
<path fill="#ffb458" stroke="#ffb458" d="M6.565855222870252 4.415226044589229 L6.565855222870252 4.061926552203442 L8.025 3.634246251047455 L8.025 3.987545743433242 z"/>
<path fill="#ffb458" stroke="#ffb458" d="M5.000000000000003 4.561099830795262 L5.000000000000003 4.207800338409475 L6.565855222870253 4.061926552203442 L6.565855222870253 4.415226044589229 z"/>
<path fill="#ffb458" stroke="#ffb458" d="M1.9750000000000034 3.9875457434332438 L1.9750000000000034 3.634246251047457 L3.4341447771297524 4.061926552203443 L3.4341447771297524 4.41522604458923 z"/>
<path fill="#ffb458" stroke="#ffb458" d="M0.7220039738213894 3.3072046330759672 L0.7220039738213896 2.9539051406901806 L1.9750000000000032 3.634246251047457 L1.975000000000003 3.9875457434332433 z"/>
<path fill="#ffb458" stroke="#ffb458" d="M-0.23945369289585294 2.420566835871406 L-0.2394536928958528 2.0672673434856192 L0.7220039738213894 2.95390514069018 L0.7220039738213895 3.307204633075967 z"/>
<path fill="#ffb458" stroke="#ffb458" d="M-0.8438512490488622 1.3880552524608112 L-0.8438512490488622 1.0347557600750246 L-0.2394536928958529 2.067267343485619 L-0.2394536928958529 2.420566835871406 z"/>
<path fill="#ffb458" stroke="#ffb458" d="M3.4341447771297524 4.41522604458923 L3.4341447771297524 4.061926552203443 L5.000000000000002 4.207800338409475 L5.000000000000002 4.561099830795262 z"/>
<path fill="#ffb458" stroke="#ffb458" d="M-1.0499999999999996 0.2800338409475473 L-1.0499999999999996 -0.07326565143823942 L-0.8438512490488622 1.0347557600750246 L-0.8438512490488623 1.3880552524608112 z"/>
<path fill="#ffb458" stroke="#ffb458" d="M-0.8438512490488641 -0.8279875705657148 L-0.8438512490488641 -1.1812870629515015 L-1.0499999999999998 -0.07326565143823943 L-1.0499999999999998 0.2800338409475473 z"/>
<path fill="#ffb458" stroke="#ffb458" d="M1.9749999999999919 -3.427478061538145 L1.974999999999992 -3.7807775539239317 L0.7220039738213829 -3.1004364435666556 L0.7220039738213828 -2.747136951180869 z"/>
<path fill="#ffb458" stroke="#ffb458" d="M-0.2394536928958566 -1.8604991539763083 L-0.23945369289585663 -2.213798646362095 L-0.8438512490488642 -1.1812870629515015 L-0.8438512490488642 -0.8279875705657148 z"/>
<path fill="#ffb458" stroke="#ffb458" d="M0.7220039738213831 -2.747136951180868 L0.722003973821383 -3.100436443566655 L-0.2394536928958568 -2.213798646362095 L-0.2394536928958567 -1.8604991539763083 z"/>
<path fill="#ffb458" stroke="#ffb458" d="M3.434144777129739 -3.855158362694134 L3.434144777129739 -4.208457855079921 L1.9749999999999923 -3.780777553923932 L1.9749999999999923 -3.4274780615381455 z"/>
<path fill="#ffb458" stroke="#ffb458" d="M4.999999999999999 -4.001032148900168 L4.999999999999999 -4.354331641285955 L3.434144777129739 -4.208457855079921 L3.434144777129739 -3.855158362694134 z"/>
<path fill="#ffb458" stroke="#ffb458" d="M6.56585522287025 -3.8551583626941355 L5 -4.001032148900168 L3.4341447771297395 -3.8551583626941337 L1.9749999999999925 -3.427478061538145 L0.7220039738213835 -2.7471369511808685 L-0.23945369289585638 -1.8604991539763083 L-0.8438512490488641 -0.8279875705657149 L-1.0499999999999998 0.28003384094754735 L-0.8438512490488623 1.3880552524608112 L-0.23945369289585283 2.420566835871406 L0.7220039738213897 3.3072046330759672 L1.9750000000000036 3.9875457434332433 L3.434144777129753 4.41522604458923 L5.000000000000003 4.561099830795262 L6.565855222870253 4.415226044589228 L8.025000000000002 3.987545743433241 L9.277996026178613 3.3072046330759637 L10.239453692895854 2.420566835871403 L10.843851249048862 1.3880552524608087 L11.049999999999999 0.28003384094754563 L10.843851249048862 -0.8279875705657177 L10.239453692895854 -1.8604991539763114 L9.277996026178611 -2.747136951180872 L8.024999999999999 -3.427478061538148 z"/>
<path fill="#ffb458" stroke="#ffb458" d="M6.56585522287025 -4.208457855079922 L8.024999999999999 -3.7807775539239348 L9.277996026178611 -3.100436443566659 L10.239453692895854 -2.2137986463620978 L10.843851249048862 -1.1812870629515044 L11.049999999999999 -0.07326565143824107 L10.843851249048862 1.034755760075022 L10.239453692895854 2.0672673434856166 L9.277996026178613 2.953905140690177 L8.025000000000002 3.6342462510474545 L6.565855222870253 4.061926552203442 L5.000000000000003 4.207800338409474 L3.434144777129753 4.061926552203443 L1.9750000000000036 3.6342462510474567 L0.7220039738213897 2.9539051406901806 L-0.23945369289585283 2.067267343485619 L-0.8438512490488623 1.0347557600750243 L-1.0499999999999998 -0.07326565143823943 L-0.8438512490488641 -1.1812870629515015 L-0.23945369289585638 -2.2137986463620947 L0.7220039738213835 -3.100436443566655 L1.9749999999999925 -3.7807775539239317 L3.4341447771297395 -4.20845785507992 L5 -4.354331641285955 z"/>
</svg>