<?xml version="1.0" encoding="UTF-8"?>
<!-- Generated by jsxcad -->
<!DOCTYPE svg PUBLIC "-//W3C//DTD SVG 1.1 Tiny//EN" "http://www.w3.org/Graphics/SVG/1.1/DTD/svg11-tiny.dtd">
<svg baseProfile="tiny" height="22.199298279551723mm" width="32.445369001834536mm" viewBox="-16.94536900183453 -11.87430227006351 32.445369001834536 22.199298279551723" version="1.1" stroke="black" stroke-width=".1" fill="none" xmlns="http://www.w3.org/2000/svg">
<path fill="#cfab7c" stroke="#cfab7c" d="M13.772542485937366 11.51477087611943 L13.772542485937366 11.79741047002806 L12.738678841830863 11.874302270063502 L12.738678841830863 11.591662676154874 z"/>
<path fill="#cfab7c" stroke="#cfab7c" d="M14.672826515897142 11.146967707337762 L14.672826515897142 11.42960730124639 L13.772542485937366 11.79741047002806 L13.772542485937366 11.514770876119432 z"/>
<path fill="#cfab7c" stroke="#cfab7c" d="M15.283863644106502 10.551849679079101 L15.283863644106502 10.83448927298773 L14.672826515897144 11.429607301246389 L14.672826515897144 11.146967707337758 z"/>
<path fill="#cfab7c" stroke="#cfab7c" d="M15.5 9.832318104906935 L15.5 10.114957698815564 L15.283863644106502 10.83448927298773 L15.283863644106502 10.551849679079101 z"/>
<path fill="#cfab7c" stroke="#cfab7c" d="M15.5 -8.56565143824027 L15.5 -8.28301184433164 L15.5 10.114957698815566 L15.5 9.832318104906937 z"/>
<path fill="#cfab7c" stroke="#cfab7c" d="M15.283863644106502 -9.285183012412432 L15.283863644106502 -9.002543418503803 L15.5 -8.28301184433164 L15.5 -8.56565143824027 z"/>
<path fill="#cfab7c" stroke="#cfab7c" d="M14.672826515897148 -9.880301040671089 L14.672826515897146 -9.59766144676246 L15.283863644106502 -9.002543418503803 L15.283863644106502 -9.285183012412432 z"/>
<path fill="#cfab7c" stroke="#cfab7c" d="M13.772542485937366 -10.248104209452762 L13.772542485937366 -9.965464615544136 L14.672826515897144 -9.597661446762464 L14.672826515897144 -9.880301040671092 z"/>
<path fill="#cfab7c" stroke="#cfab7c" d="M12.738678841830865 -10.324996009488206 L12.738678841830865 -10.042356415579578 L13.772542485937366 -9.965464615544134 L13.772542485937366 -10.248104209452764 z"/>
<path fill="#cfab7c" stroke="#cfab7c" d="M11.749999999999998 -10.09768115001122 L11.749999999999998 -9.81504155610259 L12.738678841830865 -10.042356415579578 L12.738678841830865 -10.324996009488205 z"/>
<path fill="#cfab7c" stroke="#cfab7c" d="M-15.749999999999998 -0.898696378437616 L-15.749999999999998 -0.6160567845289864 L11.749999999999998 -9.815041556102589 L11.749999999999998 -10.09768115001122 z"/>
<path fill="#cfab7c" stroke="#cfab7c" d="M-16.522542485937368 -0.406479663742438 L-16.522542485937368 -0.12384006983380827 L-15.75 -0.6160567845289854 L-15.75 -0.898696378437615 z"/>
<path fill="#cfab7c" stroke="#cfab7c" d="M-16.945369001834514 0.26553016455166234 L-16.945369001834514 0.5481697584602917 L-16.522542485937368 -0.12384006983380826 L-16.522542485937368 -0.4064796637424377 z"/>
<path fill="#cfab7c" stroke="#cfab7c" d="M-16.945369001834514 1.0011365021150034 L-16.945369001834514 1.2837760960236329 L-16.945369001834514 0.5481697584602917 L-16.945369001834514 0.26553016455166234 z"/>
<path fill="#cfab7c" stroke="#cfab7c" d="M-16.522542485937365 1.6731463304091037 L-16.522542485937368 1.955785924317733 L-16.94536900183451 1.2837760960236329 L-16.94536900183451 1.0011365021150034 z"/>
<path fill="#cfab7c" stroke="#cfab7c" d="M-15.75 2.165363045104281 L-15.750000000000002 2.4480026390129104 L-16.522542485937365 1.955785924317733 L-16.522542485937365 1.6731463304091034 z"/>
<path fill="#cfab7c" stroke="#cfab7c" d="M11.749999999999996 11.364347816677885 L11.749999999999996 11.646987410586513 L-15.749999999999998 2.4480026390129113 L-15.749999999999998 2.165363045104282 z"/>
<path fill="#cfab7c" stroke="#cfab7c" d="M12.738678841830863 11.591662676154872 L12.738678841830863 11.874302270063502 L11.749999999999996 11.646987410586513 L11.749999999999996 11.364347816677885 z"/>
<path fill="#cfab7c" stroke="#cfab7c" d="M13.772542485937368 11.514770876119428 L12.738678841830865 11.591662676154872 L11.749999999999998 11.364347816677883 L-15.750000000000002 2.165363045104281 L-16.522542485937368 1.6731463304091034 L-16.945369001834514 1.0011365021150034 L-16.945369001834514 0.2655301645516623 L-16.522542485937368 -0.4064796637424377 L-15.75 -0.8986963784376149 L11.75 -10.097681150011217 L12.738678841830867 -10.324996009488205 L13.772542485937368 -10.24810420945276 L14.672826515897146 -9.88030104067109 L15.283863644106502 -9.285183012412432 L15.5 -8.56565143824027 L15.5 9.832318104906935 L15.283863644106502 10.551849679079101 L14.672826515897144 11.146967707337758 z"/>
<path fill="#cfab7c" stroke="#cfab7c" d="M13.772542485937368 11.797410470028057 L14.672826515897144 11.429607301246387 L15.283863644106502 10.834489272987732 L15.5 10.114957698815566 L15.5 -8.28301184433164 L15.283863644106502 -9.002543418503803 L14.672826515897146 -9.59766144676246 L13.772542485937368 -9.965464615544132 L12.738678841830867 -10.042356415579574 L11.75 -9.815041556102587 L-15.75 -0.6160567845289855 L-16.522542485937368 -0.12384006983380828 L-16.945369001834514 0.5481697584602917 L-16.945369001834514 1.2837760960236329 L-16.522542485937368 1.955785924317733 L-15.750000000000002 2.4480026390129104 L11.749999999999998 11.646987410586512 L12.738678841830865 11.874302270063502 z"/>
<path fill="#cfab7c" stroke="#cfab7c" d="M6.56585522287025 -4.2084578550799225 L6.56585522287025 -3.925818261171295 L4.999999999999999 -4.0716920473773275 L4.999999999999999 -4.354331641285956 z"/>
<path fill="#cfab7c" stroke="#cfab7c" d="M8.024999999999997 -3.780777553923935 L8.024999999999997 -3.4981379600153066 L6.565855222870249 -3.925818261171294 L6.565855222870249 -4.2084578550799225 z"/>
<path fill="#cfab7c" stroke="#cfab7c" d="M9.277996026178611 -3.1004364435666596 L9.277996026178611 -2.81779684965803 L8.024999999999999 -3.4981379600153053 L8.024999999999999 -3.780777553923935 z"/>
<path fill="#cfab7c" stroke="#cfab7c" d="M10.239453692895854 -2.2137986463620978 L10.239453692895854 -1.9311590524534685 L9.277996026178611 -2.8177968496580292 L9.277996026178611 -3.1004364435666596 z"/>
<path fill="#cfab7c" stroke="#cfab7c" d="M10.843851249048862 -1.1812870629515042 L10.843851249048862 -0.8986474690428751 L10.239453692895854 -1.9311590524534685 L10.239453692895854 -2.2137986463620978 z"/>
<path fill="#cfab7c" stroke="#cfab7c" d="M10.918347502412603 -0.7808798646362094 L10.918347502412603 -0.7403774180116004 L10.918347502412603 -0.7396378369879013 L10.918347502412603 -0.6787420117445712 L10.918347502412603 -0.49824027072758 L10.843851249048862 -0.8986474690428751 L10.843851249048862 -1.1812870629515044 z"/>
<path fill="#cfab7c" stroke="#cfab7c" d="M10.918347502412603 0.6343485617597295 L10.843851249048862 1.0347557600750221 L10.843851249048862 1.3173953539836516 L10.918347502412603 0.9169881556683589 L10.918347502412603 0.8148503027767213 L10.918347502412603 0.7437246362277847 z"/>
<path fill="#cfab7c" stroke="#cfab7c" d="M10.239453692895854 2.0672673434856166 L10.239453692895854 2.349906937394246 L10.843851249048862 1.3173953539836516 L10.843851249048862 1.0347557600750221 z"/>
<path fill="#cfab7c" stroke="#cfab7c" d="M9.277996026178613 2.953905140690177 L9.277996026178613 3.2365447345988065 L10.239453692895854 2.3499069373942456 L10.239453692895854 2.0672673434856166 z"/>
<path fill="#cfab7c" stroke="#cfab7c" d="M8.025000000000002 3.6342462510474545 L8.025000000000002 3.916885844956084 L9.277996026178613 3.236544734598807 L9.277996026178613 2.953905140690177 z"/>
<path fill="#cfab7c" stroke="#cfab7c" d="M6.565855222870252 4.061926552203443 L6.565855222870252 4.344566146112072 L8.025 3.916885844956085 L8.025 3.6342462510474554 z"/>
<path fill="#cfab7c" stroke="#cfab7c" d="M5.000000000000002 4.207800338409475 L5.000000000000002 4.490439932318105 L6.565855222870253 4.344566146112071 L6.565855222870253 4.061926552203442 z"/>
<path fill="#cfab7c" stroke="#cfab7c" d="M1.9750000000000034 3.634246251047457 L1.9750000000000034 3.9168858449560866 L3.4341447771297524 4.344566146112072 L3.4341447771297524 4.061926552203443 z"/>
<path fill="#cfab7c" stroke="#cfab7c" d="M0.7220039738213894 2.95390514069018 L0.7220039738213895 3.23654473459881 L1.9750000000000032 3.916885844956086 L1.9750000000000034 3.634246251047457 z"/>
<path fill="#cfab7c" stroke="#cfab7c" d="M-0.23945369289585286 2.067267343485619 L-0.23945369289585286 2.3499069373942483 L0.7220039738213896 3.23654473459881 L0.7220039738213896 2.9539051406901806 z"/>
<path fill="#cfab7c" stroke="#cfab7c" d="M-0.8438512490488622 1.0347557600750246 L-0.8438512490488622 1.317395353983654 L-0.2394536928958528 2.3499069373942487 L-0.23945369289585283 2.0672673434856192 z"/>
<path fill="#cfab7c" stroke="#cfab7c" d="M3.4341447771297524 4.061926552203444 L3.4341447771297524 4.344566146112072 L5.000000000000002 4.490439932318105 L5.000000000000002 4.207800338409475 z"/>
<path fill="#cfab7c" stroke="#cfab7c" d="M-1.0499999999999996 -0.07326565143823943 L-1.0499999999999996 0.20937394247038996 L-0.8438512490488622 1.3173953539836538 L-0.8438512490488622 1.0347557600750246 z"/>
<path fill="#cfab7c" stroke="#cfab7c" d="M-0.8438512490488641 -1.1812870629515015 L-0.8438512490488641 -0.8986474690428722 L-1.0499999999999998 0.20937394247038998 L-1.0499999999999998 -0.07326565143823943 z"/>
<path fill="#cfab7c" stroke="#cfab7c" d="M1.9749999999999914 -3.7807775539239312 L1.9749999999999917 -3.4981379600153018 L0.7220039738213826 -2.8177968496580257 L0.7220039738213825 -3.100436443566655 z"/>
<path fill="#cfab7c" stroke="#cfab7c" d="M-0.23945369289585666 -2.2137986463620947 L-0.2394536928958566 -1.9311590524534652 L-0.8438512490488642 -0.8986474690428721 L-0.8438512490488642 -1.1812870629515015 z"/>
<path fill="#cfab7c" stroke="#cfab7c" d="M0.7220039738213831 -3.100436443566655 L0.722003973821383 -2.8177968496580257 L-0.23945369289585675 -1.9311590524534656 L-0.2394536928958566 -2.213798646362095 z"/>
<path fill="#cfab7c" stroke="#cfab7c" d="M3.4341447771297395 -4.208457855079921 L3.4341447771297395 -3.9258182611712917 L1.9749999999999923 -3.498137960015303 L1.9749999999999923 -3.7807775539239326 z"/>
<path fill="#cfab7c" stroke="#cfab7c" d="M5 -4.354331641285955 L5 -4.071692047377326 L3.4341447771297395 -3.9258182611712917 L3.4341447771297395 -4.208457855079921 z"/>
<path fill="#cfab7c" stroke="#cfab7c" d="M6.500000000000001 1.447698815566836 L6.749999999999999 1.447698815566836 L8 1.447698815566836 L9.277996026178613 1.447698815566836 L9.5 1.447698815566836 L9.9375 1.3647467781384444 L10.375 1.2817947407100532 L10.695272228311383 1.0551655598643326 L10.734139406042877 1.0276625924746365 L10.843851249048862 0.9500289330074567 L10.890544456622766 0.916988155668359 L10.918347502412603 0.916988155668359 L10.843851249048862 1.3173953539836516 L10.239453692895854 2.349906937394246 L9.277996026178613 3.236544734598807 L8.025000000000002 3.916885844956084 L6.565855222870253 4.34456614611207 L5.000000000000003 4.490439932318105 L3.434144777129753 4.344566146112072 L1.9750000000000036 3.9168858449560866 L0.7220039738213897 3.2365447345988096 L-0.23945369289585283 2.3499069373942487 L-0.8438512490488623 1.3173953539836538 L-1.0499999999999998 0.20937394247038998 L-0.8438512490488641 -0.8986474690428722 L-0.23945369289585638 -1.9311590524534656 L0.7220039738213835 -2.817796849658026 L1.9749999999999925 -3.498137960015302 L3.4341447771297395 -3.9258182611712913 L5 -4.071692047377326 L6.56585522287025 -3.9258182611712926 L8.024999999999999 -3.4981379600153057 L9.277996026178611 -2.8177968496580297 L10.239453692895854 -1.9311590524534685 L10.843851249048862 -0.8986474690428751 L10.918347502412603 -0.49824027072758 L10.890544456622766 -0.49824027072758 L10.843851249048862 -0.5312810480666784 L10.695272228311383 -0.6364176749235543 L10.375 -0.8630468557692745 L9.990593552154623 -0.935932108453582 L9.9375 -0.9459988931976658 L9.5 -1.0289509306260571 L9.277996026178611 -1.0289509306260571 L8 -1.0289509306260571 L6.5 -1.0289509306260571 L6.062499999999999 -0.9459988931976656 L5.624999999999999 -0.8630468557692743 L5.304727771688615 -0.6364176749235536 L4.984455543377232 -0.409788494077833 L4.867227771688616 -0.10020727580372114 L4.802831216351296 0.06985450876161348 L4.75 0.2093739424703907 L4.867227771688616 0.5189551607445022 L4.984455543377233 0.8285363790186137 L5.304727771688617 1.0551655598643337 L5.625000000000001 1.2817947407100538 L6.062500000000001 1.3647467781384448 z"/>
<path fill="#cfab7c" stroke="#cfab7c" d="M4.749999999999999 0.2093739424703907 L4.802831216351296 0.06985450876161348 L4.867227771688615 -0.10020727580372114 L4.984455543377231 -0.4097884940778331 L4.984455543377231 -0.1271489001692036 L4.749999999999999 0.4920135363790201 z"/>
<path fill="#cfab7c" stroke="#cfab7c" d="M10.918347502412603 0.8148503027767212 L10.918347502412603 0.9169881556683588 L10.890544456622766 0.9169881556683588 L10.890544456622766 1.1587786340072532 L10.890544456622766 1.1996277495769883 L15.233333333333333 1.1996277495769883 L15.045454545454543 1.100061528995539 L14.414333788031083 0.7655995641477771 L14.166666666666664 0.6343485617597292 L10.918347502412603 0.6343485617597292 L10.918347502412603 0.7437246362277845 z"/>
<path fill="#cfab7c" stroke="#cfab7c" d="M10.918347502412603 -0.7403774180116011 L10.918347502412603 -0.7808798646362095 L14.166666666666664 -0.7808798646362095 L14.335616438356162 -0.6913450617713186 L14.5694289611695 -0.5674362933362297 L15.233333333333333 -0.21560067681895068 L10.890544456622766 -0.21560067681895068 L10.890544456622766 -0.3259129240745236 L10.890544456622766 -0.4982402707275801 L10.918347502412603 -0.4982402707275801 L10.918347502412603 -0.6787420117445714 L10.918347502412603 -0.7396378369879015 z"/>
<path fill="#cfab7c" stroke="#cfab7c" d="M10.918347502412603 -0.7808798646362094 L10.843851249048862 -1.1812870629515044 L10.239453692895854 -2.2137986463620978 L9.277996026178611 -3.1004364435666587 L8.024999999999999 -3.7807775539239348 L6.56585522287025 -4.2084578550799225 L5 -4.354331641285955 L3.4341447771297395 -4.208457855079921 L1.9749999999999925 -3.7807775539239317 L0.7220039738213835 -3.100436443566655 L-0.23945369289585638 -2.2137986463620947 L-0.8438512490488641 -1.1812870629515015 L-1.0499999999999998 -0.07326565143823943 L-0.8438512490488623 1.0347557600750243 L-0.23945369289585283 2.0672673434856192 L0.7220039738213897 2.95390514069018 L1.9750000000000036 3.634246251047457 L3.434144777129753 4.061926552203443 L5.000000000000003 4.207800338409474 L6.565855222870253 4.061926552203441 L8.025000000000002 3.6342462510474545 L9.277996026178613 2.9539051406901775 L10.239453692895854 2.0672673434856166 L10.843851249048862 1.0347557600750221 L10.918347502412603 0.6343485617597294 L14.166666666666664 0.6343485617597294 L14.166666666666664 -0.5626988155668355 L14.166666666666664 -0.7808798646362094 z"/>
<path fill="#cfab7c" stroke="#cfab7c" d="M10.890544456622766 0.9169881556683589 L10.843851249048862 0.9500289330074568 L10.734139406042877 1.0276625924746365 L10.695272228311383 1.0551655598643328 L10.375 1.281794740710053 L10.375 1.5644343346186826 L10.890544456622766 1.1996277495769883 L10.890544456622766 1.1587786340072534 z"/>
<path fill="#cfab7c" stroke="#cfab7c" d="M5.624999999999998 -0.5804072618606448 L4.984455543377231 -0.1271489001692036 L4.984455543377231 -0.4097884940778331 L5.304727771688615 -0.6364176749235536 L5.624999999999998 -0.8630468557692739 z"/>
<path fill="#cfab7c" stroke="#cfab7c" d="M6.062499999999999 -0.945998893197666 L6.499999999999999 -1.0289509306260571 L6.499999999999999 -0.7463113367174277 L5.624999999999998 -0.5804072618606448 L5.624999999999998 -0.8630468557692744 z"/>
<path fill="#cfab7c" stroke="#cfab7c" d="M9.5 -0.7463113367174283 L6.5 -0.7463113367174283 L6.5 -1.0289509306260576 L8 -1.0289509306260576 L9.277996026178611 -1.0289509306260576 L9.5 -1.0289509306260576 z"/>
<path fill="#cfab7c" stroke="#cfab7c" d="M9.937499999999998 -0.9459988931976664 L9.990593552154621 -0.9359321084535829 L10.374999999999998 -0.8630468557692752 L10.374999999999998 -0.5804072618606458 L9.499999999999998 -0.7463113367174283 L9.499999999999998 -1.0289509306260576 z"/>
<path fill="#cfab7c" stroke="#cfab7c" d="M10.890544456622766 -0.4982402707275801 L10.890544456622766 -0.32591292407452316 L10.890544456622766 -0.2156006768189507 L10.375 -0.5804072618606448 L10.375 -0.8630468557692746 L10.695272228311383 -0.6364176749235542 L10.843851249048862 -0.5312810480666783 z"/>
<path fill="#cfab7c" stroke="#cfab7c" d="M9.5 1.7303384094754655 L10.374999999999998 1.5644343346186829 L10.374999999999998 1.2817947407100534 L9.937499999999998 1.3647467781384448 L9.5 1.4476988155668362 z"/>
<path fill="#cfab7c" stroke="#cfab7c" d="M8 1.4476988155668358 L6.749999999999999 1.4476988155668358 L6.500000000000001 1.4476988155668358 L6.500000000000001 1.7303384094754655 L9.5 1.7303384094754655 L9.5 1.4476988155668358 L9.277996026178613 1.4476988155668358 z"/>
<path fill="#cfab7c" stroke="#cfab7c" d="M5.625 1.2817947407100534 L5.625 1.5644343346186829 L6.5 1.7303384094754652 L6.5 1.4476988155668358 L6.0625 1.3647467781384446 z"/>
<path fill="#cfab7c" stroke="#cfab7c" d="M5.304727771688617 1.0551655598643337 L4.984455543377233 0.8285363790186137 L4.984455543377233 1.111175972927243 L5.625000000000001 1.564434334618683 L5.625000000000001 1.2817947407100536 z"/>
<path fill="#cfab7c" stroke="#cfab7c" d="M4.75 0.2093739424703907 L4.75 0.4920135363790201 L4.984455543377233 1.111175972927243 L4.984455543377233 0.8285363790186137 L4.867227771688616 0.5189551607445022 z"/>
<path fill="#cfab7c" stroke="#cfab7c" d="M10.890544456622766 -0.21560067681895057 L15.233333333333333 -0.21560067681895057 L15.233333333333333 0.04031979695431503 L15.233333333333333 1.199627749576988 L10.890544456622766 1.199627749576988 L10.375 1.5644343346186826 L9.5 1.7303384094754655 L6.500000000000001 1.7303384094754655 L5.625000000000001 1.564434334618683 L4.984455543377233 1.111175972927243 L4.75 0.4920135363790201 L4.984455543377232 -0.1271489001692036 L5.624999999999999 -0.5804072618606448 L6.5 -0.7463113367174276 L9.5 -0.7463113367174276 L10.375 -0.5804072618606451 z"/>
<path fill="#cfab7c" stroke="#cfab7c" d="M13.772542485937366 11.514770876119428 L12.956949566619127 9.098476483762974 L13.13330731807572 9.085360184493721 z"/>
<path fill="#cfab7c" stroke="#cfab7c" d="M13.301762583585313 9.016539258663064 L14.672826515897142 11.146967707337758 L13.13330731807572 9.08536018449372 z"/>
<path fill="#cfab7c" stroke="#cfab7c" d="M14.672826515897142 11.146967707337758 L13.772542485937366 11.514770876119428 L13.13330731807572 9.08536018449372 z"/>
<path fill="#cfab7c" stroke="#cfab7c" d="M14.67282651589714 11.14696770733776 L13.301762583585313 9.016539258663064 L13.41541385806584 8.905848894272049 z"/>
<path fill="#cfab7c" stroke="#cfab7c" d="M-16.522542485937365 -0.4064796637424376 L-3.1238967793816053 -1.1027416523357132 L-3.3790680644226057 -0.7899976601168448 z"/>
<path fill="#cfab7c" stroke="#cfab7c" d="M-16.94536900183451 0.2655301645516626 L-16.522542485937365 -0.40647966374243777 L-3.3790680644226057 -0.7899976601168449 z"/>
<path fill="#cfab7c" stroke="#cfab7c" d="M15.499999999999998 9.832318104906935 L15.2838636441065 10.5518496790791 L13.41541385806584 8.905848894272049 z"/>
<path fill="#cfab7c" stroke="#cfab7c" d="M-3.123896779381604 0.24961136468766135 L-15.75 2.165363045104281 L-16.522542485937365 1.6731463304091034 z"/>
<path fill="#cfab7c" stroke="#cfab7c" d="M-3.379068064422605 -0.0631326275312085 L-3.1238967793816044 0.24961136468766137 L-16.522542485937365 1.6731463304091037 z"/>
<path fill="#cfab7c" stroke="#cfab7c" d="M15.2838636441065 10.551849679079101 L14.672826515897142 11.146967707337758 L13.415413858065838 8.905848894272049 z"/>
<path fill="#cfab7c" stroke="#cfab7c" d="M13.499999999999995 8.624256287570452 L15.499999999999996 9.832318104906937 L13.41541385806584 8.905848894272049 z"/>
<path fill="#cfab7c" stroke="#cfab7c" d="M-15.749999999999998 -0.898696378437615 L-2.539630827046128 -1.449654717863182 L-3.1238967793816053 -1.1027416523357132 z"/>
<path fill="#cfab7c" stroke="#cfab7c" d="M13.301762583585313 -9.869669546311119 L13.772542485937366 -10.248104209452762 L14.672826515897144 -9.88030104067109 z"/>
<path fill="#cfab7c" stroke="#cfab7c" d="M13.772542485937365 11.51477087611943 L12.738678841830863 11.591662676154872 L12.956949566619127 9.098476483762973 z"/>
<path fill="#cfab7c" stroke="#cfab7c" d="M15.499999999999996 -8.565651438240272 L13.499999999999995 -9.477386575218507 L13.415413858065838 -9.758979181920104 z"/>
<path fill="#cfab7c" stroke="#cfab7c" d="M-3.4696300643004454 -0.42656514382402766 L-16.94536900183451 0.26553016455166245 L-3.379068064422605 -0.7899976601168445 z"/>
<path fill="#cfab7c" stroke="#cfab7c" d="M15.283863644106498 -9.285183012412434 L15.499999999999998 -8.56565143824027 L13.415413858065838 -9.758979181920104 z"/>
<path fill="#cfab7c" stroke="#cfab7c" d="M-16.94536900183451 1.0011365021150034 L-3.4696300643004454 -0.4265651438240277 L-3.3790680644226048 -0.06313262753120855 z"/>
<path fill="#cfab7c" stroke="#cfab7c" d="M-16.94536900183451 0.26553016455166234 L-3.4696300643004454 -0.42656514382402766 L-16.94536900183451 1.0011365021150034 z"/>
<path fill="#cfab7c" stroke="#cfab7c" d="M-2.539630827046152 0.5965244302151154 L-15.75 2.165363045104281 L-3.123896779381604 0.24961136468766135 z"/>
<path fill="#cfab7c" stroke="#cfab7c" d="M-15.749999999999996 -0.8986963784376147 L12.70287788210601 -9.89319116988442 L-2.539630827046128 -1.449654717863182 z"/>
<path fill="#cfab7c" stroke="#cfab7c" d="M12.956949566619127 -9.951606771411027 L13.772542485937366 -10.248104209452762 L13.13330731807572 -9.938490472141774 z"/>
<path fill="#cfab7c" stroke="#cfab7c" d="M13.301762583585313 -9.869669546311119 L15.283863644106498 -9.285183012412434 L13.415413858065838 -9.758979181920104 z"/>
<path fill="#cfab7c" stroke="#cfab7c" d="M12.702877882106009 -9.89319116988442 L-15.749999999999998 -0.8986963784376153 L11.749999999999998 -10.097681150011217 z"/>
<path fill="#cfab7c" stroke="#cfab7c" d="M-16.522542485937365 -0.40647966374243755 L-15.749999999999998 -0.8986963784376144 L-3.123896779381605 -1.1027416523357136 z"/>
<path fill="#cfab7c" stroke="#cfab7c" d="M-2.5396308270461283 -1.449654717863182 L12.702877882106012 -9.89319116988442 L12.956949566619128 -9.951606771411026 L13.133307318075722 -9.938490472141774 L13.301762583585315 -9.869669546311119 L13.41541385806584 -9.758979181920102 L13.499999999999996 -9.477386575218507 L13.499999999999996 8.624256287570452 L13.415413858065842 8.905848894272049 L13.301762583585315 9.016539258663066 L13.133307318075722 9.08536018449372 L12.956949566619128 9.098476483762973 L12.702877882106014 9.040060882236364 L-2.5396308270461523 0.5965244302151154 L-3.123896779381605 0.24961136468766137 L-3.3790680644226057 -0.06313262753120856 L-3.4696300643004463 -0.4265651438240277 L-3.379068064422606 -0.7899976601168449 L-3.1238967793816057 -1.1027416523357134 z"/>
<path fill="#cfab7c" stroke="#cfab7c" d="M12.702877882106012 9.040060882236366 L-15.749999999999998 2.165363045104281 L-2.539630827046152 0.5965244302151154 z"/>
<path fill="#cfab7c" stroke="#cfab7c" d="M12.702877882106009 -9.89319116988442 L12.738678841830865 -10.324996009488205 L12.956949566619127 -9.951606771411027 z"/>
<path fill="#cfab7c" stroke="#cfab7c" d="M12.70287788210601 -9.89319116988442 L11.749999999999996 -10.097681150011217 L12.738678841830863 -10.324996009488205 z"/>
<path fill="#cfab7c" stroke="#cfab7c" d="M15.2838636441065 -9.285183012412434 L13.301762583585312 -9.869669546311119 L14.672826515897144 -9.88030104067109 z"/>
<path fill="#cfab7c" stroke="#cfab7c" d="M12.738678841830865 -10.324996009488205 L13.772542485937366 -10.248104209452762 L12.956949566619127 -9.951606771411027 z"/>
<path fill="#cfab7c" stroke="#cfab7c" d="M13.499999999999996 8.624256287570452 L13.499999999999995 -9.477386575218507 L15.5 -8.565651438240268 L15.499999999999998 9.832318104906935 M15.233333333333333 -0.21560067681895057 L14.5694289611695 -0.5674362933362295 L14.33561643835616 -0.6913450617713183 L14.166666666666663 -0.7808798646362094 L14.166666666666663 -0.5626988155668355 L14.166666666666663 0.6343485617597294 L14.414333788031083 0.7655995641477771 L15.045454545454543 1.1000615289955393 L15.23333333333333 1.199627749576988 L15.233333333333333 0.040319796954315035 z"/>
<path fill="#cfab7c" stroke="#cfab7c" d="M12.738678841830863 11.591662676154872 L12.702877882106014 9.040060882236364 L12.956949566619125 9.098476483762973 z"/>
<path fill="#cfab7c" stroke="#cfab7c" d="M11.749999999999996 11.364347816677883 L-15.75 2.1653630451042813 L12.702877882106012 9.040060882236366 z"/>
<path fill="#cfab7c" stroke="#cfab7c" d="M12.738678841830863 11.591662676154872 L11.749999999999996 11.364347816677883 L12.70287788210601 9.040060882236366 z"/>
<path fill="#cfab7c" stroke="#cfab7c" d="M13.772542485937366 -10.248104209452762 L13.301762583585313 -9.869669546311119 L13.13330731807572 -9.938490472141774 z"/>
<path fill="#cfab7c" stroke="#cfab7c" d="M-16.94536900183451 1.0011365021150034 L-3.379068064422605 -0.06313262753120853 L-16.522542485937365 1.6731463304091037 z"/>
<path fill="#cfab7c" stroke="#cfab7c" d="M-16.522542485937368 1.6731463304091037 L-15.750000000000002 2.165363045104281 L11.749999999999998 11.364347816677883 L12.738678841830865 11.59166267615487 L13.772542485937368 11.514770876119428 L14.672826515897144 11.146967707337758 L15.283863644106502 10.551849679079101 L15.5 9.832318104906935 L15.5 -8.565651438240268 L15.283863644106502 -9.285183012412434 L14.672826515897146 -9.880301040671089 L13.772542485937368 -10.24810420945276 L12.738678841830867 -10.324996009488205 L11.75 -10.097681150011217 L-15.75 -0.898696378437615 L-16.522542485937368 -0.4064796637424377 L-16.945369001834514 0.2655301645516623 L-16.945369001834514 1.0011365021150034 z"/>
<path fill="#ffb458" stroke="#ffb458" d="M6.56585522287025 -3.925818261171295 L6.56585522287025 -4.2084578550799225 L4.999999999999999 -4.354331641285956 L4.999999999999999 -4.0716920473773275 z"/>
<path fill="#ffb458" stroke="#ffb458" d="M8.024999999999997 -3.4981379600153066 L8.024999999999997 -3.780777553923935 L6.565855222870249 -4.2084578550799225 L6.565855222870249 -3.925818261171294 z"/>
<path fill="#ffb458" stroke="#ffb458" d="M9.277996026178611 -2.81779684965803 L9.277996026178611 -3.1004364435666596 L8.024999999999999 -3.780777553923935 L8.024999999999999 -3.4981379600153053 z"/>
<path fill="#ffb458" stroke="#ffb458" d="M10.239453692895854 -1.9311590524534685 L10.239453692895854 -2.2137986463620978 L9.277996026178611 -3.1004364435666596 L9.277996026178611 -2.8177968496580292 z"/>
<path fill="#ffb458" stroke="#ffb458" d="M10.843851249048862 -0.8986474690428751 L10.843851249048862 -1.1812870629515042 L10.239453692895854 -2.2137986463620978 L10.239453692895854 -1.9311590524534685 z"/>
<path fill="#ffb458" stroke="#ffb458" d="M11.049999999999999 0.20937394247038835 L11.049999999999999 -0.07326565143824107 L10.843851249048862 -1.1812870629515044 L10.843851249048862 -0.8986474690428751 z"/>
<path fill="#ffb458" stroke="#ffb458" d="M10.843851249048862 1.3173953539836514 L10.843851249048862 1.0347557600750221 L11.049999999999999 -0.07326565143824107 L11.049999999999999 0.20937394247038835 z"/>
<path fill="#ffb458" stroke="#ffb458" d="M10.239453692895854 2.349906937394246 L10.239453692895854 2.0672673434856166 L10.843851249048862 1.0347557600750221 L10.843851249048862 1.3173953539836516 z"/>
<path fill="#ffb458" stroke="#ffb458" d="M9.277996026178613 3.2365447345988065 L9.277996026178613 2.953905140690177 L10.239453692895854 2.0672673434856166 L10.239453692895854 2.3499069373942456 z"/>
<path fill="#ffb458" stroke="#ffb458" d="M8.025000000000002 3.916885844956084 L8.025000000000002 3.6342462510474545 L9.277996026178613 2.953905140690177 L9.277996026178613 3.236544734598807 z"/>
<path fill="#ffb458" stroke="#ffb458" d="M6.565855222870252 4.344566146112072 L6.565855222870252 4.061926552203443 L8.025 3.6342462510474554 L8.025 3.916885844956085 z"/>
<path fill="#ffb458" stroke="#ffb458" d="M5.000000000000002 4.490439932318105 L5.000000000000002 4.207800338409475 L6.565855222870253 4.061926552203442 L6.565855222870253 4.344566146112071 z"/>
<path fill="#ffb458" stroke="#ffb458" d="M1.9750000000000034 3.9168858449560866 L1.9750000000000034 3.634246251047457 L3.4341447771297524 4.061926552203443 L3.4341447771297524 4.344566146112072 z"/>
<path fill="#ffb458" stroke="#ffb458" d="M0.7220039738213895 3.23654473459881 L0.7220039738213894 2.95390514069018 L1.9750000000000034 3.634246251047457 L1.9750000000000032 3.916885844956086 z"/>
<path fill="#ffb458" stroke="#ffb458" d="M-0.23945369289585286 2.3499069373942483 L-0.23945369289585286 2.067267343485619 L0.7220039738213896 2.9539051406901806 L0.7220039738213896 3.23654473459881 z"/>
<path fill="#ffb458" stroke="#ffb458" d="M-0.8438512490488622 1.317395353983654 L-0.8438512490488622 1.0347557600750246 L-0.23945369289585283 2.0672673434856192 L-0.2394536928958528 2.3499069373942487 z"/>
<path fill="#ffb458" stroke="#ffb458" d="M3.4341447771297524 4.344566146112072 L3.4341447771297524 4.061926552203444 L5.000000000000002 4.207800338409475 L5.000000000000002 4.490439932318105 z"/>
<path fill="#ffb458" stroke="#ffb458" d="M-1.0499999999999996 0.20937394247038996 L-1.0499999999999996 -0.07326565143823943 L-0.8438512490488622 1.0347557600750246 L-0.8438512490488622 1.3173953539836538 z"/>
<path fill="#ffb458" stroke="#ffb458" d="M-0.8438512490488641 -0.8986474690428722 L-0.8438512490488641 -1.1812870629515015 L-1.0499999999999998 -0.07326565143823943 L-1.0499999999999998 0.20937394247038998 z"/>
<path fill="#ffb458" stroke="#ffb458" d="M1.9749999999999917 -3.4981379600153018 L1.9749999999999914 -3.7807775539239312 L0.7220039738213825 -3.100436443566655 L0.7220039738213826 -2.8177968496580257 z"/>
<path fill="#ffb458" stroke="#ffb458" d="M-0.2394536928958566 -1.9311590524534652 L-0.23945369289585666 -2.2137986463620947 L-0.8438512490488642 -1.1812870629515015 L-0.8438512490488642 -0.8986474690428721 z"/>
<path fill="#ffb458" stroke="#ffb458" d="M0.722003973821383 -2.8177968496580257 L0.7220039738213831 -3.100436443566655 L-0.2394536928958566 -2.213798646362095 L-0.23945369289585675 -1.9311590524534656 z"/>
<path fill="#ffb458" stroke="#ffb458" d="M3.4341447771297395 -3.9258182611712917 L3.4341447771297395 -4.208457855079921 L1.9749999999999923 -3.7807775539239326 L1.9749999999999923 -3.498137960015303 z"/>
<path fill="#ffb458" stroke="#ffb458" d="M5 -4.071692047377326 L5 -4.354331641285955 L3.4341447771297395 -4.208457855079921 L3.4341447771297395 -3.9258182611712917 z"/>
<path fill="#ffb458" stroke="#ffb458" d="M6.56585522287025 -3.925818261171293 L5 -4.071692047377325 L3.4341447771297395 -3.9258182611712904 L1.9749999999999925 -3.498137960015302 L0.7220039738213835 -2.817796849658026 L-0.23945369289585638 -1.9311590524534656 L-0.8438512490488641 -0.8986474690428722 L-1.0499999999999998 0.20937394247038998 L-0.8438512490488623 1.317395353983654 L-0.23945369289585283 2.3499069373942483 L0.7220039738213897 3.23654473459881 L1.9750000000000036 3.916885844956086 L3.434144777129753 4.344566146112072 L5.000000000000003 4.490439932318105 L6.565855222870253 4.34456614611207 L8.025000000000002 3.9168858449560835 L9.277996026178613 3.236544734598807 L10.239453692895854 2.349906937394246 L10.843851249048862 1.3173953539836516 L11.049999999999999 0.20937394247038835 L10.843851249048862 -0.8986474690428751 L10.239453692895854 -1.9311590524534685 L9.277996026178611 -2.8177968496580297 L8.024999999999999 -3.4981379600153057 z"/>
<path fill="#ffb458" stroke="#ffb458" d="M6.56585522287025 -4.208457855079922 L8.024999999999999 -3.7807775539239348 L9.277996026178611 -3.100436443566659 L10.239453692895854 -2.2137986463620978 L10.843851249048862 -1.1812870629515044 L11.049999999999999 -0.07326565143824107 L10.843851249048862 1.034755760075022 L10.239453692895854 2.0672673434856166 L9.277996026178613 2.953905140690177 L8.025000000000002 3.6342462510474545 L6.565855222870253 4.061926552203442 L5.000000000000003 4.207800338409474 L3.434144777129753 4.061926552203443 L1.9750000000000036 3.6342462510474567 L0.7220039738213897 2.9539051406901806 L-0.23945369289585283 2.067267343485619 L-0.8438512490488623 1.0347557600750243 L-1.0499999999999998 -0.07326565143823943 L-0.8438512490488641 -1.1812870629515015 L-0.23945369289585638 -2.2137986463620947 L0.7220039738213835 -3.100436443566655 L1.9749999999999925 -3.7807775539239317 L3.4341447771297395 -4.20845785507992 L5 -4.354331641285955 z"/>
</svg>