<?xml version="1.0" encoding="UTF-8"?>
<!-- Generated by jsxcad -->
<!DOCTYPE svg PUBLIC "-//W3C//DTD SVG 1.1 Tiny//EN" "http://www.w3.org/Graphics/SVG/1.1/DTD/svg11-tiny.dtd">
<svg baseProfile="tiny" height="24.45854184923053mm" width="31.50000000000002mm" viewBox="-19.500000000000014 -13.003924054902914 31.50000000000002 24.45854184923053" version="1.1" stroke="black" stroke-width=".1" fill="none" xmlns="http://www.w3.org/2000/svg">
<path fill="#cfab7c" stroke="#cfab7c" d="M9.760821309655935 12.578740861347889 L9.760821309655935 12.86138045525652 L9.010950261554017 13.003924054902905 L9.010950261554017 12.721284460994276 z"/>
<path fill="#cfab7c" stroke="#cfab7c" d="M10.309507420266563 12.189984777055953 L10.309507420266561 12.472624370964583 L9.760821309655936 12.861380455256517 L9.760821309655936 12.578740861347889 z"/>
<path fill="#cfab7c" stroke="#cfab7c" d="M10.509988593149604 11.659183086957178 L10.509988593149604 11.941822680865807 L10.309507420266561 12.472624370964581 L10.309507420266561 12.189984777055955 z"/>
<path fill="#cfab7c" stroke="#cfab7c" d="M11.179439341783521 8.566601425891491 L11.179439341783521 8.849241019800122 L10.509988593149604 11.941822680865808 L10.509988593149604 11.659183086957178 z"/>
<path fill="#cfab7c" stroke="#cfab7c" d="M11.794585842093497 4.610577538953675 L11.794585842093497 4.893217132862303 L11.179439341783521 8.84924101980012 L11.179439341783521 8.566601425891491 z"/>
<path fill="#cfab7c" stroke="#cfab7c" d="M11.999999999999998 0.6333333333333302 L11.999999999999998 0.9159729272419597 L11.794585842093497 4.893217132862303 L11.794585842093497 4.610577538953675 z"/>
<path fill="#cfab7c" stroke="#cfab7c" d="M11.794585842093483 -3.3439108722872177 L11.794585842093483 -3.0612712783785887 L12 0.9159729272419597 L12 0.6333333333333301 z"/>
<path fill="#cfab7c" stroke="#cfab7c" d="M11.179439341783493 -7.29993475922501 L11.179439341783493 -7.017295165316381 L11.794585842093483 -3.0612712783785887 L11.794585842093483 -3.343910872287218 z"/>
<path fill="#cfab7c" stroke="#cfab7c" d="M10.509988593149604 -10.39251642029051 L10.509988593149604 -10.10987682638188 L11.179439341783493 -7.01729516531638 L11.179439341783493 -7.2999347592250095 z"/>
<path fill="#cfab7c" stroke="#cfab7c" d="M10.309507420266561 -10.923318110389285 L10.309507420266561 -10.640678516480657 L10.509988593149604 -10.10987682638188 L10.509988593149604 -10.39251642029051 z"/>
<path fill="#cfab7c" stroke="#cfab7c" d="M9.760821309655938 -11.312074194681221 L9.76082130965594 -11.02943460077259 L10.309507420266561 -10.640678516480655 L10.309507420266561 -10.923318110389287 z"/>
<path fill="#cfab7c" stroke="#cfab7c" d="M9.010950261554019 -11.454617794327609 L9.010950261554019 -11.17197820041898 L9.760821309655936 -11.029434600772595 L9.760821309655936 -11.312074194681223 z"/>
<path fill="#cfab7c" stroke="#cfab7c" d="M8.260821617727197 -11.312754466916969 L8.260821617727197 -11.03011487300834 L9.010950261554019 -11.17197820041898 L9.010950261554019 -11.454617794327609 z"/>
<path fill="#cfab7c" stroke="#cfab7c" d="M4.1097436082350844 -10.1860600577117 L4.1097436082350844 -9.90342046380307 L8.260821617727197 -11.030114873008339 L8.260821617727197 -11.312754466916969 z"/>
<path fill="#cfab7c" stroke="#cfab7c" d="M-1.0380239913987734 -8.582682282250367 L-1.0380239913987734 -8.30004268834174 L4.1097436082350844 -9.903420463803071 L4.1097436082350844 -10.186060057711698 z"/>
<path fill="#cfab7c" stroke="#cfab7c" d="M-6.006659267480579 -6.717686683906393 L-6.006659267480579 -6.435047089997764 L-1.0380239913987734 -8.300042688341739 L-1.0380239913987734 -8.582682282250369 z"/>
<path fill="#cfab7c" stroke="#cfab7c" d="M-10.769652401019158 -4.601023821129781 L-10.769652401019158 -4.31838422722115 L-6.006659267480579 -6.435047089997763 L-6.006659267480579 -6.717686683906394 z"/>
<path fill="#cfab7c" stroke="#cfab7c" d="M-15.301590762828788 -2.243987006116186 L-15.301590762828788 -1.9613474122075567 L-10.76965240101916 -4.3183842272211495 L-10.76965240101916 -4.60102382112978 z"/>
<path fill="#cfab7c" stroke="#cfab7c" d="M-18.75 -0.2858844937292355 L-18.75 -0.0032448998206063002 L-15.301590762828788 -1.9613474122075563 L-15.301590762828788 -2.243987006116185 z"/>
<path fill="#cfab7c" stroke="#cfab7c" d="M-19.299038105676658 0.10262267343485622 L-19.299038105676658 0.3852622673434856 L-18.75 -0.0032448998206060647 L-18.75 -0.2858844937292354 z"/>
<path fill="#cfab7c" stroke="#cfab7c" d="M-19.5 0.6333333333333331 L-19.5 0.9159729272419623 L-19.299038105676658 0.38526226734348556 L-19.299038105676658 0.10262267343485615 z"/>
<path fill="#cfab7c" stroke="#cfab7c" d="M-19.299038105676654 1.1640439932318098 L-19.299038105676654 1.4466835871404393 L-19.499999999999996 0.9159729272419624 L-19.499999999999996 0.633333333333333 z"/>
<path fill="#cfab7c" stroke="#cfab7c" d="M-18.749999999999996 1.552551160395902 L-18.75 1.8351907543045316 L-19.299038105676654 1.4466835871404393 L-19.299038105676654 1.16404399323181 z"/>
<path fill="#cfab7c" stroke="#cfab7c" d="M-15.301590762828575 3.510653672782963 L-15.301590762828575 3.7932932666915926 L-18.749999999999996 1.8351907543045314 L-18.75 1.5525511603959021 z"/>
<path fill="#cfab7c" stroke="#cfab7c" d="M-10.76965240101891 5.867690487796561 L-10.76965240101891 6.15033008170519 L-15.301590762828573 3.793293266691593 L-15.301590762828575 3.510653672782963 z"/>
<path fill="#cfab7c" stroke="#cfab7c" d="M-6.00665926748057 7.984353350573063 L-6.00665926748057 8.266992944481691 L-10.769652401018908 6.1503300817051905 L-10.769652401018908 5.867690487796562 z"/>
<path fill="#cfab7c" stroke="#cfab7c" d="M-1.0380239913985088 9.849348948917132 L-1.0380239913985088 10.131988542825761 L-6.00665926748057 8.266992944481691 L-6.00665926748057 7.984353350573063 z"/>
<path fill="#cfab7c" stroke="#cfab7c" d="M4.109743608235326 11.452726724378442 L4.109743608235326 11.73536631828707 L-1.0380239913985088 10.131988542825761 L-1.0380239913985088 9.849348948917132 z"/>
<path fill="#cfab7c" stroke="#cfab7c" d="M8.260821617727197 12.579421133583637 L8.260821617727197 12.862060727492267 L4.109743608235326 11.73536631828707 L4.109743608235326 11.452726724378442 z"/>
<path fill="#cfab7c" stroke="#cfab7c" d="M9.010950261554017 12.721284460994276 L9.010950261554017 13.003924054902905 L8.260821617727197 12.862060727492265 L8.260821617727197 12.579421133583637 z"/>
<path fill="#cfab7c" stroke="#cfab7c" d="M9.760821309655936 12.578740861347889 L9.010950261554019 12.721284460994275 L8.2608216177272 12.579421133583635 L4.109743608235327 11.45272672437844 L-1.038023991398509 9.84934894891713 L-6.006659267480571 7.984353350573061 L-10.76965240101891 5.86769048779656 L-15.301590762828575 3.510653672782963 L-18.75 1.5525511603959021 L-19.299038105676658 1.1640439932318098 L-19.5 0.633333333333333 L-19.299038105676658 0.10262267343485615 L-18.75 -0.28588449372923547 L-15.301590762828788 -2.2439870061161855 L-10.76965240101916 -4.601023821129778 L-6.00665926748058 -6.717686683906392 L-1.0380239913987737 -8.582682282250365 L4.109743608235085 -10.186060057711696 L8.2608216177272 -11.312754466916967 L9.01095026155402 -11.454617794327607 L9.760821309655938 -11.312074194681221 L10.309507420266561 -10.923318110389287 L10.509988593149604 -10.39251642029051 L11.179439341783493 -7.29993475922501 L11.794585842093483 -3.343910872287218 L12 0.6333333333333302 L11.794585842093497 4.610577538953675 L11.179439341783521 8.566601425891491 L10.509988593149604 11.659183086957178 L10.309507420266561 12.189984777055953 z"/>
<path fill="#cfab7c" stroke="#cfab7c" d="M9.760821309655936 12.861380455256517 L10.309507420266561 12.472624370964583 L10.509988593149604 11.941822680865808 L11.179439341783521 8.84924101980012 L11.794585842093497 4.893217132862304 L12 0.9159729272419597 L11.794585842093483 -3.0612712783785887 L11.179439341783493 -7.017295165316381 L10.509988593149604 -10.109876826381882 L10.309507420266561 -10.640678516480657 L9.760821309655938 -11.029434600772593 L9.01095026155402 -11.171978200418977 L8.2608216177272 -11.030114873008339 L4.109743608235085 -9.903420463803068 L-1.0380239913987737 -8.300042688341737 L-6.00665926748058 -6.435047089997762 L-10.76965240101916 -4.3183842272211495 L-15.301590762828788 -1.9613474122075563 L-18.75 -0.003244899820606073 L-19.299038105676658 0.38526226734348556 L-19.5 0.9159729272419626 L-19.299038105676658 1.4466835871404393 L-18.75 1.8351907543045316 L-15.301590762828575 3.7932932666915926 L-10.76965240101891 6.15033008170519 L-6.006659267480571 8.266992944481691 L-1.038023991398509 10.13198854282576 L4.109743608235327 11.73536631828707 L8.2608216177272 12.862060727492263 L9.010950261554019 13.003924054902905 z"/>
<path fill="#cfab7c" stroke="#cfab7c" d="M4.56585522287025 -4.208457855079923 L4.56585522287025 -3.855158362694136 L3 -4.001032148900168 L3 -4.354331641285956 z"/>
<path fill="#cfab7c" stroke="#cfab7c" d="M6.024999999999998 -3.7807775539239366 L6.024999999999998 -3.4274780615381504 L4.565855222870249 -3.8551583626941377 L4.565855222870249 -4.208457855079923 z"/>
<path fill="#cfab7c" stroke="#cfab7c" d="M7.277996026178611 -3.100436443566659 L7.277996026178611 -2.747136951180872 L6.024999999999999 -3.4274780615381486 L6.0249999999999995 -3.7807775539239348 z"/>
<path fill="#cfab7c" stroke="#cfab7c" d="M8.239453692895854 -2.2137986463620978 L8.239453692895854 -1.8604991539763112 L7.277996026178611 -2.7471369511808725 L7.277996026178611 -3.100436443566659 z"/>
<path fill="#cfab7c" stroke="#cfab7c" d="M8.843851249048862 -1.1812870629515044 L8.843851249048862 -0.8279875705657177 L8.239453692895854 -1.8604991539763114 L8.239453692895854 -2.213798646362098 z"/>
<path fill="#cfab7c" stroke="#cfab7c" d="M8.918347502412603 -0.7808798646362095 L8.918347502412603 -0.7356616238588392 L8.918347502412603 -0.7344825835318628 L8.918347502412603 -0.6532075485216615 L8.918347502412603 -0.42758037225042267 L8.843851249048862 -0.8279875705657177 L8.843851249048862 -1.1812870629515044 z"/>
<path fill="#cfab7c" stroke="#cfab7c" d="M8.918347502412603 0.6343485617597295 L8.843851249048862 1.0347557600750221 L8.843851249048862 1.388055252460809 L8.918347502412603 0.9876480541455162 L8.918347502412603 0.859975738030969 L8.918347502412603 0.7564595472125213 z"/>
<path fill="#cfab7c" stroke="#cfab7c" d="M8.239453692895854 2.0672673434856166 L8.239453692895854 2.420566835871403 L8.843851249048862 1.388055252460809 L8.843851249048862 1.0347557600750221 z"/>
<path fill="#cfab7c" stroke="#cfab7c" d="M7.277996026178614 2.953905140690177 L7.277996026178614 3.307204633075964 L8.239453692895854 2.4205668358714036 L8.239453692895854 2.0672673434856166 z"/>
<path fill="#cfab7c" stroke="#cfab7c" d="M6.025000000000002 3.634246251047454 L6.025000000000002 3.987545743433241 L7.277996026178614 3.307204633075964 L7.277996026178614 2.9539051406901775 z"/>
<path fill="#cfab7c" stroke="#cfab7c" d="M4.565855222870252 4.061926552203443 L4.565855222870252 4.415226044589229 L6.025 3.987545743433242 L6.025 3.6342462510474554 z"/>
<path fill="#cfab7c" stroke="#cfab7c" d="M3.0000000000000027 4.207800338409475 L3.0000000000000027 4.561099830795262 L4.565855222870253 4.415226044589229 L4.565855222870253 4.061926552203442 z"/>
<path fill="#cfab7c" stroke="#cfab7c" d="M-0.024999999999996355 3.634246251047457 L-0.024999999999996355 3.987545743433244 L1.4341447771297526 4.41522604458923 L1.4341447771297526 4.061926552203443 z"/>
<path fill="#cfab7c" stroke="#cfab7c" d="M-1.2779960261786103 2.9539051406901806 L-1.2779960261786105 3.3072046330759672 L-0.024999999999996803 3.9875457434332433 L-0.024999999999996598 3.634246251047457 z"/>
<path fill="#cfab7c" stroke="#cfab7c" d="M-2.2394536928958524 2.0672673434856192 L-2.239453692895853 2.420566835871406 L-1.2779960261786103 3.307204633075967 L-1.2779960261786105 2.95390514069018 z"/>
<path fill="#cfab7c" stroke="#cfab7c" d="M-2.843851249048862 1.0347557600750246 L-2.843851249048862 1.3880552524608112 L-2.239453692895853 2.420566835871406 L-2.239453692895853 2.067267343485619 z"/>
<path fill="#cfab7c" stroke="#cfab7c" d="M1.4341447771297526 4.061926552203444 L1.4341447771297526 4.41522604458923 L3.000000000000002 4.561099830795262 L3.000000000000002 4.207800338409475 z"/>
<path fill="#cfab7c" stroke="#cfab7c" d="M-3.0499999999999994 -0.07326565143823942 L-3.0499999999999994 0.2800338409475473 L-2.8438512490488623 1.3880552524608112 L-2.843851249048862 1.0347557600750246 z"/>
<path fill="#cfab7c" stroke="#cfab7c" d="M-2.843851249048864 -1.1812870629515015 L-2.843851249048864 -0.8279875705657148 L-3.05 0.2800338409475473 L-3.05 -0.07326565143823943 z"/>
<path fill="#cfab7c" stroke="#cfab7c" d="M-0.025000000000007887 -3.7807775539239317 L-0.025000000000007905 -3.427478061538145 L-1.277996026178617 -2.747136951180869 L-1.277996026178617 -3.1004364435666556 z"/>
<path fill="#cfab7c" stroke="#cfab7c" d="M-2.2394536928958564 -2.213798646362095 L-2.2394536928958564 -1.8604991539763083 L-2.843851249048864 -0.8279875705657148 L-2.843851249048864 -1.1812870629515015 z"/>
<path fill="#cfab7c" stroke="#cfab7c" d="M-1.2779960261786167 -3.100436443566655 L-1.2779960261786167 -2.747136951180868 L-2.2394536928958564 -1.8604991539763083 L-2.2394536928958564 -2.213798646362095 z"/>
<path fill="#cfab7c" stroke="#cfab7c" d="M1.4341447771297395 -4.208457855079921 L1.4341447771297395 -3.855158362694134 L-0.025000000000007457 -3.4274780615381455 L-0.025000000000007457 -3.780777553923932 z"/>
<path fill="#cfab7c" stroke="#cfab7c" d="M3 -4.354331641285956 L3 -4.001032148900169 L1.4341447771297395 -3.855158362694134 L1.4341447771297395 -4.208457855079921 z"/>
<path fill="#cfab7c" stroke="#cfab7c" d="M4.500000000000001 1.5183587140439931 L4.749999999999999 1.5183587140439931 L5.833333333333334 1.5183587140439931 L7.277996026178613 1.5183587140439931 L7.500000000000001 1.5183587140439931 L7.888888888888889 1.444623569663201 L8.375 1.3524546391872105 L8.659686425165674 1.1510064784354588 L8.734139406042877 1.0983224909517937 L8.843851249048862 1.020688831484614 L8.890544456622766 0.9876480541455163 L8.918347502412603 0.9876480541455163 L8.843851249048862 1.388055252460809 L8.239453692895854 2.420566835871403 L7.277996026178614 3.307204633075964 L6.025000000000002 3.987545743433241 L4.565855222870253 4.415226044589229 L3.0000000000000027 4.561099830795262 L1.4341447771297529 4.41522604458923 L-0.02499999999999636 3.9875457434332438 L-1.2779960261786103 3.307204633075967 L-2.239453692895853 2.420566835871406 L-2.8438512490488623 1.3880552524608112 L-3.05 0.2800338409475473 L-2.843851249048864 -0.8279875705657148 L-2.2394536928958564 -1.860499153976308 L-1.2779960261786165 -2.747136951180868 L-0.02500000000000746 -3.427478061538145 L1.4341447771297398 -3.8551583626941337 L3 -4.001032148900168 L4.56585522287025 -3.8551583626941355 L6.024999999999999 -3.427478061538148 L7.277996026178611 -2.7471369511808725 L8.239453692895854 -1.8604991539763114 L8.843851249048862 -0.8279875705657177 L8.918347502412603 -0.4275803722504226 L8.890544456622766 -0.4275803722504226 L8.843851249048862 -0.46062114958952105 L8.730858031457092 -0.540576756352428 L8.375 -0.7923869572921172 L7.990593552154624 -0.8652722099764247 L7.986111111111111 -0.8661221016729095 L7.5 -0.9582910321488998 L7.277996026178611 -0.9582910321488998 L6.166666666666666 -0.9582910321488998 L4.5 -0.9582910321488998 L4.11111111111111 -0.8845558877681073 L3.624999999999999 -0.7923869572921168 L3.3403135748343247 -0.5909387965403652 L2.9844555433772317 -0.3391285956006757 L2.8802530796540173 -0.0639452904681318 L2.8028312163512963 0.14051440723877082 L2.75 0.2800338409475481 L2.8542024637232144 0.5552171460800915 L2.984455543377233 0.899196277495771 L3.2691419685429075 1.100644438247522 L3.625000000000001 1.3524546391872112 L4.013888888888889 1.426189783568003 z"/>
<path fill="#cfab7c" stroke="#cfab7c" d="M2.7499999999999996 0.2800338409475481 L2.8028312163512963 0.14051440723877082 L2.8802530796540173 -0.06394529046813177 L2.9844555433772313 -0.33912859560067565 L2.9844555433772313 -0.056489001692046244 L2.75 0.5626734348561774 z"/>
<path fill="#cfab7c" stroke="#cfab7c" d="M8.918347502412603 0.8599757380309689 L8.918347502412603 0.9876480541455163 L8.890544456622766 0.9876480541455163 L8.890544456622766 1.2243323930381937 L8.890544456622766 1.2702876480541454 L11.829523790387329 1.2702876480541454 L11.658994484684179 1.1803182535057657 L10.62415554933545 0.6343485617597293 L8.918347502412603 0.6343485617597293 L8.918347502412603 0.7564595472125211 z"/>
<path fill="#cfab7c" stroke="#cfab7c" d="M8.918347502412603 -0.653207548521662 L8.918347502412603 -0.7344825835318631 L8.918347502412603 -0.7356616238588398 L8.918347502412603 -0.7808798646362101 L10.62415554933545 -0.7808798646362101 L10.767830330822894 -0.7050786230314517 L11.829523790387329 -0.14494077834179392 L8.890544456622766 -0.14494077834179392 L8.890544456622766 -0.2690420565043128 L8.890544456622766 -0.4275803722504228 L8.918347502412603 -0.4275803722504228 z"/>
<path fill="#cfab7c" stroke="#cfab7c" d="M8.918347502412603 -0.7808798646362094 L8.843851249048862 -1.1812870629515044 L8.239453692895854 -2.213798646362098 L7.277996026178611 -3.100436443566659 L6.024999999999999 -3.780777553923935 L4.56585522287025 -4.208457855079922 L3 -4.354331641285954 L1.4341447771297398 -4.20845785507992 L-0.02500000000000746 -3.7807775539239317 L-1.2779960261786165 -3.1004364435666556 L-2.2394536928958564 -2.2137986463620947 L-2.843851249048864 -1.1812870629515015 L-3.05 -0.07326565143823942 L-2.8438512490488623 1.0347557600750243 L-2.239453692895853 2.0672673434856192 L-1.2779960261786103 2.95390514069018 L-0.02499999999999636 3.634246251047457 L1.4341447771297529 4.061926552203443 L3.0000000000000027 4.207800338409474 L4.565855222870253 4.061926552203442 L6.025000000000002 3.6342462510474545 L7.277996026178614 2.9539051406901775 L8.239453692895854 2.0672673434856166 L8.843851249048862 1.0347557600750221 L8.918347502412603 0.6343485617597295 L10.62415554933545 0.6343485617597295 L10.6607019543868 -0.07326565143824221 L10.632620831202773 -0.6169744474104057 L10.62415554933545 -0.7808798646362094 z"/>
<path fill="#cfab7c" stroke="#cfab7c" d="M8.890544456622766 0.9876480541455162 L8.843851249048862 1.020688831484614 L8.734139406042877 1.0983224909517937 L8.659686425165674 1.151006478435459 L8.375 1.3524546391872105 L8.375 1.6350942330958398 L8.890544456622766 1.2702876480541456 L8.890544456622766 1.2243323930381937 z"/>
<path fill="#cfab7c" stroke="#cfab7c" d="M3.6249999999999987 -0.5097473633834875 L2.9844555433772313 -0.05648900169204623 L2.9844555433772313 -0.3391285956006757 L3.3403135748343242 -0.5909387965403651 L3.6249999999999987 -0.792386957292117 z"/>
<path fill="#cfab7c" stroke="#cfab7c" d="M4.499999999999999 -0.9582910321489 L4.499999999999999 -0.6756514382402709 L3.6249999999999987 -0.509747363383488 L3.6249999999999987 -0.7923869572921172 L4.11111111111111 -0.8845558877681077 z"/>
<path fill="#cfab7c" stroke="#cfab7c" d="M6.166666666666666 -0.9582910321489004 L7.277996026178611 -0.9582910321489004 L7.5 -0.9582910321489004 L7.5 -0.6756514382402705 L4.5 -0.6756514382402705 L4.5 -0.9582910321489004 z"/>
<path fill="#cfab7c" stroke="#cfab7c" d="M7.98611111111111 -0.86612210167291 L7.990593552154622 -0.8652722099764254 L8.374999999999998 -0.7923869572921177 L8.374999999999998 -0.5097473633834884 L7.499999999999999 -0.6756514382402709 L7.499999999999999 -0.9582910321489002 z"/>
<path fill="#cfab7c" stroke="#cfab7c" d="M8.890544456622766 -0.4275803722504226 L8.890544456622766 -0.2690420565043127 L8.890544456622766 -0.14494077834179325 L8.375 -0.5097473633834876 L8.375 -0.7923869572921172 L8.730858031457092 -0.5405767563524279 L8.843851249048862 -0.46062114958952094 z"/>
<path fill="#cfab7c" stroke="#cfab7c" d="M7.888888888888888 1.444623569663201 L7.5 1.5183587140439934 L7.5 1.8009983079526228 L8.374999999999998 1.63509423309584 L8.374999999999998 1.3524546391872108 z"/>
<path fill="#cfab7c" stroke="#cfab7c" d="M7.500000000000001 1.5183587140439934 L7.277996026178613 1.5183587140439934 L5.833333333333334 1.5183587140439934 L4.749999999999999 1.5183587140439934 L4.500000000000001 1.5183587140439934 L4.500000000000001 1.8009983079526226 L7.500000000000001 1.8009983079526226 z"/>
<path fill="#cfab7c" stroke="#cfab7c" d="M3.6250000000000004 1.3524546391872108 L3.6250000000000004 1.6350942330958405 L4.5 1.8009983079526226 L4.5 1.518358714043993 L4.013888888888889 1.4261897835680029 z"/>
<path fill="#cfab7c" stroke="#cfab7c" d="M2.984455543377233 0.899196277495771 L2.984455543377233 1.1818358714044004 L3.625000000000001 1.6350942330958405 L3.625000000000001 1.3524546391872112 L3.2691419685429075 1.1006444382475222 z"/>
<path fill="#cfab7c" stroke="#cfab7c" d="M2.8542024637232144 0.5552171460800915 L2.75 0.280033840947548 L2.75 0.5626734348561775 L2.984455543377233 1.1818358714044004 L2.984455543377233 0.899196277495771 z"/>
<path fill="#cfab7c" stroke="#cfab7c" d="M8.890544456622766 -0.14494077834179322 L11.829523790387329 -0.14494077834179322 L11.840195698265727 0.06168949585573024 L11.86607019543868 0.5626734348561729 L11.829523790387329 1.2702876480541456 L8.890544456622766 1.2702876480541456 L8.375 1.6350942330958398 L7.500000000000001 1.8009983079526228 L4.500000000000001 1.8009983079526228 L3.625000000000001 1.6350942330958405 L2.984455543377233 1.1818358714044004 L2.75 0.5626734348561775 L2.9844555433772317 -0.056489001692046265 L3.624999999999999 -0.5097473633834875 L4.5 -0.6756514382402702 L7.5 -0.6756514382402702 L8.375 -0.5097473633834878 z"/>
<path fill="#cfab7c" stroke="#cfab7c" d="M11.658994484684177 1.1803182535057657 L11.829523790387329 1.2702876480541456 L11.86607019543868 0.5626734348561729 L11.999999999999998 0.6333333333333302 L11.794585842093495 4.610577538953675 L9.9910529315802 -0.42656514382402844 L10.6607019543868 -0.07326565143824221 L10.62415554933545 0.6343485617597295 z"/>
<path fill="#cfab7c" stroke="#cfab7c" d="M11.840195698265727 0.06168949585573036 L11.829523790387329 -0.1449407783417933 L10.767830330822894 -0.7050786230314514 L10.62415554933545 -0.7808798646362094 L10.632620831202773 -0.6169744474104059 L10.6607019543868 -0.07326565143824221 L9.9910529315802 -0.42656514382402855 L11.79458584209348 -3.343910872287218 L11.999999999999998 0.6333333333333302 L11.86607019543868 0.562673434856173 z"/>
<path fill="#cfab7c" stroke="#cfab7c" d="M5.609490481506824 -3.928521079584843 L4.3905095184931735 -3.928521079584843 L9.01095026155402 -11.454617794327605 z"/>
<path fill="#cfab7c" stroke="#cfab7c" d="M-18.749999999999993 1.552551160395902 L2.1801888348697487 2.4877334225053396 L-15.301590762828573 3.510653672782963 z"/>
<path fill="#cfab7c" stroke="#cfab7c" d="M3.206483004932933 -3.7220135482037624 L8.260821617727197 -11.312754466916967 L9.010950261554019 -11.454617794327607 z"/>
<path fill="#cfab7c" stroke="#cfab7c" d="M-18.749999999999996 1.5525511603959021 L1.276389293463302 1.9211491814973858 L2.1801888348697487 2.48773342250534 z"/>
<path fill="#cfab7c" stroke="#cfab7c" d="M9.416101176511017 -2.0643685903707083 L8.723610706536691 -2.7742794691454415 L10.30950742026656 -10.923318110389285 z"/>
<path fill="#cfab7c" stroke="#cfab7c" d="M0.5838988234889789 -2.0643685903707083 L0.15156641935207998 -1.2577118366928257 L-19.299038105676654 0.10262267343485623 z"/>
<path fill="#cfab7c" stroke="#cfab7c" d="M-18.749999999999996 -0.2858844937292356 L1.2763892934633037 -2.7742794691454407 L-19.299038105676654 0.1026226734348561 z"/>
<path fill="#cfab7c" stroke="#cfab7c" d="M1.2763892934633037 -2.774279469145441 L0.5838988234889789 -2.064368590370708 L-19.299038105676654 0.10262267343485648 z"/>
<path fill="#cfab7c" stroke="#cfab7c" d="M0.15156641935207998 -1.2577118366928257 L-19.499999999999996 0.6333333333333333 L-19.299038105676654 0.10262267343485626 z"/>
<path fill="#cfab7c" stroke="#cfab7c" d="M-19.499999999999996 0.633333333333333 L0.15156641935207998 0.4045815490447732 L-19.299038105676654 1.16404399323181 z"/>
<path fill="#cfab7c" stroke="#cfab7c" d="M-18.749999999999996 -0.2858844937292354 L2.1801888348697536 -3.3408637101533953 L1.2763892934633037 -2.774279469145441 z"/>
<path fill="#cfab7c" stroke="#cfab7c" d="M-18.749999999999996 1.5525511603959021 L-19.299038105676654 1.16404399323181 L1.276389293463302 1.9211491814973858 z"/>
<path fill="#cfab7c" stroke="#cfab7c" d="M-1.0380239913985088 9.84934894891713 L-6.00665926748057 7.984353350573061 L2.1801888348697487 2.48773342250534 z"/>
<path fill="#cfab7c" stroke="#cfab7c" d="M3.2064830049329283 2.8688832605557075 L4.109743608235326 11.45272672437844 L-1.0380239913985088 9.84934894891713 z"/>
<path fill="#cfab7c" stroke="#cfab7c" d="M9.760821309655936 -11.31207419468122 L6.793516995067062 -3.7220135482037624 L9.010950261554019 -11.454617794327607 z"/>
<path fill="#cfab7c" stroke="#cfab7c" d="M-1.0380239913987734 -8.582682282250365 L4.1097436082350844 -10.186060057711698 L3.2064830049329327 -3.722013548203763 z"/>
<path fill="#cfab7c" stroke="#cfab7c" d="M-6.00665926748057 7.984353350573062 L-10.769652401018908 5.867690487796561 L2.1801888348697487 2.4877334225053396 z"/>
<path fill="#cfab7c" stroke="#cfab7c" d="M9.760821309655936 -11.312074194681221 L7.819811165130243 -3.340863710153396 L6.793516995067062 -3.7220135482037624 z"/>
<path fill="#cfab7c" stroke="#cfab7c" d="M9.848433580647912 0.4045815490447798 L10.509988593149602 11.659183086957178 L10.30950742026656 12.189984777055953 z"/>
<path fill="#cfab7c" stroke="#cfab7c" d="M2.1801888348697536 -3.3408637101533953 L-15.301590762828786 -2.243987006116185 L-10.769652401019158 -4.601023821129779 z"/>
<path fill="#cfab7c" stroke="#cfab7c" d="M11.17943934178349 -7.29993475922501 L9.9910529315802 -0.4265651438240286 L9.848433580647917 -1.2577118366928277 z"/>
<path fill="#cfab7c" stroke="#cfab7c" d="M10.509988593149602 -10.392516420290509 L11.17943934178349 -7.299934759225011 L9.848433580647917 -1.2577118366928275 z"/>
<path fill="#cfab7c" stroke="#cfab7c" d="M-6.006659267480578 -6.717686683906392 L2.1801888348697536 -3.3408637101533953 L-10.769652401019158 -4.601023821129779 z"/>
<path fill="#cfab7c" stroke="#cfab7c" d="M7.819811165130242 -3.3408637101533953 L9.760821309655936 -11.312074194681221 L8.723610706536691 -2.774279469145441 z"/>
<path fill="#cfab7c" stroke="#cfab7c" d="M9.416101176511013 1.211238302722661 L9.848433580647912 0.40458154904477966 L10.30950742026656 12.189984777055953 z"/>
<path fill="#cfab7c" stroke="#cfab7c" d="M9.848433580647917 -1.2577118366928268 L9.416101176511017 -2.0643685903707083 L10.30950742026656 -10.923318110389285 z"/>
<path fill="#cfab7c" stroke="#cfab7c" d="M9.760821309655935 12.578740861347887 L7.819811165130236 2.4877334225053453 L8.723610706536686 1.9211491814973924 z"/>
<path fill="#cfab7c" stroke="#cfab7c" d="M0.15156641935207998 0.4045815490447733 L0.5838988234889777 1.2112383027226543 L-19.299038105676654 1.16404399323181 z"/>
<path fill="#cfab7c" stroke="#cfab7c" d="M10.509988593149602 11.659183086957178 L9.848433580647912 0.40458154904477966 L11.17943934178352 8.566601425891491 z"/>
<path fill="#cfab7c" stroke="#cfab7c" d="M2.1801888348697487 2.48773342250534 L-10.769652401018908 5.867690487796561 L-15.301590762828573 3.5106536727829636 z"/>
<path fill="#cfab7c" stroke="#cfab7c" d="M0.008947068419796853 -0.42656514382402805 L-19.499999999999996 0.633333333333333 L0.15156641935207998 -1.2577118366928257 z"/>
<path fill="#cfab7c" stroke="#cfab7c" d="M6.793516995067058 2.868883260555711 L7.819811165130236 2.4877334225053453 L9.760821309655935 12.578740861347889 z"/>
<path fill="#cfab7c" stroke="#cfab7c" d="M-19.499999999999996 0.6333333333333329 L0.008947068419796853 -0.4265651438240282 L0.15156641935207998 0.4045815490447733 z"/>
<path fill="#cfab7c" stroke="#cfab7c" d="M5.6094904815068185 3.07539079193679 L9.010950261554017 12.721284460994275 L4.390509518493169 3.0753907919367895 z"/>
<path fill="#cfab7c" stroke="#cfab7c" d="M9.848433580647919 -1.2577118366928268 L9.991052931580201 -0.42656514382402844 L9.848433580647914 0.4045815490447797 L9.416101176511015 1.211238302722661 L8.723610706536688 1.9211491814973924 L7.819811165130237 2.4877334225053453 L6.793516995067059 2.868883260555711 L5.609490481506819 3.0753907919367904 L4.39050951849317 3.0753907919367895 L3.2064830049329287 2.868883260555707 L2.180188834869749 2.48773342250534 L1.2763892934633023 1.921149181497386 L0.5838988234889778 1.2112383027226543 L0.15156641935208 0.4045815490447732 L0.008947068419796854 -0.42656514382402816 L0.15156641935208 -1.257711836692826 L0.583898823488979 -2.0643685903707087 L1.2763892934633039 -2.7742794691454407 L2.180188834869754 -3.340863710153396 L3.2064830049329336 -3.722013548203763 L4.3905095184931735 -3.928521079584844 L5.609490481506824 -3.928521079584844 L6.793516995067064 -3.722013548203763 L7.819811165130244 -3.340863710153396 L8.723610706536693 -2.7742794691454415 L9.416101176511019 -2.0643685903707087 z"/>
<path fill="#cfab7c" stroke="#cfab7c" d="M2.1801888348697536 -3.3408637101533953 L-6.006659267480578 -6.717686683906392 L-1.0380239913987734 -8.582682282250365 z"/>
<path fill="#cfab7c" stroke="#cfab7c" d="M9.010950261554017 12.721284460994273 L6.7935169950670575 2.868883260555711 L9.760821309655935 12.578740861347889 z"/>
<path fill="#cfab7c" stroke="#cfab7c" d="M2.1801888348697536 -3.340863710153396 L-1.0380239913987734 -8.582682282250365 L3.206483004932933 -3.7220135482037624 z"/>
<path fill="#cfab7c" stroke="#cfab7c" d="M8.723610706536691 -2.774279469145441 L9.760821309655936 -11.312074194681221 L10.30950742026656 -10.923318110389285 z"/>
<path fill="#cfab7c" stroke="#cfab7c" d="M3.206483004932933 -3.7220135482037624 L4.1097436082350844 -10.186060057711698 L8.260821617727197 -11.312754466916967 z"/>
<path fill="#cfab7c" stroke="#cfab7c" d="M9.010950261554017 12.721284460994275 L5.6094904815068185 3.0753907919367904 L6.793516995067058 2.868883260555711 z"/>
<path fill="#cfab7c" stroke="#cfab7c" d="M4.390509518493173 -3.928521079584844 L3.206483004932933 -3.7220135482037624 L9.010950261554019 -11.454617794327607 z"/>
<path fill="#cfab7c" stroke="#cfab7c" d="M-1.038023991398509 9.84934894891713 L4.109743608235327 11.45272672437844 L8.2608216177272 12.579421133583635 L9.010950261554019 12.721284460994275 L9.760821309655936 12.578740861347889 L10.309507420266561 12.189984777055955 L10.509988593149604 11.65918308695718 L11.179439341783521 8.566601425891491 L11.794585842093497 4.610577538953675 L12 0.6333333333333301 L11.794585842093483 -3.343910872287218 L11.179439341783493 -7.299934759225011 L10.509988593149604 -10.39251642029051 L10.309507420266561 -10.923318110389285 L9.760821309655938 -11.312074194681221 L9.01095026155402 -11.454617794327607 L8.2608216177272 -11.312754466916967 L4.109743608235085 -10.186060057711698 L-1.0380239913987737 -8.582682282250367 L-6.00665926748058 -6.717686683906392 L-10.76965240101916 -4.601023821129779 L-15.301590762828788 -2.2439870061161855 L-18.75 -0.28588449372923547 L-19.299038105676658 0.10262267343485615 L-19.5 0.633333333333333 L-19.299038105676658 1.1640439932318098 L-18.75 1.5525511603959021 L-15.301590762828575 3.510653672782963 L-10.76965240101891 5.86769048779656 L-6.006659267480571 7.984353350573062 z"/>
<path fill="#cfab7c" stroke="#cfab7c" d="M3.2064830049329283 2.8688832605557075 L-1.0380239913985088 9.84934894891713 L2.1801888348697487 2.4877334225053396 z"/>
<path fill="#cfab7c" stroke="#cfab7c" d="M-19.299038105676654 1.16404399323181 L0.5838988234889777 1.2112383027226543 L1.276389293463302 1.9211491814973858 z"/>
<path fill="#cfab7c" stroke="#cfab7c" d="M8.723610706536686 1.9211491814973924 L9.416101176511013 1.211238302722661 L10.30950742026656 12.189984777055953 z"/>
<path fill="#cfab7c" stroke="#cfab7c" d="M9.9910529315802 -0.42656514382402877 L11.17943934178349 -7.29993475922501 L11.79458584209348 -3.343910872287219 z"/>
<path fill="#cfab7c" stroke="#cfab7c" d="M9.760821309655935 12.578740861347889 L8.723610706536686 1.9211491814973924 L10.30950742026656 12.189984777055953 z"/>
<path fill="#cfab7c" stroke="#cfab7c" d="M10.509988593149602 -10.39251642029051 L9.848433580647917 -1.257711836692827 L10.30950742026656 -10.923318110389285 z"/>
<path fill="#cfab7c" stroke="#cfab7c" d="M9.848433580647912 0.4045815490447797 L9.9910529315802 -0.42656514382402855 L11.17943934178352 8.566601425891491 z"/>
<path fill="#cfab7c" stroke="#cfab7c" d="M8.260821617727197 12.579421133583635 L4.109743608235326 11.45272672437844 L3.2064830049329283 2.868883260555707 z"/>
<path fill="#cfab7c" stroke="#cfab7c" d="M9.010950261554017 12.721284460994275 L8.260821617727197 12.579421133583635 L3.2064830049329283 2.868883260555707 z"/>
<path fill="#cfab7c" stroke="#cfab7c" d="M9.9910529315802 -0.4265651438240282 L11.794585842093495 4.610577538953675 L11.17943934178352 8.566601425891491 z"/>
<path fill="#cfab7c" stroke="#cfab7c" d="M9.010950261554017 12.721284460994273 L3.2064830049329283 2.868883260555707 L4.390509518493169 3.07539079193679 z"/>
<path fill="#cfab7c" stroke="#cfab7c" d="M6.793516995067063 -3.7220135482037624 L5.609490481506823 -3.9285210795848435 L9.010950261554019 -11.454617794327607 z"/>
<path fill="#cfab7c" stroke="#cfab7c" d="M-15.301590762828786 -2.243987006116185 L2.1801888348697536 -3.340863710153396 L-18.749999999999996 -0.28588449372923547 z"/>
<path fill="#ffb458" stroke="#ffb458" d="M4.56585522287025 -3.855158362694136 L4.56585522287025 -4.208457855079923 L3 -4.354331641285956 L3 -4.001032148900168 z"/>
<path fill="#ffb458" stroke="#ffb458" d="M6.024999999999998 -3.4274780615381504 L6.024999999999998 -3.7807775539239366 L4.565855222870249 -4.208457855079923 L4.565855222870249 -3.8551583626941377 z"/>
<path fill="#ffb458" stroke="#ffb458" d="M7.277996026178611 -2.747136951180872 L7.277996026178611 -3.100436443566659 L6.0249999999999995 -3.7807775539239348 L6.024999999999999 -3.4274780615381486 z"/>
<path fill="#ffb458" stroke="#ffb458" d="M8.239453692895854 -1.8604991539763112 L8.239453692895854 -2.2137986463620978 L7.277996026178611 -3.100436443566659 L7.277996026178611 -2.7471369511808725 z"/>
<path fill="#ffb458" stroke="#ffb458" d="M8.843851249048862 -0.8279875705657177 L8.843851249048862 -1.1812870629515044 L8.239453692895854 -2.213798646362098 L8.239453692895854 -1.8604991539763114 z"/>
<path fill="#ffb458" stroke="#ffb458" d="M9.049999999999999 0.2800338409475457 L9.049999999999999 -0.07326565143824108 L8.843851249048862 -1.1812870629515044 L8.843851249048862 -0.8279875705657177 z"/>
<path fill="#ffb458" stroke="#ffb458" d="M8.843851249048862 1.388055252460809 L8.843851249048862 1.0347557600750221 L9.049999999999999 -0.07326565143824108 L9.049999999999999 0.28003384094754563 z"/>
<path fill="#ffb458" stroke="#ffb458" d="M8.239453692895854 2.420566835871403 L8.239453692895854 2.0672673434856166 L8.843851249048862 1.0347557600750221 L8.843851249048862 1.388055252460809 z"/>
<path fill="#ffb458" stroke="#ffb458" d="M7.277996026178614 3.307204633075964 L7.277996026178614 2.953905140690177 L8.239453692895854 2.0672673434856166 L8.239453692895854 2.4205668358714036 z"/>
<path fill="#ffb458" stroke="#ffb458" d="M6.025000000000002 3.987545743433241 L6.025000000000002 3.634246251047454 L7.277996026178614 2.9539051406901775 L7.277996026178614 3.307204633075964 z"/>
<path fill="#ffb458" stroke="#ffb458" d="M4.565855222870252 4.415226044589229 L4.565855222870252 4.061926552203443 L6.025 3.6342462510474554 L6.025 3.987545743433242 z"/>
<path fill="#ffb458" stroke="#ffb458" d="M3.0000000000000027 4.561099830795262 L3.0000000000000027 4.207800338409475 L4.565855222870253 4.061926552203442 L4.565855222870253 4.415226044589229 z"/>
<path fill="#ffb458" stroke="#ffb458" d="M-0.024999999999996355 3.987545743433244 L-0.024999999999996355 3.634246251047457 L1.4341447771297526 4.061926552203443 L1.4341447771297526 4.41522604458923 z"/>
<path fill="#ffb458" stroke="#ffb458" d="M-1.2779960261786105 3.3072046330759672 L-1.2779960261786103 2.9539051406901806 L-0.024999999999996598 3.634246251047457 L-0.024999999999996803 3.9875457434332433 z"/>
<path fill="#ffb458" stroke="#ffb458" d="M-2.239453692895853 2.420566835871406 L-2.2394536928958524 2.0672673434856192 L-1.2779960261786105 2.95390514069018 L-1.2779960261786103 3.307204633075967 z"/>
<path fill="#ffb458" stroke="#ffb458" d="M-2.843851249048862 1.3880552524608112 L-2.843851249048862 1.0347557600750246 L-2.239453692895853 2.067267343485619 L-2.239453692895853 2.420566835871406 z"/>
<path fill="#ffb458" stroke="#ffb458" d="M1.4341447771297526 4.41522604458923 L1.4341447771297526 4.061926552203444 L3.000000000000002 4.207800338409475 L3.000000000000002 4.561099830795262 z"/>
<path fill="#ffb458" stroke="#ffb458" d="M-3.0499999999999994 0.2800338409475473 L-3.0499999999999994 -0.07326565143823942 L-2.843851249048862 1.0347557600750246 L-2.8438512490488623 1.3880552524608112 z"/>
<path fill="#ffb458" stroke="#ffb458" d="M-2.843851249048864 -0.8279875705657148 L-2.843851249048864 -1.1812870629515015 L-3.05 -0.07326565143823943 L-3.05 0.2800338409475473 z"/>
<path fill="#ffb458" stroke="#ffb458" d="M-0.025000000000007905 -3.427478061538145 L-0.025000000000007887 -3.7807775539239317 L-1.277996026178617 -3.1004364435666556 L-1.277996026178617 -2.747136951180869 z"/>
<path fill="#ffb458" stroke="#ffb458" d="M-2.2394536928958564 -1.8604991539763083 L-2.2394536928958564 -2.213798646362095 L-2.843851249048864 -1.1812870629515015 L-2.843851249048864 -0.8279875705657148 z"/>
<path fill="#ffb458" stroke="#ffb458" d="M-1.2779960261786167 -2.747136951180868 L-1.2779960261786167 -3.100436443566655 L-2.2394536928958564 -2.213798646362095 L-2.2394536928958564 -1.8604991539763083 z"/>
<path fill="#ffb458" stroke="#ffb458" d="M1.4341447771297395 -3.855158362694134 L1.4341447771297395 -4.208457855079921 L-0.025000000000007457 -3.780777553923932 L-0.025000000000007457 -3.4274780615381455 z"/>
<path fill="#ffb458" stroke="#ffb458" d="M3 -4.001032148900169 L3 -4.354331641285956 L1.4341447771297395 -4.208457855079921 L1.4341447771297395 -3.855158362694134 z"/>
<path fill="#ffb458" stroke="#ffb458" d="M4.56585522287025 -3.8551583626941355 L3 -4.001032148900168 L1.4341447771297398 -3.8551583626941337 L-0.02500000000000746 -3.427478061538145 L-1.2779960261786165 -2.7471369511808685 L-2.2394536928958564 -1.8604991539763083 L-2.843851249048864 -0.8279875705657149 L-3.05 0.28003384094754735 L-2.8438512490488623 1.3880552524608112 L-2.239453692895853 2.420566835871406 L-1.2779960261786103 3.3072046330759672 L-0.02499999999999636 3.9875457434332433 L1.4341447771297529 4.41522604458923 L3.0000000000000027 4.561099830795262 L4.565855222870253 4.415226044589228 L6.025000000000002 3.987545743433241 L7.277996026178614 3.3072046330759637 L8.239453692895854 2.420566835871403 L8.843851249048862 1.3880552524608087 L9.049999999999999 0.28003384094754563 L8.843851249048862 -0.8279875705657177 L8.239453692895854 -1.8604991539763114 L7.277996026178611 -2.747136951180872 L6.024999999999999 -3.427478061538148 z"/>
<path fill="#ffb458" stroke="#ffb458" d="M4.56585522287025 -4.208457855079922 L6.024999999999999 -3.7807775539239348 L7.277996026178611 -3.100436443566659 L8.239453692895854 -2.2137986463620978 L8.843851249048862 -1.1812870629515044 L9.049999999999999 -0.07326565143824107 L8.843851249048862 1.034755760075022 L8.239453692895854 2.0672673434856166 L7.277996026178614 2.953905140690177 L6.025000000000002 3.6342462510474545 L4.565855222870253 4.061926552203442 L3.0000000000000027 4.207800338409474 L1.4341447771297529 4.061926552203443 L-0.02499999999999636 3.6342462510474567 L-1.2779960261786103 2.9539051406901806 L-2.239453692895853 2.067267343485619 L-2.8438512490488623 1.0347557600750243 L-3.05 -0.07326565143823943 L-2.843851249048864 -1.1812870629515015 L-2.2394536928958564 -2.2137986463620947 L-1.2779960261786165 -3.100436443566655 L-0.02500000000000746 -3.7807775539239317 L1.4341447771297398 -4.20845785507992 L3 -4.354331641285955 z"/>
</svg>