<?xml version="1.0" encoding="UTF-8"?>
<!-- Generated by jsxcad -->
<!DOCTYPE svg PUBLIC "-//W3C//DTD SVG 1.1 Tiny//EN" "http://www.w3.org/Graphics/SVG/1.1/DTD/svg11-tiny.dtd">
<svg baseProfile="tiny" height="35.16771573604064mm" width="54.00000000000003mm" viewBox="-29.500000000000014 -18.564500846023705 54.00000000000003 35.16771573604064" version="1.1" stroke="black" stroke-width=".1" fill="none" xmlns="http://www.w3.org/2000/svg">
<path fill="#cfab7c" stroke="#cfab7c" d="M21.453124159981666 0.08319778006301616 L21.453124159981666 0.025719120135363493 L21.567784122196773 0.025719120135363493 L21.737489983144112 0.025719120135363493 L21.793181459750524 0.025719120135363493 L21.819822518060825 0.025719120135363493 L21.969130000471207 0.025719120135363493 L22.378129533959235 0.025719120135363493 L22.578651685393254 0.025719120135363493 L24.5 0.025719120135363493 L24.5 0.26066328257191157 L24.5 0.37901861252114993 L21.453124159981666 0.37901861252114993 z"/>
<path fill="#cfab7c" stroke="#cfab7c" d="M22.37640449438202 1.4409475465313026 L22.191609570511453 1.4409475465313026 L21.814688431806797 1.4409475465313026 L21.65835116403149 1.4409475465313026 L21.453124159981666 1.4409475465313026 L21.453124159981666 1.5009369971147577 L21.453124159981666 1.610006896200824 L21.453124159981666 1.7942470389170893 L24.5 1.7942470389170893 L24.5 1.7006226734348562 L24.5 1.5292724196277498 L24.5 1.4409475465313026 z"/>
<path fill="#cfab7c" stroke="#cfab7c" d="M24.5 0.7328257191201357 L24.5 0.37901861252115093 L24.5 0.26066328257191235 L24.5 0.02571912013536418 L24.5 -13.418950930626057 L24.5 -12.924331641285955 L24.5 15.380236886632826 L24.5 14.885617597292724 L24.5 1.440947546531303 L24.5 1.5292724196277498 L24.5 1.7006226734348564 L24.5 1.79424703891709 z"/>
<path fill="#cfab7c" stroke="#cfab7c" d="M21.406401527862755 -0.04293399669049293 L21.453124159981666 0.025719120135364162 L21.453124159981666 0.08319778006301638 L21.453124159981666 0.37901861252115093 L21.259120835553066 0.09395477316586283 L21.259120835553066 -0.25934471921992386 z"/>
<path fill="#cfab7c" stroke="#cfab7c" d="M7.74087916444693 -0.2593447192199226 L7.74087916444693 0.09395477316586413 L7.3064121975908956 0.7323501306155789 L7.3064121975908956 0.37905063822979207 L7.596056842161586 -0.04654626673668444 z"/>
<path fill="#cfab7c" stroke="#cfab7c" d="M8.262800779472636 -0.5538669157160379 L8.52376158698549 -0.7011280139640959 L8.52376158698549 -0.34782852157830907 L7.74087916444693 0.09395477316586391 L7.74087916444693 -0.2593447192199229 z"/>
<path fill="#cfab7c" stroke="#cfab7c" d="M9.499999999999998 -0.5054991539763107 L8.52376158698549 -0.34782852157830885 L8.52376158698549 -0.701128013964096 L9.174587195661829 -0.8062417688960974 L9.499999999999998 -0.8587986463620979 z"/>
<path fill="#cfab7c" stroke="#cfab7c" d="M16.166666666666664 -0.8587986463620988 L19.23743115942478 -0.8587986463620988 L19.5 -0.8587986463620988 L19.5 -0.5054991539763115 L9.5 -0.5054991539763115 L9.5 -0.8587986463620988 z"/>
<path fill="#cfab7c" stroke="#cfab7c" d="M20.476238413014503 -0.34782852157831107 L19.499999999999996 -0.5054991539763124 L19.499999999999996 -0.8587986463620992 L19.999999999999996 -0.7780444830880209 L20.150825608676335 -0.7536848914300984 L20.476238413014503 -0.701128013964098 z"/>
<path fill="#cfab7c" stroke="#cfab7c" d="M21.259120835553066 0.09395477316586273 L20.476238413014503 -0.3478285215783099 L20.476238413014503 -0.7011280139640966 L20.749993372209918 -0.5466471310829268 L20.99816002804021 -0.40660581746798125 L21.259120835553066 -0.25934471921992397 z"/>
<path fill="#cfab7c" stroke="#cfab7c" d="M21.453124159981666 1.79424703891709 L21.453124159981666 1.6100068962008243 L21.453124159981666 1.5009369971147577 L21.453124159981666 1.440947546531303 L21.403943157838413 1.5132129334033528 L21.270327202009998 1.709545019359915 L21.259120835553066 1.7260113858865909 L21.259120835553066 2.0793108782723775 z"/>
<path fill="#cfab7c" stroke="#cfab7c" d="M20.73719922052736 2.020533582382706 L20.64446258762121 2.0728651893383363 L20.476238413014507 2.1677946806307635 L20.476238413014503 2.52109417301655 L21.259120835553066 2.0793108782723775 L21.259120835553066 1.7260113858865909 z"/>
<path fill="#cfab7c" stroke="#cfab7c" d="M19.5 2.6787648054145516 L20.476238413014503 2.5210941730165506 L20.476238413014503 2.167794680630764 L19.999999999999996 2.244711149754687 L19.825412804338164 2.272908435562765 L19.5 2.325465313028765 z"/>
<path fill="#cfab7c" stroke="#cfab7c" d="M19.365713768119676 2.3254653130287646 L12.833333333333334 2.3254653130287646 L9.5 2.3254653130287646 L9.5 2.6787648054145516 L19.5 2.6787648054145516 L19.5 2.3254653130287646 z"/>
<path fill="#cfab7c" stroke="#cfab7c" d="M8.523761586985492 2.5210941730165506 L9.5 2.6787648054145516 L9.5 2.325465313028764 L8.849174391323663 2.2203515580967634 L8.523761586985492 2.167794680630763 z"/>
<path fill="#cfab7c" stroke="#cfab7c" d="M7.740879164446934 1.726011385886592 L7.740879164446934 2.0793108782723784 L8.523761586985493 2.5210941730165506 L8.523761586985493 2.1677946806307635 L8.001839971959786 1.873272484134649 z"/>
<path fill="#cfab7c" stroke="#cfab7c" d="M7.306412197590897 1.4409155208226643 L7.740879164446934 2.0793108782723784 L7.740879164446934 1.7260113858865918 L7.451234519876243 1.3004144809201157 L7.306412197590897 1.0876160284368774 z"/>
<path fill="#cfab7c" stroke="#cfab7c" d="M7.306412197590897 1.0876160284368777 L7.306412197590896 0.6152391016321539 L7.306412197590896 0.37905063822979207 L7.306412197590896 0.7323501306155789 L7.306412197590897 1.4409155208226643 z"/>
<path fill="#cfab7c" stroke="#cfab7c" d="M24.5 1.7942470389170897 L21.453124159981666 1.7942470389170897 L21.259120835553066 2.0793108782723775 L20.476238413014507 2.52109417301655 L19.5 2.678764805414551 L9.5 2.678764805414551 L8.523761586985493 2.52109417301655 L7.740879164446934 2.079310878272379 L7.306412197590897 1.4409155208226645 L7.306412197590896 0.7323501306155787 L7.740879164446931 0.09395477316586413 L8.523761586985492 -0.3478285215783089 L9.5 -0.5054991539763108 L19.5 -0.5054991539763108 L20.476238413014503 -0.34782852157830985 L21.259120835553066 0.09395477316586288 L21.453124159981666 0.37901861252115093 L24.5 0.37901861252115093 L24.5 0.7328257191201357 z"/>
<path fill="#cfab7c" stroke="#cfab7c" d="M21.390576474687258 18.408651874815313 L19.999999999999993 18.564500846023687 L19.999999999999993 18.069881556683587 L21.390576474687258 17.914032585475212 z"/>
<path fill="#cfab7c" stroke="#cfab7c" d="M22.645033635316125 17.956360544355693 L21.390576474687258 18.408651874815313 L21.390576474687258 17.914032585475216 L22.645033635316125 17.461741255015596 z"/>
<path fill="#cfab7c" stroke="#cfab7c" d="M23.640576474687265 17.25190028136921 L22.64503363531613 17.95636054435569 L22.64503363531613 17.46174125501559 L23.640576474687265 16.75728099202911 z"/>
<path fill="#cfab7c" stroke="#cfab7c" d="M24.27975432332819 16.36422856466026 L23.640576474687265 17.25190028136921 L23.640576474687265 16.75728099202911 L24.27975432332819 15.869609275320157 z"/>
<path fill="#cfab7c" stroke="#cfab7c" d="M24.5 15.380236886632824 L24.27975432332819 16.36422856466026 L24.27975432332819 15.869609275320158 L24.5 14.885617597292722 z"/>
<path fill="#cfab7c" stroke="#cfab7c" d="M24.27975432332819 -13.908323319313388 L24.5 -12.924331641285955 L24.5 -13.418950930626055 L24.27975432332819 -14.402942608653492 z"/>
<path fill="#cfab7c" stroke="#cfab7c" d="M23.640576474687265 -14.79599503602234 L24.27975432332819 -13.90832331931339 L24.27975432332819 -14.40294260865349 L23.640576474687265 -15.29061432536244 z"/>
<path fill="#cfab7c" stroke="#cfab7c" d="M22.64503363531613 -15.50045529900882 L23.640576474687265 -14.795995036022342 L23.640576474687265 -15.290614325362444 L22.64503363531613 -15.995074588348919 z"/>
<path fill="#cfab7c" stroke="#cfab7c" d="M21.39057647468726 -15.952746629468445 L22.645033635316125 -15.500455299008825 L22.645033635316125 -15.995074588348926 L21.39057647468726 -16.447365918808543 z"/>
<path fill="#cfab7c" stroke="#cfab7c" d="M19.999999999999996 -16.10859560067682 L21.39057647468726 -15.952746629468445 L21.39057647468726 -16.447365918808547 L19.999999999999996 -16.603214890016922 z"/>
<path fill="#cfab7c" stroke="#cfab7c" d="M18.60942352531273 -15.952746629468443 L19.999999999999996 -16.108595600676818 L19.999999999999996 -16.60321489001692 L18.60942352531273 -16.447365918808543 z"/>
<path fill="#cfab7c" stroke="#cfab7c" d="M-26.39057647468726 -1.8004623655090533 L18.60942352531273 -15.952746629468443 L18.60942352531273 -16.447365918808543 L-26.39057647468726 -2.2950816548491555 z"/>
<path fill="#cfab7c" stroke="#cfab7c" d="M-27.645033635316125 -1.3481710350494325 L-26.390576474687258 -1.800462365509055 L-26.390576474687258 -2.295081654849155 L-27.645033635316125 -1.8427903243895327 z"/>
<path fill="#cfab7c" stroke="#cfab7c" d="M-28.640576474687265 -0.6437107720629527 L-27.64503363531613 -1.3481710350494303 L-27.64503363531613 -1.8427903243895318 L-28.640576474687265 -1.1383300614030543 z"/>
<path fill="#cfab7c" stroke="#cfab7c" d="M-29.27975432332819 0.24396094464600102 L-28.640576474687265 -0.6437107720629526 L-28.640576474687265 -1.1383300614030538 L-29.27975432332819 -0.25065834469410053 z"/>
<path fill="#cfab7c" stroke="#cfab7c" d="M-29.5 1.2279526226734347 L-29.27975432332819 0.243960944646001 L-29.27975432332819 -0.2506583446941004 L-29.5 0.7333333333333334 z"/>
<path fill="#cfab7c" stroke="#cfab7c" d="M-29.27975432332819 2.2119443007008686 L-29.5 1.2279526226734347 L-29.499999999999996 0.7333333333333334 L-29.279754323328188 1.7173250113607672 z"/>
<path fill="#cfab7c" stroke="#cfab7c" d="M-28.64057647468726 3.0996160174098226 L-29.27975432332819 2.2119443007008686 L-29.279754323328188 1.7173250113607674 L-28.640576474687265 2.604996728069721 z"/>
<path fill="#cfab7c" stroke="#cfab7c" d="M-27.645033635316125 3.8040762803963 L-28.64057647468726 3.0996160174098226 L-28.640576474687265 2.604996728069721 L-27.64503363531613 3.3094569910561984 z"/>
<path fill="#cfab7c" stroke="#cfab7c" d="M-26.390576474687258 4.256367610855923 L-27.645033635316125 3.8040762803963015 L-27.645033635316125 3.3094569910562 L-26.390576474687258 3.7617483215158223 z"/>
<path fill="#cfab7c" stroke="#cfab7c" d="M18.60942352531273 18.408651874815313 L-26.39057647468726 4.256367610855921 L-26.39057647468726 3.761748321515821 L18.60942352531273 17.91403258547521 z"/>
<path fill="#cfab7c" stroke="#cfab7c" d="M19.999999999999993 18.564500846023687 L18.60942352531273 18.408651874815313 L18.60942352531273 17.91403258547521 L19.999999999999993 18.069881556683587 z"/>
<path fill="#cfab7c" stroke="#cfab7c" d="M21.737489983144112 0.02571912013536418 L21.567784122196773 0.02571912013536418 L21.453124159981666 0.02571912013536418 L21.406401527862755 -0.0429339966904929 L21.259120835553066 -0.25934471921992386 L20.99816002804021 -0.40660581746798147 L20.749993372209918 -0.5466471310829267 L20.476238413014503 -0.7011280139640966 L20.150825608676335 -0.7536848914300969 L19.999999999999996 -0.7780444830880195 L19.5 -0.8587986463620976 L19.23743115942478 -0.8587986463620976 L16.166666666666664 -0.8587986463620976 L9.5 -0.8587986463620976 L9.17458719566183 -0.806241768896097 L8.523761586985492 -0.7011280139640956 L8.262800779472638 -0.553866915716038 L7.740879164446931 -0.2593447192199226 L7.596056842161586 -0.04654626673668439 L7.306412197590896 0.37905063822979207 L7.306412197590896 0.6152391016321539 L7.306412197590897 1.0876160284368777 L7.451234519876243 1.3004144809201157 L7.740879164446934 1.7260113858865918 L8.001839971959786 1.8732724841346493 L8.523761586985493 2.167794680630764 L8.849174391323663 2.2203515580967643 L9.5 2.3254653130287646 L12.833333333333334 2.3254653130287646 L19.365713768119676 2.3254653130287646 L19.5 2.3254653130287646 L19.825412804338168 2.2729084355627642 L19.999999999999996 2.244711149754687 L20.476238413014507 2.1677946806307635 L20.64446258762121 2.0728651893383363 L20.73719922052736 2.020533582382706 L21.259120835553066 1.7260113858865909 L21.270327202009998 1.7095450193599149 L21.403943157838413 1.5132129334033528 L21.453124159981666 1.440947546531303 L21.65835116403149 1.440947546531303 L21.814688431806797 1.440947546531303 L22.191609570511453 1.440947546531303 L22.37640449438202 1.440947546531303 L24.5 1.440947546531303 L24.5 14.885617597292722 L24.27975432332819 15.869609275320158 L23.640576474687265 16.75728099202911 L22.64503363531613 17.461741255015585 L21.39057647468726 17.91403258547521 L19.999999999999996 18.069881556683583 L18.609423525312735 17.91403258547521 L-26.390576474687265 3.761748321515819 L-27.64503363531613 3.3094569910561984 L-28.640576474687265 2.604996728069721 L-29.27975432332819 1.7173250113607674 L-29.5 0.7333333333333334 L-29.27975432332819 -0.2506583446941004 L-28.640576474687265 -1.1383300614030538 L-27.64503363531613 -1.8427903243895316 L-26.390576474687265 -2.295081654849153 L18.609423525312735 -16.447365918808543 L20 -16.60321489001692 L21.390576474687265 -16.447365918808543 L22.64503363531613 -15.995074588348922 L23.640576474687265 -15.290614325362442 L24.27975432332819 -14.40294260865349 L24.5 -13.418950930626055 L24.5 0.02571912013536418 L22.578651685393254 0.02571912013536418 L22.378129533959235 0.02571912013536418 L21.969130000471207 0.02571912013536418 L21.819822518060825 0.02571912013536418 L21.793181459750524 0.02571912013536418 z"/>
<path fill="#cfab7c" stroke="#cfab7c" d="M21.39057647468726 18.40865187481531 L22.64503363531613 17.95636054435569 L23.640576474687265 17.25190028136921 L24.27975432332819 16.36422856466026 L24.5 15.380236886632824 L24.5 -12.924331641285953 L24.27975432332819 -13.908323319313388 L23.640576474687265 -14.79599503602234 L22.64503363531613 -15.50045529900882 L21.390576474687265 -15.95274662946844 L20 -16.108595600676814 L18.609423525312735 -15.95274662946844 L-26.390576474687265 -1.800462365509051 L-27.64503363531613 -1.3481710350494303 L-28.640576474687265 -0.6437107720629526 L-29.27975432332819 0.243960944646001 L-29.5 1.2279526226734347 L-29.27975432332819 2.2119443007008686 L-28.640576474687265 3.0996160174098226 L-27.64503363531613 3.8040762803963 L-26.390576474687265 4.2563676108559205 L18.609423525312735 18.40865187481531 L19.999999999999996 18.564500846023687 z"/>
<path fill="#cfab7c" stroke="#cfab7c" d="M7.499999999999999 -9.52605752961083 L7.499999999999999 -9.2434179357022 L5.155749601496452 -9.098289562066029 L5.155749601496452 -9.380929155974659 z"/>
<path fill="#cfab7c" stroke="#cfab7c" d="M9.84425039850356 -9.380929155974659 L9.84425039850356 -9.098289562066027 L7.5 -9.2434179357022 L7.5 -9.52605752961083 z"/>
<path fill="#cfab7c" stroke="#cfab7c" d="M14.250000000000002 -8.246226095001363 L14.250000000000002 -7.963586501092733 L12.117271934896525 -8.667314093351951 L12.117271934896525 -8.949953687260582 z"/>
<path fill="#cfab7c" stroke="#cfab7c" d="M16.17763273076828 -7.291128785984457 L16.17763273076828 -7.008489192075828 L14.250000000000002 -7.963586501092736 L14.250000000000002 -8.246226095001363 z"/>
<path fill="#cfab7c" stroke="#cfab7c" d="M12.117271934896527 -8.94995368726058 L12.117271934896527 -8.667314093351951 L9.844250398503558 -9.098289562066029 L9.844250398503558 -9.380929155974657 z"/>
<path fill="#cfab7c" stroke="#cfab7c" d="M19.191342951089922 -4.749661590524531 L19.191342951089922 -4.467021996615902 L17.841599982106207 -5.831042314733152 L17.841599982106207 -6.113681908641782 z"/>
<path fill="#cfab7c" stroke="#cfab7c" d="M20.185850380609764 -3.2405128987711094 L20.185850380609764 -2.95787330486248 L19.191342951089922 -4.467021996615903 L19.191342951089922 -4.749661590524532 z"/>
<path fill="#cfab7c" stroke="#cfab7c" d="M17.841599982106207 -6.113681908641782 L17.841599982106207 -5.8310423147331525 L16.177632730768284 -7.0084891920758245 L16.177632730768284 -7.291128785984452 z"/>
<path fill="#cfab7c" stroke="#cfab7c" d="M20.79490466566481 -1.3494509588057304 L20.79490466566481 -1.6320905527143597 L20.848626185793947 -1.1975872734784674 L20.848626185793947 -1.12355424545922 L20.848626185793947 -0.914947679569838 z"/>
<path fill="#cfab7c" stroke="#cfab7c" d="M20.848626185793947 1.5336955645106176 L20.848626185793947 1.4596625364913696 L20.848626185793947 1.2510559706019884 L20.794904665664806 1.685559249837885 L20.794904665664806 1.9681988437465145 z"/>
<path fill="#cfab7c" stroke="#cfab7c" d="M20.79490466566481 -1.6320905527143597 L20.79490466566481 -1.3494509588057304 L20.185850380609764 -2.95787330486248 L20.185850380609764 -3.2405128987711094 z"/>
<path fill="#cfab7c" stroke="#cfab7c" d="M20.18585038060976 3.2939815958946346 L20.18585038060976 3.576621189803264 L20.794904665664806 1.9681988437465143 L20.794904665664806 1.685559249837885 z"/>
<path fill="#cfab7c" stroke="#cfab7c" d="M19.19134295108992 4.803130287648055 L19.19134295108992 5.0857698815566845 L20.18585038060976 3.576621189803264 L20.18585038060976 3.2939815958946346 z"/>
<path fill="#cfab7c" stroke="#cfab7c" d="M17.8415999821062 6.167150605765306 L17.8415999821062 6.449790199673934 L19.19134295108992 5.0857698815566845 L19.19134295108992 4.803130287648055 z"/>
<path fill="#cfab7c" stroke="#cfab7c" d="M16.177632730768277 7.344597483107978 L16.177632730768277 7.627237077016607 L17.8415999821062 6.449790199673935 L17.8415999821062 6.167150605765306 z"/>
<path fill="#cfab7c" stroke="#cfab7c" d="M14.249999999999996 8.299694792124882 L14.249999999999996 8.582334386033514 L16.177632730768277 7.627237077016609 L16.177632730768277 7.344597483107979 z"/>
<path fill="#cfab7c" stroke="#cfab7c" d="M12.117271934896523 9.003422384384102 L12.117271934896523 9.28606197829273 L14.249999999999995 8.582334386033512 L14.249999999999995 8.299694792124884 z"/>
<path fill="#cfab7c" stroke="#cfab7c" d="M9.844250398503556 9.43439785309818 L9.844250398503556 9.717037447006808 L12.117271934896525 9.28606197829273 L12.117271934896525 9.003422384384102 z"/>
<path fill="#cfab7c" stroke="#cfab7c" d="M5.155749601496434 9.434397853098176 L5.155749601496434 9.717037447006806 L7.499999999999993 9.862165820642977 L7.499999999999993 9.579526226734348 z"/>
<path fill="#cfab7c" stroke="#cfab7c" d="M7.499999999999994 9.57952622673435 L7.499999999999994 9.862165820642979 L9.844250398503556 9.717037447006808 L9.844250398503556 9.43439785309818 z"/>
<path fill="#cfab7c" stroke="#cfab7c" d="M2.8827280651034664 9.003422384384098 L2.8827280651034664 9.286061978292727 L5.155749601496434 9.717037447006806 L5.155749601496434 9.434397853098176 z"/>
<path fill="#cfab7c" stroke="#cfab7c" d="M0.7499999999999928 8.299694792124878 L0.7499999999999928 8.582334386033507 L2.8827280651034664 9.286061978292727 L2.8827280651034664 9.003422384384098 z"/>
<path fill="#cfab7c" stroke="#cfab7c" d="M-1.1776327307682857 7.344597483107974 L-1.1776327307682857 7.627237077016604 L0.7499999999999928 8.582334386033509 L0.7499999999999928 8.299694792124878 z"/>
<path fill="#cfab7c" stroke="#cfab7c" d="M-2.8415999821062083 6.167150605765299 L-2.841599982106209 6.449790199673928 L-1.1776327307682863 7.627237077016603 L-1.1776327307682863 7.3445974831079734 z"/>
<path fill="#cfab7c" stroke="#cfab7c" d="M-4.191342951089926 4.803130287648049 L-4.191342951089926 5.085769881556679 L-2.8415999821062083 6.449790199673928 L-2.8415999821062083 6.167150605765299 z"/>
<path fill="#cfab7c" stroke="#cfab7c" d="M-5.185850380609765 3.2939815958946266 L-5.185850380609766 3.576621189803256 L-4.191342951089926 5.085769881556678 L-4.191342951089926 4.803130287648049 z"/>
<path fill="#cfab7c" stroke="#cfab7c" d="M-5.79490466566481 1.6855592498378738 L-5.79490466566481 1.9681988437465032 L-5.185850380609765 3.576621189803256 L-5.185850380609766 3.2939815958946266 z"/>
<path fill="#cfab7c" stroke="#cfab7c" d="M-5.999999999999999 0.026734348561752802 L-5.999999999999999 0.3093739424703822 L-5.794904665664811 1.968198843746503 L-5.79490466566481 1.6855592498378738 z"/>
<path fill="#cfab7c" stroke="#cfab7c" d="M-5.7949046656648076 -1.6320905527143679 L-5.7949046656648076 -1.3494509588057384 L-6 0.30937394247038225 L-6 0.026734348561752802 z"/>
<path fill="#cfab7c" stroke="#cfab7c" d="M-5.185850380609759 -3.24051289877112 L-5.185850380609759 -2.9578733048624906 L-5.7949046656648076 -1.3494509588057386 L-5.7949046656648076 -1.632090552714368 z"/>
<path fill="#cfab7c" stroke="#cfab7c" d="M0.7500000000000159 -8.246226095001367 L0.7500000000000159 -7.963586501092739 L-1.1776327307682732 -7.0084891920758325 L-1.1776327307682732 -7.29112878598446 z"/>
<path fill="#cfab7c" stroke="#cfab7c" d="M-4.1913429510899185 -4.749661590524538 L-4.1913429510899185 -4.467021996615909 L-5.185850380609759 -2.95787330486249 L-5.185850380609759 -3.24051289877112 z"/>
<path fill="#cfab7c" stroke="#cfab7c" d="M-2.8415999821061964 -6.11368190864179 L-2.8415999821061964 -5.831042314733161 L-4.1913429510899185 -4.467021996615909 L-4.1913429510899185 -4.749661590524539 z"/>
<path fill="#cfab7c" stroke="#cfab7c" d="M-1.1776327307682743 -7.291128785984459 L-1.1776327307682757 -7.008489192075829 L-2.841599982106197 -5.8310423147331605 L-2.841599982106197 -6.113681908641789 z"/>
<path fill="#cfab7c" stroke="#cfab7c" d="M5.155749601496451 -9.380929155974659 L5.155749601496451 -9.09828956206603 L2.882728065103485 -8.667314093351955 L2.882728065103485 -8.949953687260583 z"/>
<path fill="#cfab7c" stroke="#cfab7c" d="M2.882728065103485 -8.949953687260585 L2.882728065103485 -8.667314093351955 L0.7500000000000159 -7.96358650109274 L0.7500000000000159 -8.246226095001369 z"/>
<path fill="#cfab7c" stroke="#cfab7c" d="M8.523761586985492 -1.1250874048270396 L8.41937726398035 -1.0661829655278166 L7.949647810457214 -0.8011129886813129 L7.740879164446931 -0.6833041100828667 L7.682950235532793 -0.5981847290895714 L7.422270055419172 -0.2151475146197426 L7.306412197590896 -0.044908752633152034 L7.306412197590896 0.049566632727792714 L7.306412197590896 0.4747058668520441 L7.306412197590897 0.6636566375739335 L7.364341126505035 0.7487760185672288 L7.625021306618657 1.1318132330370574 L7.740879164446934 1.3020519950236478 L7.845263487452075 1.3609564343228708 L8.31499294097521 1.626026411169374 L8.523761586985493 1.7438352897678198 L8.65392670872076 1.7648580407542198 L9.239669756529464 1.8594604201930205 L9.5 1.9015059221658208 L10.833333333333334 1.9015059221658208 L12.44817572837553 1.9015059221658208 L16.833333333333332 1.9015059221658208 L17.2792549848558 1.9015059221658208 L19.5 1.9015059221658208 L19.630165121735267 1.8804831711794205 L20.21590816954397 1.7858807917406199 L20.476238413014507 1.7438352897678193 L20.580622736019645 1.6849308504685965 L20.63377455892164 1.6549370905280407 L20.748190529334103 1.5903717574397513 L20.794904665664806 1.5640108065930234 L20.848626185793947 1.5336955645106178 L20.794904665664806 1.9681988437465145 L20.18585038060976 3.576621189803264 L19.19134295108992 5.0857698815566845 L17.8415999821062 6.449790199673934 L16.177632730768277 7.6272370770166065 L14.249999999999998 8.58233438603351 L12.117271934896525 9.286061978292729 L9.844250398503558 9.717037447006806 L7.499999999999995 9.862165820642977 L5.155749601496435 9.717037447006804 L2.882728065103467 9.286061978292727 L0.7499999999999929 8.582334386033507 L-1.177632730768286 7.627237077016602 L-2.8415999821062083 6.449790199673928 L-4.191342951089926 5.085769881556678 L-5.185850380609766 3.576621189803256 L-5.794904665664811 1.968198843746503 L-6 0.3093739424703822 L-5.7949046656648076 -1.3494509588057384 L-5.185850380609759 -2.9578733048624906 L-4.1913429510899185 -4.467021996615909 L-2.841599982106196 -5.8310423147331605 L-1.1776327307682735 -7.00848919207583 L0.750000000000016 -7.963586501092737 L2.8827280651034854 -8.667314093351953 L5.155749601496452 -9.098289562066029 L7.5 -9.243417935702197 L9.84425039850356 -9.098289562066025 L12.117271934896529 -8.667314093351948 L14.250000000000004 -7.963586501092731 L16.177632730768284 -7.008489192075824 L17.841599982106207 -5.831042314733152 L19.191342951089922 -4.467021996615903 L20.185850380609764 -2.95787330486248 L20.79490466566481 -1.3494509588057302 L20.848626185793947 -0.914947679569838 L20.794904665664806 -0.9452629216522435 L20.685007059024787 -1.0072785262285946 L20.476238413014503 -1.1250874048270407 L20.411154422782538 -1.1355990111744823 L20.346073291279236 -1.1461101558134408 L19.760330243470534 -1.2407125352522415 L19.5 -1.2827580372250416 L19.12273427184387 -1.2827580372250416 L18.166666666666664 -1.2827580372250416 L16.88555599898914 -1.2827580372250416 L12.166666666666666 -1.2827580372250416 L9.5 -1.2827580372250416 L9.369834878264731 -1.2617352862386415 L8.80527956215823 -1.1705549018904144 L8.784091830456026 -1.1671329067998404 z"/>
<path fill="#cfab7c" stroke="#cfab7c" d="M21.453124159981666 0.7343485617597295 L21.453124159981666 1.3209686453643934 L21.453124159981666 1.4409475465313026 L21.499788136281072 1.4409475465313026 L21.507622163814883 1.4409475465313026 L21.65835116403149 1.4409475465313026 L22.191609570511453 1.4409475465313026 L22.863290802293694 1.4409475465313026 L23.466931728693826 1.4409475465313026 L23.954754613657546 1.4409475465313026 L24.27975432332819 1.4409475465313026 L24.39889805329666 1.4409475465313026 L24.5 1.4409475465313026 L23.546482791726653 0.935631828035176 L23.166666666666664 0.7343485617597295 z"/>
<path fill="#cfab7c" stroke="#cfab7c" d="M22.378129533959235 0.025719120135364166 L21.870872708477066 0.025719120135364166 L21.833575196967136 0.025719120135364166 L21.755404509237458 0.025719120135364166 L21.748103867695125 0.025719120135364166 L21.57510833844239 0.025719120135364166 L21.453124159981666 0.025719120135364166 L21.453124159981666 -0.20760147108351293 L21.453124159981666 -0.4966397219199447 L21.453124159981666 -0.6808798646362096 L23.166666666666664 -0.6808798646362096 L23.446112559276827 -0.5327877266235139 L23.622807017543856 -0.43914863300382906 L24.5 0.025719120135364166 L24.38825574311736 0.025719120135364166 L24.27975432332819 0.025719120135364166 L23.98378465761716 0.025719120135364166 L23.539535718640515 0.025719120135364166 L22.989813986958975 0.025719120135364166 z"/>
<path fill="#cfab7c" stroke="#cfab7c" d="M20.79490466566481 -1.6320905527143597 L20.185850380609764 -3.2405128987711094 L19.191342951089922 -4.749661590524532 L17.841599982106207 -6.113681908641781 L16.177632730768284 -7.291128785984453 L14.250000000000004 -8.24622609500136 L12.117271934896529 -8.949953687260578 L9.84425039850356 -9.380929155974655 L7.5 -9.526057529610826 L5.155749601496452 -9.380929155974657 L2.8827280651034854 -8.949953687260582 L0.750000000000016 -8.246226095001367 L-1.1776327307682735 -7.291128785984459 L-2.841599982106196 -6.113681908641789 L-4.1913429510899185 -4.749661590524538 L-5.185850380609759 -3.24051289877112 L-5.7949046656648076 -1.6320905527143679 L-6 0.026734348561752802 L-5.794904665664811 1.6855592498378735 L-5.185850380609766 3.293981595894626 L-4.191342951089926 4.80313028764805 L-2.8415999821062083 6.167150605765299 L-1.177632730768286 7.344597483107973 L0.7499999999999929 8.299694792124878 L2.882728065103467 9.003422384384097 L5.155749601496435 9.434397853098176 L7.499999999999995 9.579526226734348 L9.844250398503558 9.434397853098178 L12.117271934896525 9.0034223843841 L14.249999999999998 8.29969479212488 L16.177632730768277 7.344597483107977 L17.8415999821062 6.167150605765305 L19.19134295108992 4.803130287648055 L20.18585038060976 3.293981595894634 L20.794904665664806 1.685559249837885 L20.848626185793947 1.2510559706019884 L21.259120835553066 1.0194124011150174 L21.453124159981666 0.7343485617597296 L23.166666666666664 0.7343485617597296 L23.166666666666664 -0.37424703891708927 L23.166666666666664 -0.6808798646362093 L21.453124159981666 -0.6808798646362093 L21.259120835553066 -0.9659437039914974 L20.848626185793947 -1.1975872734784674 z"/>
<path fill="#cfab7c" stroke="#cfab7c" d="M23.622807017543856 -0.43914863300382895 L23.446112559276827 -0.5327877266235131 L23.16666666666666 -0.6808798646362093 L23.16666666666666 -0.37424703891708927 L23.16666666666666 0.7343485617597295 L23.546482791726653 0.935631828035176 L24.499999999999996 1.440947546531303 L24.499999999999996 14.885617597292722 L22.499999999999993 13.721312968116266 L22.499999999999993 -14.37444325576432 L24.499999999999996 -13.418950930626057 L24.499999999999996 0.02571912013536418 z"/>
<path fill="#cfab7c" stroke="#cfab7c" d="M9.5 1.9015059221658208 L9.5 2.325465313028765 L12.833333333333334 2.325465313028765 L19.5 2.325465313028765 L19.5 1.9015059221658208 L17.2792549848558 1.9015059221658208 L16.833333333333332 1.9015059221658208 L12.44817572837553 1.9015059221658208 L10.833333333333334 1.9015059221658208 z"/>
<path fill="#cfab7c" stroke="#cfab7c" d="M21.453124159981666 -0.49663972191994393 L21.453124159981666 -0.2076014710835129 L21.453124159981666 0.025719120135364152 L21.259120835553066 -0.2593447192199238 L21.259120835553066 -0.9659437039914974 L21.453124159981666 -0.6808798646362092 z"/>
<path fill="#cfab7c" stroke="#cfab7c" d="M8.849174391323661 2.220351558096764 L9.5 2.3254653130287646 L9.5 1.9015059221658206 L9.239669756529464 1.8594604201930203 L8.65392670872076 1.7648580407542196 L8.523761586985493 1.7438352897678195 L8.523761586985493 2.1677946806307635 z"/>
<path fill="#cfab7c" stroke="#cfab7c" d="M7.740879164446934 1.726011385886592 L8.001839971959786 1.8732724841346493 L8.523761586985493 2.1677946806307635 L8.523761586985493 1.7438352897678198 L8.31499294097521 1.6260264111693739 L7.845263487452075 1.3609564343228706 L7.740879164446934 1.3020519950236478 z"/>
<path fill="#cfab7c" stroke="#cfab7c" d="M7.451234519876243 1.3004144809201157 L7.740879164446934 1.726011385886592 L7.740879164446934 1.3020519950236478 L7.625021306618657 1.1318132330370572 L7.364341126505035 0.7487760185672288 L7.306412197590897 0.6636566375739336 L7.306412197590897 1.0876160284368777 z"/>
<path fill="#cfab7c" stroke="#cfab7c" d="M8.52376158698549 -0.7011280139640959 L8.262800779472636 -0.5538669157160383 L7.74087916444693 -0.2593447192199223 L7.74087916444693 -0.6833041100828667 L7.949647810457213 -0.8011129886813129 L8.41937726398035 -1.0661829655278166 L8.52376158698549 -1.1250874048270398 z"/>
<path fill="#cfab7c" stroke="#cfab7c" d="M7.306412197590896 0.474705866852044 L7.306412197590896 0.04956663272779272 L7.306412197590896 -0.04490875263315203 L7.306412197590896 0.37905063822979207 L7.306412197590896 0.6152391016321539 L7.306412197590897 1.0876160284368774 L7.306412197590897 0.6636566375739335 z"/>
<path fill="#cfab7c" stroke="#cfab7c" d="M7.74087916444693 -0.6833041100828667 L7.74087916444693 -0.2593447192199225 L7.596056842161586 -0.046546266736684445 L7.3064121975908956 0.37905063822979207 L7.3064121975908956 -0.044908752633152034 L7.422270055419172 -0.21514751461974257 L7.682950235532792 -0.5981847290895714 z"/>
<path fill="#cfab7c" stroke="#cfab7c" d="M9.499999999999998 -1.2827580372250418 L9.499999999999998 -0.8587986463620977 L9.174587195661829 -0.8062417688960971 L8.52376158698549 -0.7011280139640957 L8.52376158698549 -1.1250874048270398 L8.784091830456026 -1.1671329067998404 L8.80527956215823 -1.1705549018904144 L9.369834878264731 -1.2617352862386415 z"/>
<path fill="#cfab7c" stroke="#cfab7c" d="M18.166666666666664 -1.282758037225042 L19.12273427184387 -1.282758037225042 L19.5 -1.282758037225042 L19.5 -0.8587986463620988 L16.166666666666664 -0.8587986463620988 L9.5 -0.8587986463620988 L9.5 -1.282758037225042 L12.166666666666666 -1.282758037225042 L16.88555599898914 -1.282758037225042 z"/>
<path fill="#cfab7c" stroke="#cfab7c" d="M20.346073291279232 -1.1461101558134417 L20.411154422782534 -1.135599011174483 L20.476238413014503 -1.1250874048270412 L20.476238413014503 -0.7011280139640979 L20.150825608676335 -0.753684891430098 L19.499999999999996 -0.8587986463620986 L19.499999999999996 -1.282758037225042 L19.76033024347053 -1.2407125352522421 z"/>
<path fill="#cfab7c" stroke="#cfab7c" d="M20.848626185793947 -1.1975872734784674 L21.259120835553066 -0.9659437039914973 L21.259120835553066 -0.2593447192199239 L20.99816002804021 -0.40660581746798125 L20.476238413014503 -0.7011280139640966 L20.476238413014503 -1.1250874048270405 L20.685007059024787 -1.0072785262285944 L20.79490466566481 -0.9452629216522437 L20.848626185793947 -0.9149476795698384 L20.848626185793947 -1.12355424545922 z"/>
<path fill="#cfab7c" stroke="#cfab7c" d="M21.403943157838413 1.5132129334033528 L21.453124159981666 1.440947546531303 L21.453124159981666 1.3209686453643936 L21.453124159981666 0.7343485617597296 L21.259120835553066 1.0194124011150174 L21.259120835553066 1.7260113858865909 z"/>
<path fill="#cfab7c" stroke="#cfab7c" d="M20.848626185793947 1.4596625364913698 L20.848626185793947 1.5336955645106178 L20.794904665664806 1.5640108065930236 L20.748190529334103 1.5903717574397511 L20.63377455892164 1.6549370905280407 L20.580622736019645 1.6849308504685965 L20.476238413014503 1.7438352897678193 L20.476238413014507 2.1677946806307635 L20.73719922052736 2.020533582382706 L21.259120835553066 1.7260113858865909 L21.259120835553066 1.0194124011150172 L20.848626185793947 1.2510559706019884 z"/>
<path fill="#cfab7c" stroke="#cfab7c" d="M19.825412804338168 2.2729084355627647 L20.476238413014503 2.167794680630764 L20.476238413014503 1.74383528976782 L20.21590816954397 1.7858807917406203 L19.630165121735267 1.880483171179421 L19.499999999999996 1.901505922165821 L19.499999999999996 2.325465313028765 z"/>
<path fill="#cfab7c" stroke="#cfab7c" d="M-29.499999999999993 0.7333333333333332 L-29.279754323328184 -0.2506583446941007 L-13.853364919582676 -1.045164318970475 z"/>
<path fill="#cfab7c" stroke="#cfab7c" d="M23.64057647468726 -15.290614325362444 L22.016481283850695 -15.498310408677153 L21.440701701406493 -15.905740224883862 L22.645033635316125 -15.995074588348922 z"/>
<path fill="#cfab7c" stroke="#cfab7c" d="M19.999999999999996 -16.60321489001692 L20.78009848588115 -16.143919029735258 L19.999999999999993 -16.231348630824357 z"/>
<path fill="#cfab7c" stroke="#cfab7c" d="M19.21990151411884 15.490788742087204 L-26.390576474687258 3.761748321515819 L-27.645033635316125 3.3094569910561984 z"/>
<path fill="#cfab7c" stroke="#cfab7c" d="M18.378038876528112 15.187257314812895 L19.21990151411884 15.490788742087206 L-27.645033635316125 3.309456991056199 z"/>
<path fill="#cfab7c" stroke="#cfab7c" d="M-28.64057647468726 -1.1383300614030536 L-12.819277999431723 -2.321526327178252 L-13.442824330813215 -1.7465038744490233 z"/>
<path fill="#cfab7c" stroke="#cfab7c" d="M-29.279754323328188 1.7173250113607674 L-13.853364919582674 0.39203403132241965 L-13.442824330813215 1.0933735868009686 z"/>
<path fill="#cfab7c" stroke="#cfab7c" d="M21.440701701406496 15.252609937235807 L22.645033635316125 17.461741255015585 L21.390576474687258 17.91403258547521 z"/>
<path fill="#cfab7c" stroke="#cfab7c" d="M22.35307543417871 14.377727896439083 L23.64057647468726 16.75728099202911 L22.01648128385069 14.845180121029099 z"/>
<path fill="#cfab7c" stroke="#cfab7c" d="M22.35307543417871 14.377727896439083 L24.279754323328188 15.869609275320157 L23.64057647468726 16.75728099202911 z"/>
<path fill="#cfab7c" stroke="#cfab7c" d="M-13.98706118289643 -0.32656514382403 L-29.499999999999996 0.7333333333333335 L-13.853364919582676 -1.0451643189704747 z"/>
<path fill="#cfab7c" stroke="#cfab7c" d="M24.499999999999996 -13.418950930626057 L22.499999999999993 -14.37444325576432 L24.279754323328188 -14.402942608653492 z"/>
<path fill="#cfab7c" stroke="#cfab7c" d="M-11.888859533960789 2.1735867334112786 L18.378038876528112 15.187257314812896 L-27.645033635316125 3.3094569910561984 z"/>
<path fill="#cfab7c" stroke="#cfab7c" d="M-28.64057647468726 2.604996728069721 L-12.819277999431726 1.668396039530197 L-27.645033635316125 3.309456991056199 z"/>
<path fill="#cfab7c" stroke="#cfab7c" d="M-29.279754323328188 -0.2506583446941002 L-28.64057647468726 -1.1383300614030534 L-13.442824330813215 -1.746503874449023 z"/>
<path fill="#cfab7c" stroke="#cfab7c" d="M-29.279754323328184 1.7173250113607672 L-29.499999999999993 0.7333333333333332 L-13.853364919582674 0.3920340313224196 z"/>
<path fill="#cfab7c" stroke="#cfab7c" d="M-11.88885953396079 -2.8267170210593306 L-27.645033635316125 -1.8427903243895316 L18.378038876528123 -15.840387602460956 z"/>
<path fill="#cfab7c" stroke="#cfab7c" d="M19.999999999999993 18.069881556683583 L20.780098485881147 15.490788742087206 L21.390576474687258 17.91403258547521 z"/>
<path fill="#cfab7c" stroke="#cfab7c" d="M-12.819277999431726 1.6683960395301973 L-28.64057647468726 2.604996728069721 L-13.442824330813213 1.0933735868009686 z"/>
<path fill="#cfab7c" stroke="#cfab7c" d="M-12.819277999431726 1.6683960395301973 L-11.888859533960789 2.1735867334112786 L-27.645033635316125 3.309456991056199 z"/>
<path fill="#cfab7c" stroke="#cfab7c" d="M22.499999999999993 13.721312968116266 L24.279754323328188 15.869609275320157 L22.35307543417871 14.377727896439083 z"/>
<path fill="#cfab7c" stroke="#cfab7c" d="M22.35307543417871 -15.030858184087137 L22.016481283850695 -15.498310408677153 L24.279754323328188 -14.402942608653492 z"/>
<path fill="#cfab7c" stroke="#cfab7c" d="M19.219901514118835 -16.143919029735258 L-27.64503363531612 -1.8427903243895323 L-26.39057647468726 -2.295081654849153 z"/>
<path fill="#cfab7c" stroke="#cfab7c" d="M-27.645033635316125 -1.8427903243895318 L-11.88885953396079 -2.8267170210593306 L-12.819277999431723 -2.321526327178252 z"/>
<path fill="#cfab7c" stroke="#cfab7c" d="M-29.499999999999996 0.7333333333333334 L-13.98706118289643 -0.3265651438240301 L-13.853364919582674 0.3920340313224196 z"/>
<path fill="#cfab7c" stroke="#cfab7c" d="M19.219901514118835 -16.143919029735258 L18.60942352531273 -16.447365918808543 L19.999999999999996 -16.60321489001692 z"/>
<path fill="#cfab7c" stroke="#cfab7c" d="M19.999999999999993 18.069881556683587 L18.60942352531273 17.91403258547521 L19.99999999999999 15.578218343176301 z"/>
<path fill="#cfab7c" stroke="#cfab7c" d="M19.999999999999993 18.069881556683583 L19.99999999999999 15.578218343176301 L20.780098485881147 15.490788742087206 z"/>
<path fill="#cfab7c" stroke="#cfab7c" d="M22.645033635316125 17.46174125501559 L21.440701701406496 15.252609937235807 L23.64057647468726 16.75728099202911 z"/>
<path fill="#cfab7c" stroke="#cfab7c" d="M-28.64057647468726 -1.1383300614030538 L-27.645033635316125 -1.8427903243895318 L-12.819277999431723 -2.321526327178252 z"/>
<path fill="#cfab7c" stroke="#cfab7c" d="M-27.64503363531612 -1.8427903243895318 L19.219901514118835 -16.143919029735258 L18.378038876528123 -15.840387602460956 z"/>
<path fill="#cfab7c" stroke="#cfab7c" d="M22.499999999999993 -14.37444325576432 L22.35307543417871 -15.030858184087137 L24.279754323328188 -14.402942608653493 z"/>
<path fill="#cfab7c" stroke="#cfab7c" d="M18.60942352531273 -16.44736591880854 L19.219901514118835 -16.143919029735258 L-26.39057647468726 -2.295081654849153 z"/>
<path fill="#cfab7c" stroke="#cfab7c" d="M19.219901514118835 -16.143919029735258 L19.999999999999996 -16.60321489001692 L19.999999999999993 -16.231348630824357 z"/>
<path fill="#cfab7c" stroke="#cfab7c" d="M24.279754323328184 15.869609275320157 L22.499999999999993 13.721312968116266 L24.499999999999996 14.885617597292724 z"/>
<path fill="#cfab7c" stroke="#cfab7c" d="M20.780098485881147 15.490788742087204 L21.440701701406496 15.252609937235809 L21.390576474687258 17.91403258547521 z"/>
<path fill="#cfab7c" stroke="#cfab7c" d="M20.78009848588115 -16.143919029735258 L22.645033635316125 -15.995074588348922 L21.440701701406493 -15.905740224883862 z"/>
<path fill="#cfab7c" stroke="#cfab7c" d="M23.64057647468726 16.75728099202911 L21.440701701406496 15.252609937235809 L22.01648128385069 14.845180121029099 z"/>
<path fill="#cfab7c" stroke="#cfab7c" d="M20.78009848588115 -16.143919029735258 L21.39057647468726 -16.447365918808543 L22.645033635316125 -15.995074588348922 z"/>
<path fill="#cfab7c" stroke="#cfab7c" d="M21.39057647468726 -16.447365918808543 L20.78009848588115 -16.143919029735258 L19.999999999999996 -16.60321489001692 z"/>
<path fill="#cfab7c" stroke="#cfab7c" d="M21.440701701406496 -15.90574022488386 L22.0164812838507 -15.498310408677153 L22.353075434178713 -15.030858184087135 L22.499999999999996 -14.37444325576432 L22.499999999999996 13.721312968116266 L22.353075434178713 14.377727896439083 L22.016481283850695 14.845180121029099 L21.4407017014065 15.252609937235809 L20.78009848588115 15.490788742087206 L19.999999999999993 15.578218343176301 L19.219901514118842 15.490788742087206 L18.378038876528116 15.187257314812898 L-11.88885953396079 2.1735867334112786 L-12.819277999431728 1.668396039530197 L-13.442824330813217 1.0933735868009686 L-13.853364919582676 0.3920340313224196 L-13.987061182896431 -0.3265651438240302 L-13.853364919582678 -1.0451643189704747 L-13.442824330813217 -1.7465038744490236 L-12.819277999431725 -2.3215263271782525 L-11.888859533960792 -2.826717021059331 L18.378038876528127 -15.840387602460957 L19.21990151411884 -16.143919029735258 L19.999999999999996 -16.231348630824353 L20.780098485881155 -16.143919029735258 z"/>
<path fill="#cfab7c" stroke="#cfab7c" d="M22.016481283850695 -15.498310408677153 L23.64057647468726 -15.290614325362444 L24.279754323328188 -14.402942608653492 z"/>
<path fill="#cfab7c" stroke="#cfab7c" d="M18.60942352531273 17.91403258547521 L-26.39057647468726 3.761748321515819 L19.21990151411884 15.490788742087206 z"/>
<path fill="#cfab7c" stroke="#cfab7c" d="M-28.64057647468726 2.604996728069721 L-29.279754323328188 1.7173250113607674 L-13.442824330813213 1.0933735868009684 z"/>
<path fill="#cfab7c" stroke="#cfab7c" d="M18.60942352531273 17.914032585475205 L19.21990151411884 15.490788742087203 L19.99999999999999 15.5782183431763 z"/>
<path fill="#cfab7c" stroke="#cfab7c" d="M-29.279754323328188 -0.2506583446941003 L-13.442824330813215 -1.7465038744490236 L-13.853364919582676 -1.0451643189704745 z"/>
<path fill="#cfab7c" stroke="#cfab7c" d="M21.870872708477066 0.02571912013536418 L22.378129533959235 0.02571912013536418 L22.989813986958975 0.02571912013536418 L23.539535718640515 0.02571912013536418 L23.98378465761716 0.02571912013536418 L24.27975432332819 0.02571912013536418 L24.38825574311736 0.02571912013536418 L24.5 0.02571912013536418 L24.5 -13.418950930626055 L24.27975432332819 -14.402942608653492 L23.640576474687265 -15.290614325362442 L22.64503363531613 -15.995074588348922 L21.390576474687265 -16.44736591880854 L20 -16.603214890016915 L18.609423525312735 -16.44736591880854 L-26.390576474687265 -2.295081654849153 L-27.64503363531613 -1.8427903243895316 L-28.640576474687265 -1.138330061403054 L-29.27975432332819 -0.2506583446941004 L-29.5 0.7333333333333335 L-29.27975432332819 1.7173250113607672 L-28.640576474687265 2.604996728069721 L-27.64503363531613 3.3094569910561984 L-26.390576474687265 3.7617483215158196 L18.609423525312735 17.91403258547521 L19.999999999999996 18.069881556683583 L21.39057647468726 17.91403258547521 L22.64503363531613 17.46174125501559 L23.640576474687265 16.75728099202911 L24.27975432332819 15.869609275320157 L24.5 14.885617597292722 L24.5 1.440947546531303 L24.39889805329666 1.440947546531303 L24.27975432332819 1.440947546531303 L23.954754613657546 1.440947546531303 L23.466931728693826 1.440947546531303 L22.863290802293694 1.440947546531303 L22.191609570511453 1.440947546531303 L21.65835116403149 1.440947546531303 L21.507622163814883 1.440947546531303 L21.499788136281072 1.440947546531303 L21.453124159981666 1.440947546531303 L21.403943157838413 1.5132129334033528 L21.259120835553066 1.7260113858865909 L20.73719922052736 2.020533582382706 L20.476238413014507 2.1677946806307635 L19.825412804338168 2.2729084355627642 L19.5 2.325465313028765 L12.833333333333334 2.325465313028765 L9.5 2.325465313028765 L8.849174391323663 2.2203515580967643 L8.523761586985493 2.167794680630764 L8.001839971959786 1.8732724841346493 L7.740879164446934 1.726011385886592 L7.451234519876243 1.3004144809201157 L7.306412197590897 1.0876160284368777 L7.306412197590896 0.6152391016321539 L7.306412197590896 0.37905063822979207 L7.596056842161586 -0.04654626673668438 L7.740879164446931 -0.2593447192199226 L8.262800779472638 -0.553866915716038 L8.523761586985492 -0.7011280139640956 L9.17458719566183 -0.806241768896097 L9.5 -0.8587986463620977 L16.166666666666664 -0.8587986463620977 L19.5 -0.8587986463620977 L20.150825608676335 -0.753684891430097 L20.476238413014503 -0.7011280139640965 L20.99816002804021 -0.4066058174679814 L21.259120835553066 -0.25934471921992386 L21.453124159981666 0.02571912013536418 L21.57510833844239 0.02571912013536418 L21.748103867695125 0.02571912013536418 L21.755404509237458 0.02571912013536418 L21.833575196967136 0.02571912013536418 z"/>
</svg>