<?xml version="1.0" encoding="UTF-8"?>
<!-- Generated by jsxcad -->
<!DOCTYPE svg PUBLIC "-//W3C//DTD SVG 1.1 Tiny//EN" "http://www.w3.org/Graphics/SVG/1.1/DTD/svg11-tiny.dtd">
<svg baseProfile="tiny" height="35.20304568527922mm" width="54.00000000000003mm" viewBox="-29.500000000000014 -17.58654822335027 54.00000000000003 35.20304568527922" version="1.1" stroke="black" stroke-width=".1" fill="none" xmlns="http://www.w3.org/2000/svg">
<path fill="#000000" stroke="#000000" d="M8.266365894244633e-16 9.626142131979696 L8.266365894244633e-16 9.414162436548223 L-2.344250398503547 9.269034062912054 L-2.344250398503547 9.481013758343526 z"/>
<path fill="#000000" stroke="#000000" d="M2.34425039850356 9.481013758343524 L2.34425039850356 9.269034062912052 L8.266365894244633e-16 9.414162436548223 L8.266365894244633e-16 9.626142131979694 z"/>
<path fill="#000000" stroke="#000000" d="M6.7500000000000036 8.346310697370228 L6.7500000000000036 8.134331001938756 L4.617271934896528 8.838058594197975 L4.617271934896528 9.050038289629446 z"/>
<path fill="#000000" stroke="#000000" d="M8.677632730768282 7.3912133883533215 L8.677632730768282 7.17923369292185 L6.7500000000000036 8.134331001938756 L6.7500000000000036 8.346310697370228 z"/>
<path fill="#000000" stroke="#000000" d="M4.617271934896528 9.050038289629446 L4.617271934896528 8.838058594197975 L2.34425039850356 9.269034062912052 L2.34425039850356 9.481013758343524 z"/>
<path fill="#000000" stroke="#000000" d="M11.691342951089924 4.849746192893399 L11.691342951089924 4.637766497461927 L10.341599982106207 6.001786815579176 L10.341599982106207 6.213766511010648 z"/>
<path fill="#000000" stroke="#000000" d="M12.685850380609764 3.340597501139976 L12.685850380609764 3.128617805708504 L11.691342951089924 4.637766497461927 L11.691342951089924 4.849746192893398 z"/>
<path fill="#000000" stroke="#000000" d="M10.341599982106207 6.213766511010649 L10.341599982106207 6.001786815579176 L8.677632730768284 7.179233692921847 L8.677632730768284 7.39121338835332 z"/>
<path fill="#000000" stroke="#000000" d="M13.29490466566481 1.5201954596517544 L13.29490466566481 1.7321751550832265 L13.30315050706667 1.6654822335025379 L13.30315050706667 1.6569596069171562 L13.30315050706667 1.453502538071066 z"/>
<path fill="#000000" stroke="#000000" d="M13.30315050706667 -1.7307614213197966 L13.30315050706667 -1.7222387947344142 L13.30315050706667 -1.5187817258883247 L13.294904665664808 -1.5854746474690182 L13.294904665664808 -1.79745434290049 z"/>
<path fill="#000000" stroke="#000000" d="M13.29490466566481 1.7321751550832265 L13.29490466566481 1.5201954596517544 L12.685850380609764 3.1286178057085037 L12.685850380609764 3.340597501139976 z"/>
<path fill="#000000" stroke="#000000" d="M12.685850380609763 -3.1938969935257675 L12.685850380609763 -3.40587668895724 L13.294904665664808 -1.7974543429004903 L13.294904665664808 -1.585474647469018 z"/>
<path fill="#000000" stroke="#000000" d="M11.69134295108992 -4.7030456852791875 L11.69134295108992 -4.91502538071066 L12.685850380609763 -3.40587668895724 L12.685850380609763 -3.1938969935257675 z"/>
<path fill="#000000" stroke="#000000" d="M10.341599982106201 -6.067066003396438 L10.341599982106201 -6.27904569882791 L11.69134295108992 -4.91502538071066 L11.69134295108992 -4.703045685279188 z"/>
<path fill="#000000" stroke="#000000" d="M8.677632730768279 -7.24451288073911 L8.677632730768279 -7.456492576170581 L10.341599982106201 -6.279045698827911 L10.341599982106201 -6.067066003396438 z"/>
<path fill="#000000" stroke="#000000" d="M6.7499999999999964 -8.199610189756015 L6.7499999999999964 -8.411589885187489 L8.677632730768277 -7.456492576170585 L8.677632730768277 -7.244512880739111 z"/>
<path fill="#000000" stroke="#000000" d="M4.617271934896525 -8.903337782015235 L4.617271934896525 -9.115317477446707 L6.749999999999997 -8.411589885187489 L6.749999999999997 -8.199610189756017 z"/>
<path fill="#000000" stroke="#000000" d="M2.3442503985035574 -9.334313250729311 L2.3442503985035574 -9.546292946160785 L4.617271934896525 -9.115317477446707 L4.617271934896525 -8.903337782015234 z"/>
<path fill="#000000" stroke="#000000" d="M-2.3442503985035645 -9.334313250729311 L-2.3442503985035645 -9.546292946160783 L-5.168567743551381e-15 -9.691421319796955 L-5.168567743551381e-15 -9.479441624365483 z"/>
<path fill="#000000" stroke="#000000" d="M-5.168567743551381e-15 -9.479441624365482 L-5.168567743551381e-15 -9.691421319796953 L2.3442503985035574 -9.546292946160783 L2.3442503985035574 -9.334313250729311 z"/>
<path fill="#000000" stroke="#000000" d="M-4.617271934896532 -8.903337782015232 L-4.617271934896532 -9.115317477446704 L-2.3442503985035645 -9.546292946160783 L-2.3442503985035645 -9.334313250729311 z"/>
<path fill="#000000" stroke="#000000" d="M-6.750000000000005 -8.199610189756012 L-6.750000000000005 -8.411589885187485 L-4.617271934896532 -9.115317477446704 L-4.617271934896532 -8.903337782015232 z"/>
<path fill="#000000" stroke="#000000" d="M-8.677632730768284 -7.244512880739109 L-8.677632730768284 -7.45649257617058 L-6.750000000000005 -8.411589885187485 L-6.750000000000005 -8.199610189756013 z"/>
<path fill="#000000" stroke="#000000" d="M-10.341599982106208 -6.067066003396431 L-10.341599982106208 -6.279045698827905 L-8.677632730768286 -7.45649257617058 L-8.677632730768286 -7.244512880739106 z"/>
<path fill="#000000" stroke="#000000" d="M-11.691342951089926 -4.703045685279182 L-11.691342951089926 -4.915025380710654 L-10.341599982106208 -6.279045698827904 L-10.341599982106208 -6.067066003396433 z"/>
<path fill="#000000" stroke="#000000" d="M-12.685850380609766 -3.1938969935257595 L-12.685850380609766 -3.405876688957232 L-11.691342951089926 -4.915025380710654 L-11.691342951089926 -4.703045685279182 z"/>
<path fill="#000000" stroke="#000000" d="M-13.294904665664811 -1.585474647469007 L-13.294904665664811 -1.797454342900479 L-12.685850380609766 -3.405876688957232 L-12.685850380609766 -3.1938969935257595 z"/>
<path fill="#000000" stroke="#000000" d="M-13.5 0.073350253807114 L-13.5 -0.13862944162435803 L-13.294904665664811 -1.7974543429004788 L-13.294904665664811 -1.585474647469007 z"/>
<path fill="#000000" stroke="#000000" d="M-13.294904665664808 1.7321751550832347 L-13.294904665664808 1.5201954596517626 L-13.499999999999998 -0.13862944162435803 L-13.499999999999998 0.07335025380711402 z"/>
<path fill="#000000" stroke="#000000" d="M-12.68585038060976 3.340597501139987 L-12.68585038060976 3.1286178057085143 L-13.294904665664808 1.5201954596517626 L-13.294904665664808 1.7321751550832345 z"/>
<path fill="#000000" stroke="#000000" d="M-6.749999999999983 8.346310697370235 L-6.749999999999983 8.134331001938762 L-8.677632730768272 7.179233692921856 L-8.677632730768272 7.391213388353329 z"/>
<path fill="#000000" stroke="#000000" d="M-11.691342951089919 4.849746192893406 L-11.691342951089919 4.637766497461934 L-12.68585038060976 3.1286178057085148 L-12.68585038060976 3.3405975011399867 z"/>
<path fill="#000000" stroke="#000000" d="M-10.341599982106196 6.213766511010657 L-10.341599982106196 6.001786815579185 L-11.691342951089919 4.637766497461934 L-11.691342951089919 4.849746192893405 z"/>
<path fill="#000000" stroke="#000000" d="M-8.677632730768273 7.391213388353326 L-8.677632730768273 7.179233692921853 L-10.341599982106196 6.001786815579186 L-10.341599982106196 6.2137665110106575 z"/>
<path fill="#000000" stroke="#000000" d="M-2.344250398503547 9.481013758343527 L-2.344250398503547 9.269034062912054 L-4.617271934896514 8.838058594197978 L-4.617271934896514 9.05003828962945 z"/>
<path fill="#000000" stroke="#000000" d="M-4.617271934896514 9.05003828962945 L-4.617271934896514 8.838058594197978 L-6.749999999999983 8.134331001938763 L-6.749999999999983 8.346310697370235 z"/>
<path fill="#000000" stroke="#000000" d="M1.172227388077776 1.453502538071066 L0 1.453502538071066 L0 0.17979695431472095 L0 -1.093908629441624 L0 -1.7307614213197964 L4.94817572837553 -1.7307614213197964 L9.7792549848558 -1.7307614213197964 L11.542458695654867 -1.7307614213197964 L13.260600326041782 -1.7307614213197964 L13.286658824262945 -1.7307614213197964 L13.294904665664808 -1.7307614213197964 L13.30315050706667 -1.7307614213197964 L13.294904665664808 -1.79745434290049 L12.685850380609763 -3.40587668895724 L11.69134295108992 -4.91502538071066 L10.341599982106201 -6.279045698827911 L8.677632730768279 -7.456492576170583 L6.749999999999998 -8.411589885187485 L4.617271934896526 -9.115317477446705 L2.344250398503558 -9.546292946160783 L-5.1685677435513815e-15 -9.691421319796953 L-2.344250398503565 -9.546292946160781 L-4.617271934896533 -9.115317477446702 L-6.750000000000007 -8.411589885187484 L-8.677632730768286 -7.456492576170579 L-10.341599982106208 -6.279045698827904 L-11.691342951089926 -4.915025380710655 L-12.685850380609766 -3.405876688957232 L-13.294904665664811 -1.7974543429004788 L-13.5 -0.13862944162435803 L-13.294904665664808 1.5201954596517628 L-12.68585038060976 3.1286178057085148 L-11.691342951089919 4.637766497461933 L-10.341599982106196 6.001786815579185 L-8.677632730768273 7.179233692921855 L-6.749999999999984 8.134331001938762 L-4.6172719348965146 8.838058594197976 L-2.3442503985035477 9.269034062912054 L8.266365894244634e-16 9.414162436548223 L2.3442503985035605 9.26903406291205 L4.617271934896529 8.838058594197973 L6.750000000000004 8.134331001938754 L8.677632730768284 7.179233692921847 L10.341599982106207 6.001786815579176 L11.691342951089924 4.637766497461926 L12.685850380609764 3.128617805708504 L13.29490466566481 1.5201954596517546 L13.30315050706667 1.453502538071066 L13.294904665664808 1.453502538071066 L12.892959838396287 1.453502538071066 L11.622734271843873 1.453502538071066 L9.385555998989142 1.453502538071066 L7.999999999999999 1.453502538071066 z"/>
<path fill="#000000" stroke="#000000" d="M13.30315050706667 1.6654822335025379 L13.29490466566481 1.7321751550832265 L12.685850380609764 3.340597501139976 L11.691342951089924 4.849746192893398 L10.341599982106207 6.213766511010649 L8.677632730768284 7.39121338835332 L6.750000000000004 8.346310697370226 L4.617271934896529 9.050038289629445 L2.3442503985035605 9.481013758343522 L8.266365894244634e-16 9.626142131979694 L-2.3442503985035477 9.481013758343526 L-4.6172719348965146 9.050038289629448 L-6.749999999999984 8.346310697370233 L-8.677632730768273 7.391213388353326 L-10.341599982106196 6.213766511010657 L-11.691342951089919 4.849746192893406 L-12.68585038060976 3.340597501139987 L-13.294904665664808 1.7321751550832347 L-13.5 0.07335025380711402 L-13.294904665664811 -1.585474647469007 L-12.685850380609766 -3.19389699352576 L-11.691342951089926 -4.703045685279182 L-10.341599982106208 -6.067066003396432 L-8.677632730768286 -7.244512880739106 L-6.750000000000007 -8.19961018975601 L-4.617271934896533 -8.90333778201523 L-2.344250398503565 -9.33431325072931 L-5.1685677435513815e-15 -9.47944162436548 L2.344250398503558 -9.33431325072931 L4.617271934896526 -8.903337782015232 L6.749999999999998 -8.199610189756015 L8.677632730768279 -7.24451288073911 L10.341599982106201 -6.067066003396438 L11.69134295108992 -4.703045685279188 L12.685850380609763 -3.1938969935257675 L13.294904665664808 -1.585474647469018 L13.30315050706667 -1.5187817258883245 L24.5 -1.5187817258883245 L24.5 -0.28487944162436535 L24.5 1.6654822335025379 z"/>
<path fill="#000000" stroke="#000000" d="M9.385555998989142 1.453502538071066 L11.622734271843873 1.453502538071066 L12.892959838396287 1.453502538071066 L13.294904665664808 1.453502538071066 L13.30315050706667 1.453502538071066 L13.30315050706667 1.6569596069171562 L13.30315050706667 1.665482233502538 L24.5 1.665482233502538 L24.5 1.6069670050761422 L24.5 1.3121827411167513 L22.249999999999996 1.3121827411167513 L22.075034593356587 1.3121827411167513 L21.718162451391542 1.3121827411167513 L21.22250298387533 1.3121827411167513 L20.634286231880317 1.3121827411167513 L19.999999999999996 1.3121827411167513 L19.365713768119676 1.3121827411167513 L13.333333333333332 1.3121827411167513 L0 1.3121827411167513 L0 1.453502538071066 L1.172227388077776 1.453502538071066 L7.999999999999999 1.453502538071066 z"/>
<path fill="#000000" stroke="#000000" d="M13.286658824262945 -1.7307614213197968 L13.260600326041782 -1.7307614213197968 L11.542458695654867 -1.7307614213197968 L9.7792549848558 -1.7307614213197968 L4.94817572837553 -1.7307614213197968 L0 -1.7307614213197968 L0 -1.8720812182741116 L19.23743115942478 -1.8720812182741116 L19.999999999999996 -1.8720812182741116 L20.762568840575213 -1.8720812182741116 L21.469750778366972 -1.8720812182741116 L22.06565598088646 -1.8720812182741116 L22.4947045111141 -1.8720812182741116 L22.705056179775276 -1.8720812182741116 L24.5 -1.8720812182741116 L24.5 -1.6369162436548224 L24.5 -1.5187817258883252 L13.30315050706667 -1.5187817258883252 L13.30315050706667 -1.7222387947344144 L13.30315050706667 -1.7307614213197968 L13.294904665664808 -1.7307614213197968 z"/>
<path fill="#000000" stroke="#000000" d="M0 1.3121827411167513 L0 -0.8106598984771572 L0 -1.8720812182741116 L0 -1.7307614213197968 L0 -1.0939086294416243 L0 0.17979695431472095 L0 1.453502538071066 z"/>
<path fill="#000000" stroke="#000000" d="M24.5 -0.28487944162436535 L24.5 -1.5187817258883247 L24.5 -1.6369162436548221 L24.5 -1.8720812182741116 L24.5 -14.43223350253807 L24.5 -13.90228426395939 L24.5 14.40228426395939 L24.5 13.87233502538071 L24.5 1.3121827411167513 L24.5 1.6069670050761422 L24.5 1.665482233502538 z"/>
<path fill="#000000" stroke="#000000" d="M21.390576474687258 17.430699252141878 L19.999999999999993 17.586548223350256 L19.999999999999993 17.056598984771572 L21.390576474687258 16.900750013563197 z"/>
<path fill="#000000" stroke="#000000" d="M22.645033635316125 16.97840792168226 L21.390576474687258 17.43069925214188 L21.390576474687258 16.9007500135632 L22.645033635316125 16.448458683103578 z"/>
<path fill="#000000" stroke="#000000" d="M23.640576474687265 16.273947658695775 L22.64503363531613 16.978407921682255 L22.64503363531613 16.448458683103574 L23.640576474687265 15.743998420117096 z"/>
<path fill="#000000" stroke="#000000" d="M24.27975432332819 15.386275941986824 L23.640576474687265 16.273947658695775 L23.640576474687265 15.743998420117096 L24.27975432332819 14.856326703408145 z"/>
<path fill="#000000" stroke="#000000" d="M24.5 14.40228426395939 L24.27975432332819 15.386275941986824 L24.27975432332819 14.856326703408145 L24.5 13.872335025380709 z"/>
<path fill="#000000" stroke="#000000" d="M24.27975432332819 -14.886275941986824 L24.5 -13.90228426395939 L24.5 -14.432233502538068 L24.27975432332819 -15.416225180565505 z"/>
<path fill="#000000" stroke="#000000" d="M23.640576474687265 -15.773947658695777 L24.27975432332819 -14.886275941986826 L24.27975432332819 -15.416225180565505 L23.640576474687265 -16.303896897274456 z"/>
<path fill="#000000" stroke="#000000" d="M22.64503363531613 -16.478407921682255 L23.640576474687265 -15.773947658695777 L23.640576474687265 -16.303896897274456 L22.64503363531613 -17.008357160260935 z"/>
<path fill="#000000" stroke="#000000" d="M21.39057647468726 -16.930699252141878 L22.645033635316125 -16.47840792168226 L22.645033635316125 -17.00835716026094 L21.39057647468726 -17.46064849072056 z"/>
<path fill="#000000" stroke="#000000" d="M19.999999999999993 -17.086548223350253 L21.39057647468726 -16.930699252141878 L21.39057647468726 -17.46064849072056 L19.999999999999993 -17.616497461928933 z"/>
<path fill="#000000" stroke="#000000" d="M18.60942352531273 -16.930699252141878 L19.999999999999993 -17.086548223350253 L19.999999999999993 -17.616497461928933 L18.60942352531273 -17.46064849072056 z"/>
<path fill="#000000" stroke="#000000" d="M-26.39057647468726 -2.778414988182489 L18.60942352531273 -16.930699252141878 L18.60942352531273 -17.46064849072056 L-26.39057647468726 -3.30836422676117 z"/>
<path fill="#000000" stroke="#000000" d="M-27.645033635316125 -2.326123657722867 L-26.39057647468726 -2.7784149881824876 L-26.39057647468726 -3.308364226761169 L-27.645033635316125 -2.8560728963015483 z"/>
<path fill="#000000" stroke="#000000" d="M-28.640576474687265 -1.6216633947363877 L-27.64503363531613 -2.3261236577228654 L-27.64503363531613 -2.856072896301545 L-28.640576474687265 -2.1516126333150676 z"/>
<path fill="#000000" stroke="#000000" d="M-29.27975432332819 -0.7339916780274339 L-28.640576474687265 -1.6216633947363874 L-28.640576474687265 -2.1516126333150676 L-29.27975432332819 -1.263940916606114 z"/>
<path fill="#000000" stroke="#000000" d="M-29.5 0.2499999999999999 L-29.27975432332819 -0.7339916780274339 L-29.27975432332819 -1.263940916606114 L-29.5 -0.27994923857868026 z"/>
<path fill="#000000" stroke="#000000" d="M-29.27975432332819 1.2339916780274336 L-29.499999999999996 0.2499999999999999 L-29.499999999999996 -0.2799492385786802 L-29.27975432332819 0.7040424394487537 z"/>
<path fill="#000000" stroke="#000000" d="M-28.640576474687265 2.121663394736387 L-29.27975432332819 1.2339916780274336 L-29.27975432332819 0.7040424394487537 L-28.640576474687265 1.5917141561577073 z"/>
<path fill="#000000" stroke="#000000" d="M-27.64503363531613 2.826123657722865 L-28.640576474687265 2.1216633947363874 L-28.640576474687265 1.5917141561577073 L-27.64503363531613 2.296174419144185 z"/>
<path fill="#000000" stroke="#000000" d="M-26.39057647468726 3.2784149881824867 L-27.645033635316125 2.8261236577228663 L-27.645033635316125 2.2961744191441875 L-26.39057647468726 2.748465749603808 z"/>
<path fill="#000000" stroke="#000000" d="M18.60942352531273 17.430699252141878 L-26.39057647468726 3.2784149881824876 L-26.39057647468726 2.748465749603808 L18.60942352531273 16.900750013563197 z"/>
<path fill="#000000" stroke="#000000" d="M19.999999999999993 17.586548223350253 L18.60942352531273 17.430699252141874 L18.60942352531273 16.900750013563197 L19.999999999999993 17.056598984771572 z"/>
<path fill="#000000" stroke="#000000" d="M13.333333333333332 1.312182741116751 L19.365713768119676 1.312182741116751 L19.999999999999996 1.312182741116751 L20.634286231880317 1.312182741116751 L21.22250298387533 1.312182741116751 L21.718162451391542 1.312182741116751 L22.075034593356587 1.312182741116751 L22.249999999999996 1.312182741116751 L24.5 1.312182741116751 L24.5 13.872335025380709 L24.27975432332819 14.856326703408143 L23.640576474687265 15.743998420117096 L22.64503363531613 16.448458683103574 L21.39057647468726 16.900750013563194 L19.999999999999996 17.056598984771572 L18.609423525312735 16.900750013563194 L-26.390576474687265 2.7484657496038056 L-27.64503363531613 2.296174419144185 L-28.640576474687265 1.5917141561577073 L-29.27975432332819 0.7040424394487537 L-29.5 -0.2799492385786802 L-29.27975432332819 -1.263940916606114 L-28.640576474687265 -2.1516126333150676 L-27.64503363531613 -2.856072896301545 L-26.390576474687265 -3.3083642267611664 L18.609423525312735 -17.460648490720555 L20 -17.61649746192893 L21.390576474687265 -17.460648490720555 L22.64503363531613 -17.008357160260932 L23.640576474687265 -16.303896897274456 L24.27975432332819 -15.416225180565505 L24.5 -14.432233502538068 L24.5 -1.8720812182741113 L22.705056179775276 -1.8720812182741113 L22.4947045111141 -1.8720812182741113 L22.06565598088646 -1.8720812182741113 L21.469750778366972 -1.8720812182741113 L20.762568840575213 -1.8720812182741113 L19.999999999999996 -1.8720812182741113 L19.23743115942478 -1.8720812182741113 L0 -1.8720812182741113 L0 -0.8106598984771571 L0 1.312182741116751 z"/>
<path fill="#000000" stroke="#000000" d="M21.39057647468726 17.430699252141874 L22.64503363531613 16.978407921682255 L23.640576474687265 16.273947658695775 L24.27975432332819 15.386275941986822 L24.5 14.40228426395939 L24.5 -13.902284263959388 L24.27975432332819 -14.886275941986824 L23.640576474687265 -15.773947658695775 L22.64503363531613 -16.478407921682255 L21.390576474687265 -16.930699252141874 L20 -17.08654822335025 L18.609423525312735 -16.930699252141874 L-26.390576474687265 -2.7784149881824862 L-27.64503363531613 -2.3261236577228654 L-28.640576474687265 -1.6216633947363874 L-29.27975432332819 -0.7339916780274339 L-29.5 0.2499999999999999 L-29.27975432332819 1.2339916780274338 L-28.640576474687265 2.1216633947363874 L-27.64503363531613 2.826123657722865 L-26.390576474687265 3.2784149881824853 L18.609423525312735 17.430699252141874 L19.999999999999996 17.586548223350253 z"/>
</svg>